<svg width="140" height="220" viewBox="0 0 140 220" fill="none" xmlns="http://www.w3.org/2000/svg">
<path d="M94.144 219.456C90.304 219.456 86.272 218.976 82.048 218.016C78.016 217.056 73.024 215.712 67.072 213.984C59.968 211.872 54.112 210.336 49.504 209.376C44.896 208.416 40.096 207.936 35.104 207.936C24.352 207.936 13.792 210.72 3.424 216.288H2.272C1.12 211.68 0.544 207.168 0.544 202.752C0.544 194.688 2.56 186.816 6.592 179.136C10.816 171.264 15.904 164.064 21.856 157.536C27.808 151.008 35.968 142.656 46.336 132.48C57.28 121.92 66.112 112.896 72.832 105.408C79.552 97.728 85.216 89.376 89.824 80.352C94.432 71.136 96.736 61.536 96.736 51.552C96.736 40.608 94.912 31.968 91.264 25.632C87.808 19.296 82.432 16.128 75.136 16.128C68.416 16.128 62.944 18.432 58.72 23.04C54.496 27.456 52.384 32.928 52.384 39.456C52.384 45.984 53.632 51.84 56.128 57.024C58.816 62.016 62.176 65.664 66.208 67.968V69.12C62.944 72.192 59.392 74.592 55.552 76.32C51.712 78.048 47.968 78.912 44.32 78.912C38.368 78.912 33.376 76.224 29.344 70.848C25.504 65.472 23.584 58.176 23.584 48.96C23.584 40.896 25.888 33.12 30.496 25.632C35.296 18.144 42.304 12 51.52 7.19999C60.736 2.39999 71.584 -1.71661e-05 84.064 -1.71661e-05C100.768 -1.71661e-05 114.208 4.70399 124.384 14.112C134.752 23.328 139.936 36.096 139.936 52.416C139.936 62.784 137.248 72.384 131.872 81.216C126.688 90.048 120.256 97.92 112.576 104.832C104.896 111.744 94.624 120.096 81.76 129.888C69.088 139.488 59.008 147.744 51.52 154.656C44.032 161.568 38.272 168.864 34.24 176.544C39.808 175.008 45.76 174.24 52.096 174.24C56.704 174.24 61.504 174.624 66.496 175.392C71.488 176.16 76.192 177.024 80.608 177.984C81.376 178.176 83.872 178.752 88.096 179.712C92.512 180.48 96.448 180.864 99.904 180.864C105.088 180.864 109.888 179.808 114.304 177.696C118.72 175.392 123.328 171.552 128.128 166.176L128.992 166.752C131.488 173.856 132.736 179.808 132.736 184.608C132.736 191.328 130.912 197.376 127.264 202.752C123.808 207.936 119.104 212.064 113.152 215.136C107.2 218.016 100.864 219.456 94.144 219.456Z" fill="#003005" fill-opacity="0.12"/>
</svg>
