<svg width="143" height="218" viewBox="0 0 143 218" fill="none" xmlns="http://www.w3.org/2000/svg">
<path d="M58.04 217.44C44.408 217.44 31.448 214.08 19.16 207.36C6.872 200.64 0.728 187.68 0.728 168.48C0.728 156 3.704 146.016 9.656 138.528C15.8 131.04 24.44 127.296 35.576 127.296C48.632 127.296 56.12 132.192 58.04 141.984C48.248 142.56 41.528 145.92 37.88 152.064C34.424 158.208 32.696 165.216 32.696 173.088C32.696 181.344 35.096 187.776 39.896 192.384C44.696 196.992 50.552 199.296 57.464 199.296C63.608 199.296 69.464 197.472 75.032 193.824C80.792 190.176 85.496 184.608 89.144 177.12C92.792 169.632 94.616 160.608 94.616 150.048C94.616 138.336 91.352 127.488 84.824 117.504C78.488 107.328 68.984 100.032 56.312 95.616C66.488 92.736 75.32 88.224 82.808 82.08C90.296 75.744 95.96 68.832 99.8 61.344C103.64 53.664 105.56 46.368 105.56 39.456C105.56 32.352 103.64 26.688 99.8 22.464C96.152 18.048 90.776 15.84 83.672 15.84C76.76 15.84 71.192 17.952 66.968 22.176C62.936 26.208 60.92 31.584 60.92 38.304C60.92 42.912 61.784 47.232 63.512 51.264C65.432 55.296 68.216 57.792 71.864 58.752C64.76 65.28 57.464 68.544 49.976 68.544C44.024 68.544 39.032 66.432 35 62.208C31.16 57.792 29.24 51.744 29.24 44.064C29.24 35.424 31.832 27.84 37.016 21.312C42.392 14.592 49.592 9.40799 58.616 5.75999C67.64 2.112 77.72 0.287996 88.856 0.287996C100.184 0.287996 109.88 2.20799 117.944 6.04799C126.008 9.88799 132.056 14.976 136.088 21.312C140.312 27.648 142.424 34.656 142.424 42.336C142.424 52.32 139.064 62.112 132.344 71.712C125.624 81.312 115.832 89.376 102.968 95.904C115.064 99.936 124.088 106.176 130.04 114.624C136.184 122.88 139.256 132.48 139.256 143.424C139.256 155.328 135.8 167.04 128.888 178.56C122.168 189.888 112.568 199.2 100.088 206.496C87.8 213.792 73.784 217.44 58.04 217.44Z" fill="#003005" fill-opacity="0.12"/>
</svg>
