<svg width="139" height="214" viewBox="0 0 139 214" fill="none" xmlns="http://www.w3.org/2000/svg">
<path d="M138.376 123.568C138.376 131.056 135.496 137.68 129.736 143.44C123.976 149.2 116.584 152.944 107.56 154.672L94.888 214H54.856L76.456 152.08L70.984 150.352C63.304 148.24 57.256 146.704 52.84 145.744C48.424 144.784 43.72 144.304 38.728 144.304C26.056 144.304 15.688 146.32 7.624 150.352H6.472L0.424 139.12V137.68C20.2 114.064 35.656 92.848 46.792 74.032C57.928 55.216 63.496 37.264 63.496 20.176C63.496 14.416 62.728 8.464 61.192 2.32C65.224 0.97599 70.024 0.303988 75.592 0.303988C84.232 0.303988 90.952 2.70399 95.752 7.504C100.552 12.112 102.952 18.064 102.952 25.36C102.952 34 99.112 44.272 91.432 56.176C83.944 67.888 74.632 79.6 63.496 91.312C52.552 102.832 41.8 112.816 31.24 121.264L31.528 122.128C34.984 120.784 39.016 119.632 43.624 118.672C48.424 117.52 52.936 116.944 57.16 116.944C61.96 116.944 67.72 117.52 74.44 118.672C81.16 119.824 85.384 120.592 87.112 120.976L110.44 53.872H128.872L114.76 120.688C121.48 118.192 127.528 113.68 132.904 107.152L133.768 107.728C136.84 113.104 138.376 118.384 138.376 123.568Z" fill="#003005" fill-opacity="0.12"/>
</svg>
