<svg width="27" height="27" viewBox="0 0 27 27" fill="none" xmlns="http://www.w3.org/2000/svg">
<g clip-path="url(#clip0_124_4)">
<path fill-rule="evenodd" clip-rule="evenodd" d="M23.7013 0C25.5219 0 27 1.47814 27 3.29875V23.7013C27 25.5219 25.5219 27 23.7013 27H3.29875C1.47814 27 0 25.5219 0 23.7013V3.29875C0 1.47814 1.47809 0 3.29875 0H23.7013V0ZM13.5 4.27148C10.9937 4.27148 10.6794 4.28208 9.69511 4.32701C8.71283 4.37184 8.04199 4.52783 7.45495 4.75601C6.84809 4.99184 6.33345 5.3074 5.8204 5.8204C5.30735 6.33345 4.99178 6.84814 4.75595 7.45495C4.52783 8.04199 4.37184 8.71283 4.32696 9.69511C4.28208 10.6794 4.27148 10.9937 4.27148 13.5C4.27148 16.0063 4.28208 16.3206 4.32696 17.3049C4.37184 18.2872 4.52783 18.958 4.75595 19.545C4.99178 20.1519 5.30735 20.6665 5.8204 21.1796C6.33345 21.6927 6.84809 22.0082 7.45495 22.244C8.04199 22.4722 8.71283 22.6282 9.69511 22.673C10.6794 22.7179 10.9937 22.7285 13.5 22.7285C16.0063 22.7285 16.3206 22.7179 17.3049 22.673C18.2872 22.6282 18.958 22.4722 19.545 22.244C20.1519 22.0082 20.6665 21.6927 21.1796 21.1796C21.6927 20.6665 22.0082 20.1519 22.244 19.545C22.4722 18.958 22.6282 18.2872 22.673 17.3049C22.7179 16.3206 22.7285 16.0063 22.7285 13.5C22.7285 10.9937 22.7179 10.6794 22.673 9.69511C22.6282 8.71283 22.4722 8.04199 22.244 7.45495C22.0082 6.84814 21.6927 6.33345 21.1796 5.8204C20.6665 5.3074 20.1519 4.99184 19.545 4.75601C18.958 4.52783 18.2872 4.37184 17.3049 4.32701C16.3206 4.28208 16.0063 4.27148 13.5 4.27148V4.27148ZM13.5 5.9343C15.9641 5.9343 16.256 5.94369 17.2291 5.98809C18.1289 6.02917 18.6175 6.17952 18.9427 6.30582C19.3735 6.47325 19.6809 6.67327 20.0038 6.99616C20.3268 7.31911 20.5268 7.62655 20.6942 8.05728C20.8205 8.3825 20.9709 8.87113 21.0119 9.77089C21.0563 10.744 21.0657 11.0359 21.0657 13.5C21.0657 15.9641 21.0563 16.256 21.0119 17.2291C20.9709 18.1289 20.8205 18.6175 20.6942 18.9427C20.5268 19.3735 20.3268 19.6809 20.0038 20.0038C19.6809 20.3268 19.3735 20.5268 18.9427 20.6942C18.6175 20.8205 18.1289 20.9709 17.2291 21.0119C16.2562 21.0563 15.9643 21.0657 13.5 21.0657C11.0357 21.0657 10.7439 21.0563 9.77089 21.0119C8.87113 20.9709 8.3825 20.8205 8.05728 20.6942C7.6265 20.5268 7.31911 20.3268 6.99616 20.0038C6.67322 19.6809 6.4732 19.3735 6.30582 18.9427C6.17947 18.6175 6.02912 18.1289 5.98804 17.2291C5.94364 16.256 5.93425 15.9641 5.93425 13.5C5.93425 11.0359 5.94364 10.744 5.98804 9.77089C6.02912 8.87113 6.17947 8.3825 6.30582 8.05728C6.4732 7.62655 6.67322 7.31911 6.99616 6.99616C7.31911 6.67327 7.6265 6.47325 8.05728 6.30582C8.3825 6.17952 8.87113 6.02917 9.77089 5.98809C10.744 5.94369 11.0359 5.9343 13.5 5.9343V5.9343ZM13.5 8.76103C10.8827 8.76103 8.76103 10.8827 8.76103 13.5C8.76103 16.1173 10.8827 18.239 13.5 18.239C16.1173 18.239 18.239 16.1173 18.239 13.5C18.239 10.8827 16.1173 8.76103 13.5 8.76103ZM13.5 16.5762C11.8011 16.5762 10.4238 15.1989 10.4238 13.5C10.4238 11.8011 11.8011 10.4238 13.5 10.4238C15.1989 10.4238 16.5762 11.8011 16.5762 13.5C16.5762 15.1989 15.1989 16.5762 13.5 16.5762V16.5762ZM19.5337 8.57382C19.5337 9.18543 19.0378 9.68119 18.4262 9.68119C17.8146 9.68119 17.3188 9.18543 17.3188 8.57382C17.3188 7.96221 17.8146 7.4664 18.4262 7.4664C19.0378 7.4664 19.5337 7.96221 19.5337 8.57382Z" fill="#6F966B"/>
</g>
<defs>
<clipPath id="clip0_124_4">
<rect width="27" height="27" fill="white"/>
</clipPath>
</defs>
</svg>
