<svg width="46" height="46" viewBox="0 0 46 46" fill="none" xmlns="http://www.w3.org/2000/svg">
<path d="M26.124 7.37482C26.124 5.55145 26.8484 3.80277 28.1377 2.51346C29.427 1.22415 31.1757 0.499817 32.999 0.499817C34.8224 0.499817 36.5711 1.22415 37.8604 2.51346C39.1497 3.80277 39.874 5.55145 39.874 7.37482C39.874 9.19818 39.1497 10.9469 37.8604 12.2362C36.5711 13.5255 34.8224 14.2498 32.999 14.2498C31.1757 14.2498 29.427 13.5255 28.1377 12.2362C26.8484 10.9469 26.124 9.19818 26.124 7.37482ZM37.374 7.37482C37.374 6.80028 37.2609 6.23138 37.041 5.70058C36.8211 5.16978 36.4989 4.68748 36.0926 4.28122C35.6864 3.87497 35.2041 3.55271 34.6733 3.33284C34.1425 3.11298 33.5736 2.99982 32.999 2.99982C32.4245 2.99982 31.8556 3.11298 31.3248 3.33284C30.794 3.55271 30.3117 3.87497 29.9054 4.28122C29.4992 4.68748 29.1769 5.16978 28.9571 5.70058C28.7372 6.23138 28.624 6.80028 28.624 7.37482C28.624 8.53514 29.085 9.64794 29.9054 10.4684C30.7259 11.2889 31.8387 11.7498 32.999 11.7498C34.1593 11.7498 35.2721 11.2889 36.0926 10.4684C36.9131 9.64794 37.374 8.53514 37.374 7.37482Z" fill="#2F4858"/>
<path d="M41.7495 16.75H31.292C31.702 17.525 32.007 18.365 32.187 19.25H41.7495C42.081 19.25 42.399 19.3817 42.6334 19.6161C42.8678 19.8505 42.9995 20.1685 42.9995 20.5V21.75C42.9995 24.9 40.252 28.285 35.2595 29.075C36.0645 29.625 36.7345 30.3575 37.212 31.21C42.487 29.7825 45.4995 25.7175 45.4995 21.75V20.5C45.4995 19.5054 45.1044 18.5516 44.4012 17.8483C43.6979 17.1451 42.7441 16.75 41.7495 16.75Z" fill="#2F4858"/>
<path d="M28.3024 16.7497C27.0424 15.2247 25.1349 14.2497 22.9999 14.2497C21.5028 14.2471 20.0458 14.7344 18.8515 15.6372C17.6571 16.5399 16.7909 17.8086 16.3849 19.2497C16.0231 20.536 16.0435 21.8997 16.4436 23.1746C16.8437 24.4494 17.6063 25.5802 18.6383 26.429C19.6702 27.2778 20.9269 27.8078 22.255 27.9545C23.5831 28.1011 24.9252 27.858 26.1174 27.2547C27.0354 26.7875 27.8366 26.12 28.462 25.3016C29.0873 24.4831 29.5208 23.5346 29.7303 22.5261C29.9398 21.5176 29.92 20.475 29.6725 19.4752C29.4249 18.4753 28.9558 17.5439 28.2999 16.7497H28.3024ZM26.9524 19.2497C27.1987 19.7691 27.3402 20.3319 27.3689 20.906C27.3976 21.48 27.313 22.0542 27.1199 22.5955C26.9267 23.1369 26.6288 23.6349 26.2432 24.0612C25.8576 24.4874 25.3918 24.8335 24.8724 25.0797C24.353 25.326 23.7903 25.4675 23.2162 25.4962C22.6421 25.5249 22.068 25.4403 21.5266 25.2472C20.9853 25.054 20.4873 24.7561 20.061 24.3705C19.6348 23.9849 19.2887 23.5191 19.0424 22.9997C18.5451 21.9505 18.485 20.7466 18.8754 19.6531C19.2657 18.5595 20.0744 17.6658 21.1237 17.1685C22.1729 16.6712 23.3768 16.6111 24.4703 17.0014C25.5639 17.3917 26.4576 18.2005 26.9549 19.2497H26.9524Z" fill="#2F4858"/>
<path d="M8.78758 31.21C9.26376 30.357 9.9323 29.6269 10.7401 29.0775C5.75008 28.285 3.00008 24.8975 3.00008 21.75V20.5C3.00008 20.1685 3.13177 19.8505 3.36619 19.6161C3.60061 19.3817 3.91856 19.25 4.25008 19.25H13.8126C13.9892 18.3783 14.2898 17.5364 14.7051 16.75H4.25008C3.25551 16.75 2.30169 17.1451 1.59843 17.8483C0.895165 18.5516 0.500075 19.5054 0.500075 20.5V21.75C0.500075 25.7175 3.51507 29.78 8.78758 31.21Z" fill="#2F4858"/>
<path d="M11.7825 31.4249C12.4425 30.8499 13.305 30.4999 14.25 30.4999L31.75 30.4999C32.2428 30.4986 32.731 30.5947 33.1866 30.7827C33.6422 30.9707 34.0561 31.2468 34.4046 31.5953C34.7531 31.9438 35.0292 32.3577 35.2172 32.8133C35.4052 33.2689 35.5013 33.7571 35.5 34.2499V35.4999C35.5 40.4274 30.85 45.4999 23 45.4999C15.15 45.4999 10.5 40.4274 10.5 35.4999V34.2499C10.5 33.1249 10.995 32.1149 11.7825 31.4249ZM33 34.2499C33 33.9184 32.8683 33.6005 32.6339 33.366C32.3994 33.1316 32.0815 32.9999 31.75 32.9999H14.25C13.9185 32.9999 13.6005 33.1316 13.3661 33.366C13.1317 33.6005 13 33.9184 13 34.2499V35.4999C13 39.0949 16.58 42.9999 23 42.9999C29.42 42.9999 33 39.0949 33 35.4999V34.2499Z" fill="#2F4858"/>
<path d="M13 0.499817C11.1766 0.499817 9.42795 1.22415 8.13864 2.51346C6.84933 3.80277 6.125 5.55145 6.125 7.37482C6.125 9.19818 6.84933 10.9469 8.13864 12.2362C9.42795 13.5255 11.1766 14.2498 13 14.2498C14.8234 14.2498 16.572 13.5255 17.8614 12.2362C19.1507 10.9469 19.875 9.19818 19.875 7.37482C19.875 5.55145 19.1507 3.80277 17.8614 2.51346C16.572 1.22415 14.8234 0.499817 13 0.499817ZM13 2.99982C14.1603 2.99982 15.2731 3.46075 16.0936 4.28122C16.9141 5.1017 17.375 6.21449 17.375 7.37482C17.375 8.53514 16.9141 9.64794 16.0936 10.4684C15.2731 11.2889 14.1603 11.7498 13 11.7498C11.8397 11.7498 10.7269 11.2889 9.90641 10.4684C9.08594 9.64794 8.625 8.53514 8.625 7.37482C8.625 6.21449 9.08594 5.1017 9.90641 4.28122C10.7269 3.46075 11.8397 2.99982 13 2.99982Z" fill="#2F4858"/>
</svg>
