<svg width="44" height="44" viewBox="0 0 44 44" fill="none" xmlns="http://www.w3.org/2000/svg">
<path d="M29.721 38.3722C13.9712 50.2907 -6.19633 30.37 5.47851 14.3547C5.59279 14.1978 5.71065 14.039 5.83565 13.8821C13.4927 3.80178 27.1389 -0.437445 39.9887 3.3977C40.1084 3.4335 40.2175 3.4982 40.3068 3.58621C40.3961 3.67422 40.4629 3.78288 40.5012 3.9028C42.2642 9.40624 42.4763 15.2967 41.114 20.915C39.7516 26.5333 36.8684 31.6578 32.7871 35.715C31.8244 36.6683 30.8002 37.556 29.721 38.3722V38.3722Z" stroke="#2F4858" stroke-width="3" stroke-miterlimit="10" stroke-linecap="square"/>
<path d="M25.6579 18.4351C25.1222 13.1857 29.1668 3.84318 39.997 3.39761" stroke="#2F4858" stroke-width="3" stroke-linecap="round" stroke-linejoin="bevel"/>
</svg>
