<?xml version="1.0" encoding="utf-8"?>
<!-- Generator: Adobe Illustrator 25.0.1, SVG Export Plug-In . SVG Version: 6.00 Build 0)  -->
<svg version="1.1" id="Livello_1" xmlns="http://www.w3.org/2000/svg" xmlns:xlink="http://www.w3.org/1999/xlink" x="0px" y="0px"
	 viewBox="0 0 43.5 45.3" style="enable-background:new 0 0 43.5 45.3;" xml:space="preserve">
<style type="text/css">
	.st0{fill:#359E68;}
</style>
<g>
	<path class="st0" d="M35.3,3.6c-0.2,0-0.3-0.1-0.5,0c-1.3,0.2-2.3,0.8-3.3,1.7C29.8,6.7,28.8,8.8,28,11c-0.6,1.8-0.8,3.6-1.1,5.4
		c-0.5,4.1-1.3,8.1-3.5,11.6c-1,1.6-2.3,3-3.8,4.1c-1.7,1.2-3.4,2.3-5.4,2.9c-1.4,0.4-2.9,0.5-4.3,0.2c-0.9-0.2-1.5-1-1.3-1.9
		c0.1-0.5,0.3-0.9,0.6-1.4c0.1-0.3,0.3-0.3,0.5,0c0.1,0.2,0.2,0.5,0.2,0.7c0.2,1.4,1.1,1.9,2.5,1.6c1.9-0.5,2.3-3,1.3-4.2
		c-0.6-0.8-1.3-1.5-1.9-2.3c-0.6-0.7-1.1-1.5-1.6-2.2c-1.4-2.1-1.5-4.4-0.5-6.7c0.9-2.1,2.3-3.7,4.1-4.9c3.8-2.6,7.7-5.1,11.6-7.6
		c1.3-0.9,2.6-1.7,4-2.5c1.6-1,3.4-1.8,5.3-2.1c0.8-0.1,1.6,0,2.4,0c0.6,0.1,1.3,0.2,1.9,0.3c0.2,0.1,0.5,0.2,0.7,0.3
		c0.4,0.2,0.5,0.6,0.4,1c-0.2,0.4-0.3,0.9-0.6,1.3c-1.8,2.6-4.2,4.6-7.1,5.9c-0.3,0.2-0.7,0.3-1,0.3c-0.4,0.1-0.5-0.1-0.5-0.4
		c0-0.3,0.1-0.6,0.1-0.8c0.4-1.6,1.2-3.1,2.3-4.3c0.5-0.6,1.1-1.1,1.9-1.3c0.1-0.1,0.3-0.2,0.4-0.2C35.4,3.6,35.4,3.6,35.3,3.6z"/>
	<path class="st0" d="M9.8,29c-0.5,0.5-1,1-1.4,1.5c-0.6,0.7-1,1.5-1.1,2.4c-0.3,2,1,3.8,3,4.3c0.2,0,0.4,0.1,0.6,0.1
		c0.6,0,0.9,0.3,1.3,0.7c1.9,2.1,4.2,3.7,7,4.5c1.2,0.3,2.5,0.4,3.7,0.3c0.9-0.1,1.6-0.7,1.9-1.6c0.2,0.1,0.4,0.2,0.6,0.2
		c1.8,0.7,3.7,0.8,5.6,0.1c1.6-0.5,2.6-1.6,3-3.2c0.2-0.8,0-1.5-0.4-2.2c-0.1-0.2-0.2-0.4-0.2-0.5c0.2-0.1,0.4-0.2,0.6-0.2
		c0.9-0.1,1.8-0.2,2.6-0.4c1.8-0.5,3.2-1.4,4-3.1c0.3-0.6,0.5-1.3,0.3-2c-0.1-0.2-0.1-0.5-0.3-0.7c-0.3-0.3-0.2-0.5,0-0.8
		c0.2-0.3,0.5-0.2,0.7-0.1c0.5,0.3,0.9,0.7,1,1.2c0.2,0.6,0.4,1.3,0.4,2c0.3,2.6-0.5,4.9-2.1,6.9c-1.9,2.4-4.3,3.8-7.2,4.6
		c-2,0.6-4,0.9-6,1c-2.5,0.2-5,0.2-7.4,0.1c-1.1-0.1-2.3,0-3.4-0.1c-3.7-0.3-7.4-1.1-10.6-3.2c-1.8-1.2-3.4-2.7-4.5-4.6
		c-1.6-2.9-1.4-5.7,0.2-8.5c1.2-2.1,2.9-3.7,4.9-5.1c0.2-0.1,0.4-0.2,0.6-0.3c0,0.2,0.1,0.5,0.1,0.7C7.4,25.2,8,27.3,9.8,29
		C9.8,29,9.8,29,9.8,29z"/>
	<path class="st0" d="M3,8.2C3,8,3,7.7,3,7.4c0.1-0.8,0.4-1.6,0.9-2.3c0.7-0.9,1.4-1.8,2.3-2.5c0.7-0.5,1.4-0.8,2.3-0.8
		c2.1,0.1,4.2-0.2,6.2-0.6c1.5-0.3,3-0.4,4.5-0.3c1.6,0.1,2.9,0.7,3.7,2c0.5,0.8,0.8,1.6,1.2,2.4c0,0.1,0,0.3-0.1,0.4
		c-1.1,0.7-2.2,1.4-3.4,2.1c-0.1-0.1-0.2-0.2-0.2-0.3c-0.5-0.8-1-1.5-1.8-2c-1.3-1-2.8-0.9-4.1,0.1C14.1,6,13.7,6.5,13.2,7
		c-0.7,0.7-1.4,1.4-2.2,2c-1.8,1.1-3.4,2.5-5,4C4.9,14,3.7,15,2.5,16c-0.2,0.2-0.5,0.2-0.7,0c-0.2-0.2,0-0.4,0.1-0.5
		c0.7-0.6,1-1.2,0.9-2.1c0-0.2,0.1-0.5,0.3-0.7c0.2-0.4,0.5-0.7,0.7-1.1c0.2-0.4,0.2-0.6-0.2-0.9C3.4,10.4,3,10.2,3.1,9.8
		c0.1-0.4,0.5-0.5,0.8-0.5c0.3,0,0.5,0,0.8-0.1c0.9,0,1.8,0,2.7,0c1-0.1,1.8-0.7,2.4-1.4c0.2-0.2,0.3-0.5,0.1-0.7
		C9.7,6.9,9.5,6.7,9.2,6.6C8.9,6.6,8.7,6.9,8.7,7.1C8.5,7.9,7.8,8,7.2,7.8C6.7,7.7,6.5,7.5,6.5,7c0-0.5,0.2-0.9,0.6-1.1
		c0.4-0.1,0.5-0.3,0.5-0.7c0-0.5-0.3-0.6-0.7-0.5C5.3,5,4.2,6,3.7,7.4C3.5,7.7,3.4,8,3.2,8.3C3.2,8.3,3.1,8.3,3,8.2z M6.1,11
		c0-0.4-0.2-0.6-0.5-0.4C5.4,10.8,5.1,11,5,11.2c-0.3,0.5-0.6,1-0.9,1.5C4,12.9,4.1,13,4,13.2c0.1,0,0.3-0.1,0.4-0.1
		C4.5,13,4.6,13,4.6,13c0.5-0.5,0.9-1,1.4-1.6C6.1,11.2,6.1,11.1,6.1,11z"/>
	<path class="st0" d="M28.9,22.9c1.7,0.1,3.4,0.1,5.1,0.2c2.1,0.1,4.2-0.3,6-1.4c0.4-0.2,0.8-0.4,1.3-0.5c0.4-0.1,0.7,0,0.9,0.4
		c0.6,1,0.6,3.4-0.6,4.4c-1.2,1-2.6,1.5-4.2,1.8c-2.1,0.4-4.2,0.2-6.3-0.2c-1.1-0.2-2.2-0.5-3.4-0.8c-0.1,0-0.2-0.1-0.3-0.1
		C27.9,25.4,28.4,24.1,28.9,22.9z"/>
	<path class="st0" d="M18.4,35.3c0.7-0.4,1.5-0.8,2.2-1.3c0.5-0.3,1-0.7,1.5-1c0.1-0.1,0.3-0.1,0.3,0c0.9,0.8,2,1.3,3.1,1.7
		c1.4,0.5,2.8,0.8,4.2,1.3c0.6,0.2,1.2,0.4,1.8,0.7c1.3,0.7,1.1,2.4,0.1,3.2c-1,0.7-2,1-3.2,0.8c-3.9-0.6-7.1-2.3-9.8-5.1
		C18.6,35.5,18.5,35.4,18.4,35.3z"/>
	<path class="st0" d="M23.5,31.7c0.5-0.5,0.9-0.8,1.3-1.3c0.5-0.6,0.9-1.1,1.4-1.7c0.1-0.2,0.2-0.2,0.4-0.1c1.7,0.5,3.4,0.8,5.1,0.9
		c1.1,0.1,2.2,0.2,3.3,0.2c0.8,0,1.5,0,2.2-0.2c0.4-0.1,0.9-0.1,1.3-0.1c0.8,0.1,1.2,1,0.9,1.8c-0.2,0.6-0.7,1.1-1.2,1.5
		c-1,0.8-2.1,1.2-3.4,1.2C31.1,33.9,27.3,33.3,23.5,31.7z"/>
	<path class="st0" d="M30.6,15.8c0.1-1.1,0.1-2.1,0.2-3.2c0-0.3-0.1-0.7,0.1-1c0.1-0.2,0.6-0.2,0.9-0.3c1.1-0.4,2.2-0.7,3.2-1.1
		c2.3-0.9,4.1-2.4,5.6-4.4c0.4-0.6,1.2-0.8,1.7-1.2c0.1,0,0.3,0,0.3,0.1c0.1,0.2,0.3,0.5,0.3,0.8c0.3,3.1-1,5.4-3.4,7.1
		c-2.2,1.6-4.7,2.5-7.3,3c-0.4,0.1-0.9,0.1-1.3,0.2C30.7,15.8,30.6,15.8,30.6,15.8z"/>
	<path class="st0" d="M29.3,21.4c0.1-0.4,0.2-0.8,0.3-1.1c0.2-0.8,0.4-1.6,0.6-2.4c0.1-0.3,0.2-0.3,0.4-0.4c1,0,2-0.1,3-0.1
		c1.8-0.1,3.5-0.6,5-1.6c0.7-0.4,1.4-0.8,2.1-1.2c0.4-0.2,0.8-0.4,1.2-0.5C42.5,14,43,14.4,43,15c0,0.7-0.2,1.3-0.6,1.9
		c-0.8,1.4-2.1,2.2-3.5,2.8c-1.5,0.6-3.1,1-4.7,1.2c-1.5,0.2-3.1,0.3-4.7,0.5C29.5,21.5,29.4,21.5,29.3,21.4z"/>
	<path class="st0" d="M13.4,37.3c1.1-0.4,2.1-0.8,3.1-1.2c0.1,0,0.3,0,0.3,0.1c1.4,1.8,3.2,3.2,5.4,4c0.3,0.1,0.6,0.3,0.8,0.5
		c0.1,0.1,0.3,0.3,0.3,0.4c0,0.1-0.2,0.3-0.4,0.3c-0.4,0.1-0.8,0.2-1.2,0.3c-0.9,0.2-1.7,0-2.6-0.3c-2.2-0.8-4.1-2-5.6-3.8
		C13.5,37.6,13.5,37.4,13.4,37.3z"/>
	<path class="st0" d="M6.1,11c0,0.1-0.1,0.2-0.2,0.4c-0.4,0.5-0.9,1.1-1.4,1.6c0,0-0.1,0.1-0.1,0.1c-0.1,0-0.3,0.1-0.4,0.1
		c0-0.1,0-0.3,0.1-0.4c0.3-0.5,0.6-1,0.9-1.5c0.2-0.2,0.4-0.5,0.7-0.6C5.9,10.4,6.1,10.6,6.1,11z"/>
</g>
</svg>
