<svg xmlns="http://www.w3.org/2000/svg" viewBox="0 0 671.05 461.56"><defs><style>.cls-1{fill:#6b3026;}.cls-2{fill:#9d524b;}.cls-3{fill:#80b192;}</style></defs><g id="Livello_2" data-name="Livello 2"><g id="Livello_1-2" data-name="Livello 1"><path class="cls-1" d="M113.79,249.15s-11.71,72.63,63,144.68c48.46,46.7,124.64,72.6,171.75,67,141.18-16.9,174.61-135.63,191.62-220.25,10.17-50.63,8.5-136.65-4.76-174.46C530.49,52,508.57,22.27,493.88,24.85c-6.26,1.09-6.92,2.32-11.72-2.26-2-1.9-3.6-9.65-15.6-17-26.4-16.11-109.46,5.69-156.63,24.49-56.46,22.52-92.53,44.21-127.38,81.7C152,144.67,123.29,190,113.79,249.15Z"/><path class="cls-2" d="M497.07,48.61S353.71,73.74,335.84,115.47C286.72,230.22,265.72,178.75,181,237c-80.93,55.59,5.45,135.24,6.83,136.88,4.14,5,56.79,72.52,156.09,67.82,79.72-3.79,151.85-58.76,176.62-196.26,19.86-110.25-3.17-170.25-3.17-170.25S511.18,59.21,497.07,48.61Z"/><path class="cls-1" d="M479.23,67S410.5,89.38,378.09,104c-34.23,15.42-49.66,72.89-56,88.74-.78,2-3.39,8.14-3.91,10.17-1.09,4.27-5.28,10.95-40,19.28-44.2,10.6,19.08,11.23,19.08,11.23s45.2-4.2,45.28-17.87c.19-32.86,9.54-72.61,49.7-96.85C404.34,111.35,465,86.93,473,81.39,479.73,76.76,479.23,67,479.23,67Z"/><path class="cls-3" d="M60.06,295.76a60.06,60.06,0,1,1,0-120.11,58.84,58.84,0,0,1,38.09,13.78,64.69,64.69,0,0,1,13,15,58.44,58.44,0,0,1,7.74,19.21l2.33,11.14h.39l-.2.92.2.93h-.39l-2.33,11.14A58.18,58.18,0,0,1,111.16,267a65,65,0,0,1-13,15,58.81,58.81,0,0,1-38.09,13.77Zm0-88.7a26.76,26.76,0,0,0-11,2.25,29.22,29.22,0,0,0-15.45,15.44,27.79,27.79,0,0,0,0,21.91A29.16,29.16,0,0,0,49.1,262.1a26.61,26.61,0,0,0,11,2.25,27,27,0,0,0,9.45-1.59,30.47,30.47,0,0,0,8.23-4.58,29.47,29.47,0,0,0,6.39-6.91,30.07,30.07,0,0,0,4-8.62l1.95-7-1.95-6.93a29.78,29.78,0,0,0-4-8.64,30.39,30.39,0,0,0-6.38-6.89,30.71,30.71,0,0,0-8.24-4.59A27.28,27.28,0,0,0,60.06,207.06Z"/><path class="cls-1" d="M60.06,275.13a37.43,37.43,0,0,0,13.2-2.27,40.89,40.89,0,0,0,25.23-27.3h9.86A47.33,47.33,0,0,1,102,261.24,53.92,53.92,0,0,1,91.2,273.75,47.62,47.62,0,0,1,76.91,282a48.15,48.15,0,0,1-16.85,3,49.28,49.28,0,1,1,0-98.56A48.17,48.17,0,0,1,91.2,197.66,53.77,53.77,0,0,1,102,210.18a47.37,47.37,0,0,1,6.31,15.67H98.49a40.78,40.78,0,0,0-25.23-27.3,39,39,0,0,0-28.48.89,39.89,39.89,0,0,0-21,21,38.5,38.5,0,0,0,0,30.55,40,40,0,0,0,21,21A37.69,37.69,0,0,0,60.06,275.13Z"/><path class="cls-1" d="M203.24,295.76a5.14,5.14,0,0,1-5.14-5.13v-2.25q-.69.39-1.41.75a58.56,58.56,0,0,1-27.24,6.63,60.25,60.25,0,1,1,60.06-60v54.92a5.13,5.13,0,0,1-5.13,5.13Zm-33.79-88.7a26.83,26.83,0,0,0-10.95,2.25,29.16,29.16,0,0,0-15.44,15.44,27.79,27.79,0,0,0,0,21.91A29.16,29.16,0,0,0,158.5,262.1a27.83,27.83,0,0,0,21.9,0,29.19,29.19,0,0,0,15.45-15.45,27.79,27.79,0,0,0,0-21.91,29.13,29.13,0,0,0-15.45-15.44A26.76,26.76,0,0,0,169.45,207.06Z"/><path class="cls-3" d="M169.45,186.43a49,49,0,0,1,49.28,49.28V285h-9.85V265.27a50.07,50.07,0,0,1-17.15,14.3A47.75,47.75,0,0,1,169.45,285a49.28,49.28,0,1,1,0-98.56Zm0,88.7A37.69,37.69,0,0,0,184.73,272a40,40,0,0,0,21-21,38.5,38.5,0,0,0,0-30.55,39.89,39.89,0,0,0-21-21,38.5,38.5,0,0,0-30.55,0,39.89,39.89,0,0,0-21,21,38.5,38.5,0,0,0,0,30.55,40,40,0,0,0,21,21A37.61,37.61,0,0,0,169.45,275.13Z"/><path class="cls-1" d="M224.92,295.76a5.14,5.14,0,0,1-5.14-5.13V235.71a59.66,59.66,0,0,1,60.06-60.06,58,58,0,0,1,23.21,4.73A62.82,62.82,0,0,1,321.94,193a59.58,59.58,0,0,1,13.12,19.1,58.89,58.89,0,0,1,4.84,23.62v5.64a5.14,5.14,0,0,1-5.14,5.14H313.62a5.13,5.13,0,0,1-5.13-5.14v-5.64a26.84,26.84,0,0,0-2.25-11,29.22,29.22,0,0,0-15.45-15.44,27.77,27.77,0,0,0-21.9,0,29.22,29.22,0,0,0-15.45,15.44,26.84,26.84,0,0,0-2.25,11v54.92a5.13,5.13,0,0,1-5.13,5.13Z"/><path class="cls-3" d="M279.84,186.43a47.1,47.1,0,0,1,18.92,3.84,52,52,0,0,1,15.67,10.45,48.71,48.71,0,0,1,14.69,35h-9.86a37.69,37.69,0,0,0-3.15-15.28,40,40,0,0,0-21-21,38.52,38.52,0,0,0-30.56,0,40,40,0,0,0-21,21,37.69,37.69,0,0,0-3.15,15.28V285h-9.86V235.71a48.85,48.85,0,0,1,49.28-49.28Z"/><path class="cls-1" d="M424,295.76a5.13,5.13,0,0,1-5.13-5.13v-2.25q-.69.39-1.41.75a58.56,58.56,0,0,1-27.24,6.63,60.25,60.25,0,1,1,60.06-60v54.92a5.14,5.14,0,0,1-5.14,5.13Zm-33.78-88.7a26.83,26.83,0,0,0-11,2.25,29.16,29.16,0,0,0-15.44,15.44,27.85,27.85,0,0,0,0,21.91,29.22,29.22,0,0,0,15.45,15.44,27.83,27.83,0,0,0,21.9,0,29.19,29.19,0,0,0,15.45-15.45,27.79,27.79,0,0,0,0-21.91,29.13,29.13,0,0,0-15.45-15.44A26.76,26.76,0,0,0,390.22,207.06Z"/><path class="cls-3" d="M390.22,186.43a49,49,0,0,1,49.28,49.28V285h-9.85V265.27a50.07,50.07,0,0,1-17.15,14.3A47.75,47.75,0,0,1,390.22,285a49.28,49.28,0,1,1,0-98.56Zm0,88.7A37.69,37.69,0,0,0,405.5,272a40,40,0,0,0,21-21,38.5,38.5,0,0,0,0-30.55,39.89,39.89,0,0,0-21-21,38.5,38.5,0,0,0-30.55,0,40,40,0,0,0-21,21A38.61,38.61,0,0,0,354,251a40,40,0,0,0,21,21A37.61,37.61,0,0,0,390.22,275.13Z"/><path class="cls-1" d="M500.61,295.76a59.66,59.66,0,0,1-60.06-60V166a5.14,5.14,0,0,1,5.14-5.13h21.14A5.13,5.13,0,0,1,472,166v24.23a5.14,5.14,0,0,0,5.14,5.13h16.34a5.14,5.14,0,0,1,5.13,5.14v21.14a5.13,5.13,0,0,1-5.13,5.13H477.1a5.14,5.14,0,0,0-5.14,5.14v3.8a26.76,26.76,0,0,0,2.25,10.95,29.22,29.22,0,0,0,15.45,15.44,27.83,27.83,0,0,0,21.9,0A29.28,29.28,0,0,0,527,246.66a26.79,26.79,0,0,0,2.24-10.95v-5.64a5.14,5.14,0,0,1,5.14-5.14h21.14a5.14,5.14,0,0,1,5.14,5.14v5.64a58.66,58.66,0,0,1-4.86,23.75,59.84,59.84,0,0,1-13.1,19A62.73,62.73,0,0,1,523.82,291,58,58,0,0,1,500.61,295.76Z"/><path class="cls-3" d="M549.89,235.71A47.8,47.8,0,0,1,546,255.12,48.82,48.82,0,0,1,535.2,270.7a51.77,51.77,0,0,1-15.67,10.44A47.1,47.1,0,0,1,500.61,285a49.12,49.12,0,0,1-35-14.29,49.33,49.33,0,0,1-10.45-15.58,48.76,48.76,0,0,1-3.84-19.41V171.64h9.86v34.5H487.8V216H461.19v19.71A37.61,37.61,0,0,0,464.34,251a40,40,0,0,0,21,21,38.64,38.64,0,0,0,30.56,0,40,40,0,0,0,21-21A37.61,37.61,0,0,0,540,235.71Z"/><path class="cls-3" d="M611,295.76a60.06,60.06,0,1,1,0-120.11,58,58,0,0,1,23.21,4.73A62.75,62.75,0,0,1,653.1,193a59.55,59.55,0,0,1,13.11,19.1,60.31,60.31,0,0,1,0,47.37,60,60,0,0,1-13.1,19A62.9,62.9,0,0,1,634.2,291,58,58,0,0,1,611,295.76Zm0-88.7a26.83,26.83,0,0,0-11,2.25,29.16,29.16,0,0,0-15.44,15.44,27.85,27.85,0,0,0,0,21.91A29.22,29.22,0,0,0,600,262.1a27.83,27.83,0,0,0,21.9,0,29.19,29.19,0,0,0,15.45-15.45,27.79,27.79,0,0,0,0-21.91,29.13,29.13,0,0,0-15.45-15.44A26.76,26.76,0,0,0,611,207.06Z"/><path class="cls-1" d="M611,186.43a47.14,47.14,0,0,1,18.93,3.84,52.23,52.23,0,0,1,15.67,10.45,48.69,48.69,0,0,1,10.74,15.67,49.56,49.56,0,0,1,0,38.73,49,49,0,0,1-10.74,15.58,52,52,0,0,1-15.67,10.44A47.15,47.15,0,0,1,611,285a49.28,49.28,0,1,1,0-98.56Zm0,88.7A37.69,37.69,0,0,0,626.27,272a40,40,0,0,0,21-21,38.5,38.5,0,0,0,0-30.55,39.89,39.89,0,0,0-21-21,38.5,38.5,0,0,0-30.55,0,40,40,0,0,0-21,21,38.61,38.61,0,0,0,0,30.55,40,40,0,0,0,21,21A37.61,37.61,0,0,0,611,275.13Z"/></g></g></svg>