<svg xmlns="http://www.w3.org/2000/svg" viewBox="0 0 1226 707.06"><defs><style>.cls-1{fill:#111;}.cls-2{fill:#c92a3b;}.cls-3{fill:#1ae304;}.cls-4{fill:#1ce205;}</style></defs><g id="Livello_2" data-name="Livello 2"><g id="Dark"><g id="DgbDZ1"><path class="cls-1" d="M186.72,627.15c-8.92,8.46-17.72,17-26.79,25.32-5.41,4.95-11.87,6.66-18.93,3.8s-10.43-8-11.13-15.63c-1.88-20.49,1.87-40,9.92-58.73,1.33-3.08,5.52-5.7,9-6.9s7.49-.25,10.87-.25c-5.29,18.66-10.52,37.07-15.73,55.49-1.29,4.58-2.57,9.84,1.63,13,4.51,3.37,9.21.15,13.16-2.62,13.35-9.38,24.84-20.77,33.22-34.72,3.17-5.28,4-12.11,5.21-18.38,1.12-6,2.06-7.43,8.11-7.76.34,0,.67,0,1,0H214V596.1c6-5.23,11.22-10.33,17-14.56a50.87,50.87,0,0,1,13.52-6.88c7-2.37,12,.72,13.71,8,1.05,4.49,1.34,9.16,1.94,13.52,5.78-4.74,11.53-9.61,17.46-14.26a57.65,57.65,0,0,1,8.38-5.33c11.24-6,19.8-.83,20.3,11.85.52,13.29-2,26.09-5.45,38.8a78.31,78.31,0,0,0-2.69,14.1c-.39,4.63,2,6.62,6.44,5.34,3.39-1,7.14-2.4,9.53-4.81,7.48-7.56,14.91-15.3,21.29-23.77,2.83-3.77,3.78-9.37,4.45-14.29,4.16-30.3,13.72-58.91,26.18-86.7,2.75-6.14,7-9.89,13.6-11,5-.88,7.4.76,6.49,5.65-2.79,15-5,30.2-9.63,44.6-5.43,16.78-12.68,33-20.18,49-5.38,11.49-6.62,22.78-3.13,34.73,2.19,7.52,8.06,9.17,14.11,4.31,11.82-9.5,16.47-22.92,19.89-36.89.41-1.65-1.27-4.33-2.72-5.81-3.09-3.16-6.55-6-4.93-11.05a15.78,15.78,0,0,1,11.74-11.09c5-1.24,7,2.64,9.24,5.92,2,2.95,3.06,7.56,5.71,8.68s7-.84,10.54-1.55c2.92-.58,5.79-1.37,8.72-1.93,5.4-1,9.16-3.49,12.56-8.39,9.26-13.34,33-16.49,44.81,4.89,2,3.63,2.52,8.16,3.32,12.34.63,3.36.66,6.83.95,10.11.62.12.84.24.94.18,11.38-6.94,22.86-13.74,34-21,1.65-1.08,2.1-4.38,2.57-6.76,2-10.11,9.16-15.44,17.82-19.11,4.23-1.79,8.29.12,11.34,3.22,2.56,2.59,1.65,5.78-.52,8.09-6.55,7-6.19,14.69-2.74,22.66,3.87,9,8.11,17.75,12.22,26.6,2.71,5.86,2.56,11.62-.84,17.12-5,8.16-11,15.4-20.13,19.34a21.3,21.3,0,0,1-27.13-8.84c-4.25-7.38-2.5-13.86,5-18a70.17,70.17,0,0,1,6.94-2.86c1.92,4.38,3.69,8.55,5.58,12.66,1.76,3.84,3.44,7.81,9.07,6.14,6-1.81,9.61-6.19,8.34-11.64a147,147,0,0,0-5.14-16c-3.06-8.57-6.3-17.06-9.56-25.87-8.74,8-12.59,20.31-24,26.2-2.53-8.45,4.58-12,7-18.65-6.95,4.07-12.95,8.08-19.38,11.22-9.3,4.54-16.16,11-20.21,20.69A65,65,0,0,1,471,647.38a29.74,29.74,0,0,1-33.2,11c-8-2.45-13.67-11.09-14.58-20.74-1.1-11.55-.75-22.87,3-33.95a6.89,6.89,0,0,0,.24-2,11.64,11.64,0,0,0-.28-1.72c-6.08,1.25-12.12,2.21-18,3.87a7.9,7.9,0,0,0-4.72,4.54c-4.59,16-11.68,30.35-24.63,41.25a56.14,56.14,0,0,1-8.51,6.05c-13.73,7.71-27.09,1-30-14.85-.41-2.23-.8-4.46-1.3-7.28-6.83,5.74-13.27,11.19-19.76,16.6-8,6.65-16.6,11.56-27.59,9.79-8.59-1.38-12.57-5.62-11.31-14.38,1.92-13.42,4.87-26.7,7.39-40,.4-2.11,1.35-4.29,1.09-6.31-.3-2.27-1.13-5.31-2.77-6.32s-5-.45-6.66.71c-10.65,7.27-19.1,16.69-24,28.69-3.33,8.23-5.67,16.89-8,25.48-1.34,4.92-3.72,8.52-8.66,9.93-6.23,1.79-9.79-1.68-8.08-8,2.47-9.08,5.44-18,7.74-27.15a202.9,202.9,0,0,0,4.52-22.88c.34-2.58-.68-6.58-2.52-7.83s-5.82-.34-8,1c-13.48,8.37-21.29,21.09-26,35.86-2,6.14-3.48,12.43-5,18.7-1.43,5.75-6.94,10.94-12.76,11.72-3.84.52-6.74-3.33-5.78-8.24,1.48-7.63,3.28-15.21,4.94-22.81.18-.66.37-1.33.84-3C187.45,626.33,187.09,626.74,186.72,627.15Zm277.83-11.31c3.47.37,5.55-1.66,6.72-5.31,2.42-7.59,1.63-15-.94-22.32-1.29-3.69-3.87-5.42-7.67-4.51-10.12,2.41-16.88,7.22-13,20.64C451.69,611.33,457.24,615.83,464.55,615.84Zm-25.63-3.43c-3.15,9.16-3.85,18-1.56,26.84,1.73,6.69,6.94,9.88,13,8.23,7.41-2,15.16-11.63,15.84-19.64C452.71,627.55,450.32,626.22,438.92,612.41Z"/><path class="cls-2" d="M625.35,269.7c8.63-1.87,17-3.9,25.49-5.42a61.69,61.69,0,0,1,11.94-.48c1.36,0,3.63.74,3.83,1.55a5.37,5.37,0,0,1-1.3,4.34,56,56,0,0,1-7.27,6c-3.08,2.27-6.41,4.21-9.42,6.55-7.69,6-11.31,13.94-11.94,23.68-1,15.77-2.57,31.49-3.89,47.24-1.51,18-1.47,35.87,3.61,53.45s17,29.34,32.76,37.65a63.34,63.34,0,0,1,9.43,5.54c1.45,1.12,3.13,4,2.63,5.11-.72,1.65-3.39,3.53-5.14,3.45A56.33,56.33,0,0,1,661.39,456c-10.72-3.5-21.24-7.63-31.84-11.52-1.53-.57-3-1.24-4.54-1.86C622.77,448,621,453.18,618.48,458c-3.33,6.54-7.17,6.69-11.49.69a66.43,66.43,0,0,1-4.56-7.73c-1.32-2.49-2.43-5.1-3.84-8.12-4.08,2.26-7.93,4.81-12.11,6.62a199.94,199.94,0,0,1-21.79,8.29c-2.28.68-5.35-1.3-8.06-2.06.78-2.74.71-6.43,2.51-8.05,7.62-6.88,15.66-13.31,23.85-19.52,2.68-2,4.43-3.7,4.67-7.37,1.71-25.57,4-51.12,5.43-76.7.6-10.72-.1-21.55-.94-32.28-.32-4.1-2.25-8.27-4.21-12-5.8-11-12.07-21.83-17.91-32.85-.94-1.77-1.53-5-.59-6.14s4.15-1.45,6.15-1c9,1.84,17.69,4.61,24.57,11.53,1.36-8.4,2.47-16.58,4.11-24.66.58-2.85,2.45-5.43,3.73-8.13,2.19,2.29,5.07,4.22,6.43,6.92C618.36,253.29,621.68,261.44,625.35,269.7Z"/><path class="cls-1" d="M721.71,642.38c10,1.15,16.56-5.25,23.07-11A99.7,99.7,0,0,0,761,613.92c3-4.24,3.6-10.11,5.14-15.29,1-3.17,1.47-6.46,2.46-9.61,4.06-12.9,9.55-16.18,23.24-14-4.71,15.94-9.58,31.82-14,47.82a67.62,67.62,0,0,0-2.43,16.42c-.09,4.35,3.53,6.31,7.38,4.82,4.38-1.69,9-3.86,12.35-7,8.63-8,16.64-16.7,24.91-25.11a44.73,44.73,0,0,1,5.73-5.47c1.19-.84,3.09-.65,4.66-.93-.08,1.84.54,4.17-.35,5.43-5.08,7.19-10.08,14.51-16,21-6.22,6.89-13.24,13.09-20.19,19.28-4.69,4.17-10.29,7-16.81,6.05-9.37-1.28-15.56-9.27-15.87-20-.09-3.09,0-6.18,0-10.16-8,7-15.17,13.62-22.74,19.73a137,137,0,0,1-15.61,10.56c-4,2.39-8.44,3.34-12.53-.06-4.54-3.77-8-8.31-6.53-14.63,3.09-13,6.49-26,9.73-39,.52-2.09,1.3-4.26,1.15-6.33-.21-2.82-.35-6.69-2.1-8s-5.88-1-8.22.17c-10.17,5-18.25,12.67-22,23.37-3.61,10.4-5.52,21.39-8.12,32.13-.55,2.25-.83,4.57-1.3,6.84-1.36,6.59-3.25,7.94-9.57,6.92-5.05-.82-7.2-3.94-6.18-9.93.88-5.21,2.34-10.32,3.51-15.49.32-1.43.51-2.9.89-5.12-8.12,7.23-15.52,14.09-23.22,20.6-9.71,8.2-20.47,13.29-33.8,11s-22.39-10.71-24.3-24c-3.51-24.35,4-44.58,23.35-60,7.49-6,16.48-7.69,25.8-7.17,5.84.33,10.81,6.33,11.45,13.87.61,7.23-1.56,13.8-7.07,18.87-3.79,3.5-9.15,3.6-12,.44-3.11-3.39-2.82-9.81.65-13.14a17.33,17.33,0,0,1,2.78-2.1c2.45-1.54,4.46-3.28,2.37-6.39-1.94-2.88-4.35-2.4-6.88-.69-9.68,6.59-17.38,14.8-22,25.77-3.65,8.69-4.24,17.77-3.31,26.89,1.26,12.24,16,21.18,27.13,14.84,19.36-11,37.95-23.89,45.87-46.34,3.17-9,4.38-18.68,6.5-28,2.86-12.6,5.89-25.17,8.51-37.83a111,111,0,0,0,1.56-14.82c.35-4.83,2-7.78,7.58-7.58,3.93.14,7.88-.64,12.88-1.12-.36,5.78.18,11.22-1.15,16.17-5.45,20.27-11.48,40.4-17.29,60.58-.4,1.41-.71,2.84-1.45,5.77,4.35-4.05,7.65-7.1,10.93-10.17a40.07,40.07,0,0,1,20-10.44c9.52-1.88,16,3.28,15.94,13,0,13.2-3.87,25.44-8.79,37.5C721.34,629.62,718.42,635.48,721.71,642.38Z"/><path class="cls-1" d="M1000.92,579.09v17.14c6.19-5.33,11.31-10.55,17.25-14.58a58.08,58.08,0,0,1,15.61-7c5.6-1.71,10,1,11.4,6.6,1.27,4.9,1.73,10,2.55,15,7-5.77,13.64-12,21.08-17.15a26,26,0,0,1,13.68-4.69c7.77-.07,12.74,7.41,11.46,17.2-1.62,12.47-4.22,24.81-6.46,37.2-.59,3.25-1.77,6.43-2.08,9.7-.69,7.23,3.38,10.51,9.69,7.11,5.44-2.93,10.34-7.12,14.85-11.41a50.9,50.9,0,0,0,14.4-25.13c2.85-11.44,8.74-21.55,16.24-30.46,9.94-11.8,32.62-8.36,40.29,6.64,3.8,7.41,4.69,16.31,7.2,25.64L1226,588a14.71,14.71,0,0,1-7.09,11.46c-10,6.6-19.7,13.53-29.65,20.15a20.83,20.83,0,0,0-8.11,10.24c-4.6,11.65-10.84,22.22-23.31,27.1-14.24,5.56-31,3.28-34.91-16.4-.31-1.57-.92-3.09-1.54-5.11-5.14,5.11-9.78,10-14.75,14.56a40.55,40.55,0,0,1-21.14,10.35c-11.39,1.89-19.32-4.17-18-15.55,1.45-12.78,4.71-25.36,7.21-38a64,64,0,0,0,1.51-7.28c.45-5.83-3.91-9.39-8.77-6.41-5.53,3.4-11,7.64-15,12.71-9.74,12.46-15.18,27-18.17,42.53a11.38,11.38,0,0,1-9.89,9.67c-5.33.89-8-1.81-6.65-7,3.88-15.41,8-30.77,11.63-46.24.74-3.2.21-6.9-.55-10.18-.87-3.72-6.5-4.46-10.45-1.08-8.48,7.27-16.81,14.95-20.94,25.61a256.45,256.45,0,0,0-8.93,28.33c-1.63,6.31-5.64,9.57-11.25,11.35-6,1.89-9.16-1.12-7.77-7.17,2.15-9.35,4.6-18.63,6.73-28,2.71-12,5.2-24,7.85-35.93,1.39-6.3,2.9-7.5,9.41-8C995.8,579.55,998.1,579.33,1000.92,579.09Zm172.15,25.1c-1.39-5.54-2.42-11.21-4.28-16.59-1.41-4.07-4.68-5.71-9.22-4.35-15.39,4.61-13.88,20.25-7.06,27.91a14.69,14.69,0,0,0,15.08,3.85C1173,613,1171.42,608.34,1173.07,604.19ZM1165.21,629c-5.52-1.54-10.89-2.23-15.45-4.53-4.77-2.39-8.75-6.34-12.34-9.05a40.19,40.19,0,0,0-1,23.8c2,7.8,8.71,10.73,15.86,7A24.18,24.18,0,0,0,1165.21,629Z"/><path class="cls-1" d="M46.25,522.7,25.73,539.15c-9-7.26-8.83-14.63.62-21.3,18.64-13.17,39.65-19,62.2-19s38.39,16.74,38.89,39.22c.67,30.82-14.67,52.12-39.21,68.26a93,93,0,0,1-10.77,6.2c-2.44,1.17-3.17,2.32-2,4.88,7.44,16.75,9.31,34.77,11.89,52.63.42,3,.64,6,1.17,8.89C90.3,689,95,692.33,105.23,690.84c2.12-.31,4.21-.74,7.37-1.3-5,8.45-10.5,15.24-19.84,17.11-9.58,1.91-17.53-3-19.35-12.64-2.34-12.36-3.42-25-5.17-37.42-1.49-10.63-2.95-21.28-4.82-31.85-.84-4.78-3.56-5.93-9-5.36-10.8,1.12-14.59,6.69-16.35,16.72-2.36,13.49-6.16,26.75-9.88,40A31.55,31.55,0,0,1,22,687.21c-6,7.19-14.54,6.29-22-2.1C13.23,668.83,15.22,648.36,20.31,629c1.55-5.9,1.78-10.62-2.6-15.88-4.83-5.78-2.86-12.84,4.2-16.09,6-2.77,8.53-6.94,10-13,4.77-20.28,10-40.46,15-60.68,0-.38.05-.76.08-1.14Zm15.29-9.91c-.34,4.71-.17,9-1,13.14q-6.59,31.34-13.71,62.55c-.91,4,.54,5.82,3.93,7.28,3.77,1.62,7.25,4,11.1,5.31,2.52.85,6.07,1.44,8.17.31,24.55-13.24,37.31-34,38.14-61.91.48-16-7.46-26.54-21.88-29.39C77.56,508.37,69.19,510.6,61.54,512.79ZM43.4,611.14l9.42-2.52.07-1.1-8.33-3.31C44.2,606.38,43.89,608.25,43.4,611.14Z"/><path class="cls-1" d="M944.45,611.36h12.19c-1,6.29-5.25,10.59-9.94,14.1-4.21,3.16-6.11,6.72-6.78,11.93-1.68,13.2-4.12,26.37-1.54,39.65,1.34,6.9,3.69,13.6,5.71,20.84L922.9,705c-5-8-6.09-16.82-5.26-25.78,1.5-16.19,3.43-32.34,5.24-48.51.5-4.41-1.07-7.27-5.69-7.39-7.64-.22-15.29-.12-22.93-.12-.82,0-1.64.27-2.46.32-11.39.68-11.36.68-14.25,11.73-3,11.68-5.87,23.44-9.33,35-3.25,10.86-9.34,19.62-21.36,22-4.82.94-9.87.69-15.91,1,14.84-20.66,20-44.25,29.33-66.5-8.19.44-15.91,4.32-23.9.67,3.33-7.33,10.54-9,16.81-10.36,9.26-2,13.16-7.58,16.22-15.86C876.9,581,884.73,560.78,893.48,541c5.9-13.34,15.48-24.35,27.25-33.19,8.14-6.11,17.1-9.45,27.45-7.17,6.31,1.39,10.28,5.34,10.1,11.74a189.18,189.18,0,0,1-2.51,23.7c-3.64,23.44-7.54,46.83-11.28,70.25A32.07,32.07,0,0,0,944.45,611.36Zm-17.52-3.77c4.13-19.66,8.33-38.91,12.18-58.22,2-10.22,3.83-20.53,5-30.88.71-6.11-2.72-8.16-8.45-5.68-9,3.88-16.25,9.85-20.52,18.75-5.58,11.62-11.1,23.31-15.89,35.27-5.31,13.27-9.78,26.87-14.77,40.76Z"/><path class="cls-3" d="M783.09,197.06c-10.36-1.47-20.71-3.07-31.09-4.37-9.23-1.15-18.52-1.92-27.77-2.95s-18.57-2.21-25.68-9.31c-7.44-7.43-6.69-16.05,2.1-21.74,10.2-6.6,21.94-8,33.53-7.56a186.6,186.6,0,0,1,36.88,4.9c9.32,2.31,18.16,7.12,26.71,11.76,5.35,2.9,9.15,8.09,8.41,14.8s-5.84,9.83-11.35,12.07c-2.85,1.16-6.11,1.35-9.19,1.91a14.77,14.77,0,0,1-2.49,0Z"/><path class="cls-3" d="M537.75,134.61c11.77.72,23,2.32,33.72,7.06,6.36,2.83,11.9,7.11,11.6,14.68-.32,8.17-6.1,13-13.33,15.74a37.43,37.43,0,0,1-10.18,2.11c-20.21,1.64-40.41,3.37-60.64,4.42a28.24,28.24,0,0,1-13.76-3.39c-10.07-5.24-11.58-16.92-2.49-23.65A74.76,74.76,0,0,1,506,140C516.25,137,527.14,136.29,537.75,134.61Z"/><path class="cls-3" d="M593.13,234.6c-20.72-1.69-40.28-3.13-59.8-5-5.83-.56-10.59-4-14.09-8.66-4.52-6.09-2.06-15.09,5.83-18.74,6.09-2.83,12.73-5.47,19.31-6.06,18.83-1.7,37.54-.75,55,7.68a36.08,36.08,0,0,1,5.94,3.64c4.67,3.52,8.85,7.7,7.63,14.08-1.33,6.95-6.71,10.4-13.15,12.13A42.8,42.8,0,0,1,593.13,234.6Z"/><path class="cls-3" d="M556.23,67.35c-10.46.69-20.9,1.52-31.36,2-7.48.35-14.63-.73-20.16-6.62-4.61-4.92-4.83-11.6-.29-16.62,5.47-6.05,12.74-9,20.35-11,17.87-4.68,35.8-5.07,53.58.35a43.53,43.53,0,0,1,11.5,5.77c6.8,4.65,7.66,13.49,1.32,18.76-3.75,3.12-8.82,4.85-13.55,6.52-2.89,1-6.23.89-9.39,1-4,.15-8,0-12,0Z"/><path class="cls-3" d="M663.07,52c21.49,1.38,40.19,6.85,56.14,19.83a29.53,29.53,0,0,1,6.22,7.06c6.05,9.71.81,20.54-10.68,20.63-7.45,0-15-2-22.35-3.94-11.26-2.92-22.38-6.36-33.47-9.89a53,53,0,0,1-11.76-5.31c-5.83-3.61-8.85-9.16-7.74-16.09,1-6.6,6.53-8.94,12.08-10.44C655.65,52.7,660,52.44,663.07,52Z"/><path class="cls-3" d="M482.15,196.85c7.34,1.07,16.34,1,21.53,9.79,4.41,7.48,2.18,17.7-5.18,22.37a55.13,55.13,0,0,1-9.88,4.67c-10.54,4-21.14,7.9-31.74,11.79-5.46,2-10.86,4-16.92,2.27-10.43-3-15.76-13.64-10.52-23.18a45.77,45.77,0,0,1,11.72-13.9C452.74,201.68,466.26,197.3,482.15,196.85Z"/><path class="cls-3" d="M634.94,92.73c22.84,2.12,44.24,9,61.94,24.78a24.61,24.61,0,0,1,7.18,12c1.52,6.45-3.46,11.92-11.16,12.15a54.18,54.18,0,0,1-18-2.71c-14.7-4.77-29.29-10-43.63-15.7-5.36-2.15-10.91-5.49-14.6-9.79-7.12-8.3-3.26-17.56,7.43-19.62C627.5,93.2,631,93.12,634.94,92.73Z"/><path class="cls-3" d="M444.4,138.57c-6.94-.25-12.7-2.68-15.78-8.94-3.23-6.57-1.16-12.75,3.46-18,10.24-11.55,23.84-16.35,38.56-18.92,8.33-1.46,16.54-1.5,24.68.9,7.64,2.25,12.52,7.71,12.8,14.23.27,6-4.48,13.37-11,15.9-4.77,1.85-9.87,2.86-14.81,4.33-9.24,2.74-18.45,5.6-27.71,8.26C451.26,137.33,447.81,137.85,444.4,138.57Z"/><path class="cls-3" d="M656.48,42.81c-3.1-.63-8.76-2-14.48-2.89-9.19-1.51-18.43-2.7-27.62-4.17-7.28-1.17-13.85-3.47-17.32-10.92-3.09-6.63-1.8-13.24,4.09-17.74,7.83-6,17.24-7.66,26.49-6.93a130.33,130.33,0,0,1,28,5.85C661,7.67,666,11.23,670.58,14.67c5.95,4.45,8.46,10.69,6,18.08C674.44,39,667.37,42.91,656.48,42.81Z"/><path class="cls-3" d="M425.7,158.16c5.1,1.43,11.17,2.54,16.74,4.86,5.82,2.41,8.94,7.56,8.74,13.94s-2.85,11.87-8.92,14.49c-4.83,2.08-10.11,3.13-15.19,4.64-9.39,2.79-18.75,5.68-28.18,8.34-5.12,1.45-10.26,1.34-14.87-1.75-9.08-6.1-10.34-16-3.25-25.05,6.41-8.19,15.18-12.83,24.87-15.61C411.8,160.26,418.26,159.55,425.7,158.16Z"/><path class="cls-3" d="M543.33,262.52c-.12,7.6-4.44,13.7-11.89,15.28-13.49,2.85-27.05,5.44-40.67,7.62-7,1.12-12.75-2-16.37-8.19s-2.64-12.29,1.52-17.76c8.05-10.59,19.74-14.53,32.23-15.51a71.33,71.33,0,0,1,21.63,2.15C538.46,248.16,543.44,255.05,543.33,262.52Z"/><path class="cls-3" d="M555.38,78.59c11.91-.06,22.18,3.51,30.47,11.85,5.67,5.7,8.24,12.48,5.38,20.44-3,8.27-9.89,12.29-18.46,10.49-10.71-2.24-21.32-4.94-32-7.3-6.87-1.52-10.52-5.94-11.79-12.55-1.21-6.35.54-11.91,5.42-16.2C540.44,80,547.67,78.06,555.38,78.59Z"/><path class="cls-3" d="M637.87,151.3c10.73.57,20.67,2.58,29.37,8.11,3.59,2.28,7.23,5.75,8.88,9.53,3.21,7.39-2.66,15.89-11.43,16.67-6.39.56-12.91-.3-19.36-.71-9.61-.62-19.22-1.39-28.82-2.15a16.72,16.72,0,0,1-4.39-.9c-5.87-2.19-10.1-6.13-10.75-12.53s3.34-10.1,8.4-13C618.71,151.27,628.59,151.53,637.87,151.3Z"/><path class="cls-4" d="M645,208.68c20.73,1.87,37.78,6.6,52.37,18.19.39.31.81.59,1.19.91,5,4.26,7.12,9.74,5.41,14s-8.33,7.45-14.5,6.55a77.82,77.82,0,0,1-11.15-2.53q-19.81-5.91-39.53-12.1A18.35,18.35,0,0,1,627.27,224c-2.33-4.87-1.13-9.73,3.84-11.72C636.24,210.22,641.87,209.44,645,208.68Z"/><path class="cls-4" d="M462.54,42.73c1.5,0,3,0,4.49,0,6.63.16,11.74,3.5,13.24,8.61a15.2,15.2,0,0,1-5.49,16.44,27.21,27.21,0,0,1-3.84,2.32c-10.8,5.5-21.51,11.24-32.52,16.29A20.58,20.58,0,0,1,426.91,88c-9.27-1.63-13.3-9.89-9.62-18.57,4.5-10.62,13.25-17,23.26-21.47,6.84-3,14.37-4.46,21.59-6.6Z"/><path class="cls-4" d="M780.26,202.11c5.65,2.14,10.54,3.66,15.13,5.81,10.06,4.73,20,9.72,29.93,14.75a49.73,49.73,0,0,1,8.44,5.23c5,4,7.06,10.31,5.06,14.52-1.72,3.62-7.68,5.77-13.67,5.2-14.93-1.41-28.25-7.1-40.18-15.83-4.76-3.47-8.84-8-12.7-12.5-2.63-3.08-4.45-7.52-1.61-11C772.91,205.53,776.9,204.18,780.26,202.11Z"/><path class="cls-4" d="M803.54,155.38c-5.48-2.32-10.45-4-15.06-6.45-9.57-5-19.05-10.13-28.36-15.56a53.92,53.92,0,0,1-11-8.35c-3.37-3.36-4.93-8.6-2.09-12.27,2.1-2.74,7.16-4.86,10.68-4.56,21.3,1.79,38.75,11.51,52.72,27.6a18.51,18.51,0,0,1,1.7,2.46c2.32,3.71,3.92,8.13,1.16,11.63C811.22,152.47,807.13,153.46,803.54,155.38Z"/><path class="cls-4" d="M752.48,256.79c-9.65-.47-20.9-6.45-29.47-17.34-4.33-5.49-4.56-11.47-1.24-15.64,3.45-4.33,9.62-5.5,15.94-2.59,8.29,3.82,16.45,7.92,24.65,11.95,7.1,3.48,10.8,9.17,9.59,14.61C770.56,254.07,765.92,256.82,752.48,256.79Z"/><path class="cls-4" d="M393.83,216.65c12.11,0,17.11,5.15,14.24,13.09a13.25,13.25,0,0,1-5.73,6.41c-8.43,4.67-17.09,8.94-25.78,13.09-5.29,2.53-10.82,1.43-13.72-2.18-3-3.76-2.89-8.84.93-13.8A42.28,42.28,0,0,1,393.83,216.65Z"/><path class="cls-4" d="M739.38,37.58c16.17.86,30.41,7.27,43.23,16.42,7.47,5.33,13.74,12.39,20.31,18.91a14.22,14.22,0,0,1,3.13,6.15c2.09,7.3-1.78,13.48-9.35,13.68-5,.13-10.53-.62-14.89-2.82-15-7.55-29.75-15.66-44.26-24.13a34,34,0,0,1-11.41-10.72c-5.76-9.22-.69-17.31,10.24-17.49Zm-5.1,2.17c-2.25,1.42-5.89,2.46-6.44,4.37-.87,3.05.32,6.69.63,10l3.95.27c-1.68,4.85,1,7.12,4.58,8.66,2.44,1,5.1,1.6,7.51,2.7a68.75,68.75,0,0,1,6.4,3.77,71.37,71.37,0,0,0,18.73,10.53c.13,0,.36-.17.47-.11.69.3,1.62.46,2,1,3.7,5.3,9.39,6.63,15.18,7.8h0c3.58,5.51,3.7-3,6.47-1.3l3,3.59c1.63-1.16,2.84-2.39,4.3-3,3.75-1.58,4.58-3.33,2.94-7.6C799.78,69.59,791.8,63,782,57.87a13.3,13.3,0,0,1-2.67-2.33c-1.61-1.52-2.92-3.68-4.82-4.48-4.19-1.77-8-5.63-13.2-3.59-3-5-8.63-4.81-13.26-6.14-4.36-1.26-9.13-1.12-13.72-1.59Z"/><path class="cls-1" d="M171.2,530.3c-1.15,2.47-2,5.92-4.09,8.44a9.32,9.32,0,0,1-11.19,2.88c-3.09-1.24-4.9-7.52-3.48-11.56a15.39,15.39,0,0,1,10.88-10c1.58-.43,4.44,1.14,5.63,2.65S170.31,527,171.2,530.3Z"/><path class="cls-1" d="M791.16,542.08c-5.12,0-8.56-6.18-6.48-11.84a15.33,15.33,0,0,1,9.79-9.29c4.55-1.6,9.18,3.58,8.83,9.58A12.4,12.4,0,0,1,791.16,542.08Z"/><path class="cls-3" d="M787.28,88.74c-5.79-1.17-11.48-2.5-15.18-7.8-.37-.54-1.3-.7-2-1-.11-.06-.34.15-.47.11a71.37,71.37,0,0,1-18.73-10.53,68.75,68.75,0,0,0-6.4-3.77c-2.41-1.1-5.07-1.65-7.51-2.7-3.6-1.54-6.26-3.81-4.58-8.66l-3.95-.27c-.31-3.31-1.5-6.95-.63-10,.55-1.91,4.19-2.95,6.44-4.37l1.3.36-1.29-.37c4.59.47,9.36.33,13.72,1.59,4.63,1.33,10.26,1.09,13.26,6.14,5.25-2,9,1.82,13.2,3.59,1.9.8,3.21,3,4.82,4.48A13.3,13.3,0,0,0,782,57.87c9.84,5.09,17.82,11.72,22,22.57,1.64,4.27.81,6-2.94,7.6-1.46.61-2.67,1.84-4.3,3l-3-3.59c-2.77-1.68-2.89,6.81-6.47,1.3l.22-.42Z"/><path class="cls-4" d="M734.29,39.74l1.29.37-1.3-.36Z"/><path class="cls-4" d="M787.28,88.74l.23-.41-.22.42Z"/></g></g></g></svg>