<svg xmlns="http://www.w3.org/2000/svg" viewBox="0 0 158.44 138.06"><defs><style>.cls-1{fill:#90827f;}.cls-2{fill:#d7cecc;}.cls-3{fill:#404040;}.cls-4{fill:#bdb0ac;}</style></defs><g id="Livello_2" data-name="Livello 2"><g id="Back"><g id="R51P8I"><path class="cls-1" d="M44.83,0A17,17,0,0,0,46.5,1.51a1.94,1.94,0,0,1,.7.89c.13.31.34.53.7.44.71-.17,1.14.59,1.81.5.29.83,1.13,1,1.75,1.4s1.3.87,1.92,1.34a4.5,4.5,0,0,1,.62.71,1.19,1.19,0,0,1,.47-.14,7.69,7.69,0,0,1,2.74.21,1,1,0,0,0,.88-.11,1.4,1.4,0,0,1,1.78-.13c.2.11.5-.16.64.29s.34.74.09,1.15c0,0-.08,0-.12,0a4.34,4.34,0,0,0-.84-.22,14.9,14.9,0,0,0-1.89,0c-.21,0-.39.21-.63.35,1,.44,2.17.14,2.9,1.06,0,0,.15,0,.23,0a5.14,5.14,0,0,1-1,2.27c-.15-.27-.24-.46-.35-.63a2.57,2.57,0,0,1-.36-.56,1.56,1.56,0,0,0-1.41-.81c-1-.1-2-.31-3-.5a2.17,2.17,0,0,0-.44,0c-.16.33-.29.63-.44.93-.4.77-.72.92-1.53.64-.44-.16-.86-.39-1.3-.57-.27-.12-.56-.18-.83-.29s-.47-.2-.74-.32v-1C48,8.05,47,8,46.18,7.61a12.22,12.22,0,0,1-2.45-1.23c-.74-.58-1.52-1.13-2.3-1.7l.31-1.31h-1.8L39.65,3c-.27-.3-.73-.53-.44-1.06S39.7.69,40.55.71c.31,0,.73.16.79-.39a1.61,1.61,0,0,1,.61,0c.77.23,1,.2,1.93-.34Z"/><path class="cls-2" d="M116.46,80.41a6.17,6.17,0,0,0-1.7-.5,10.31,10.31,0,0,1-1.94-.46,4.94,4.94,0,0,0-1.44-.25,6.74,6.74,0,0,1-1.32-.22c-.07-.08-.11-.2-.19-.23a7.56,7.56,0,0,0-2.06-.49.79.79,0,0,1-.67-1.2,6.83,6.83,0,0,0,.52-2.15,15.25,15.25,0,0,1,.64-2.83,1.58,1.58,0,0,0,.09-.31c.07-.4-.06-.8.2-1.23a3.76,3.76,0,0,0,.24-1.3c.23-1.67.73-3.27,1-5a3.36,3.36,0,0,1,.71,0,18.58,18.58,0,0,0,2.88.46c.43.49,1.08,0,1.52.33s.84.11,1.25.12c.15,0,.4-.25.45-.43a4.76,4.76,0,0,0,.23-1.44,2.82,2.82,0,0,1,.29-1.07,4,4,0,0,0,.33-2L111.22,60c-.52,0-1-.1-1.59-.15a2.3,2.3,0,0,1-.14.81,5.67,5.67,0,0,0-.57,2.24c-.17,1.19-.69,2.29-.77,3.49,0,.36-.48.65-.77.46a1.8,1.8,0,0,0-.86-.22c-.33,0-.65-.19-1-.22a16.08,16.08,0,0,1-2.29-.49,3.94,3.94,0,0,0-1.09-.25,4.21,4.21,0,0,1-1-.21,4,4,0,0,1-1-.19A6.44,6.44,0,0,0,98.43,65l-.51-.16-.44-.08c0-.35-.29-.2-.47-.23h-1c-.09-.08-.18-.22-.28-.23-.3,0-.6,0-.9,0a7.39,7.39,0,0,0-1.24-.39,6.15,6.15,0,0,0-1.85-.32c-.1-.08-.2-.23-.3-.23A8.22,8.22,0,0,1,89.64,63a12.34,12.34,0,0,0-3.07-.58c-.43-.35-.93-.22-1.42-.24-.47-.59-1.21-.44-1.82-.66l-.08.19c-.64-.1-1.2-.48-1.85-.6-.34-.06-.67,0-1-.11-.1-.08-.18-.21-.28-.23a5,5,0,0,0-.67,0c-.51-.39-.18-.9-.18-1.35,0-.17.19-.36.17-.52-.15-1.13.34-2.21.25-3.34,0-.46.33-.82.25-1.32s-.17-.86.22-1.21c0,0,0-.08,0-.12.08-1,.15-2.06.24-3.1,0-.56.16-1.12.23-1.68a3.43,3.43,0,0,1,.22-1.57c.14-.24,0-.62,0-.94a3.09,3.09,0,0,1,.18-1.1A1,1,0,0,0,80.19,43a17.85,17.85,0,0,1-2.62-.86,43.24,43.24,0,0,1-4.44-1.56c-.75-.31-1.52-.57-2.27-.8-1.06-.33-2.07-.76-3.12-1.08s-2.26-.86-3.4-1.22C63,37,61.75,36.42,60.4,36c-1.58-.44-3.1-1.09-4.64-1.65a3.69,3.69,0,0,1-.53-.33,13.91,13.91,0,0,1,.93-2.34c-.18-.67.47-1.06.56-1.67a5.27,5.27,0,0,1,.65-1.74c.28-.5.27-1.15.52-1.68.52-1.09.66-2.32,1.26-3.39a8.3,8.3,0,0,0,.62-1.88c.18-.63.5-1.22.69-1.84s.45-1.17.61-1.76c.44-1.59,1.34-3,1.55-4.7a6.63,6.63,0,0,0,.83-1.91c.18-.47.37-1,.6-1.41a3,3,0,0,0,.25-1,6.13,6.13,0,0,0,.24-.85c0-.43.24-.61.68-.56a3.48,3.48,0,0,1,1.39.35,13.14,13.14,0,0,0,2.89,1,5.6,5.6,0,0,0,2.43.74c.46.65,1.29.47,1.91.84a9,9,0,0,0,1.84.68,6.85,6.85,0,0,0,2,.62c.17,0,.32.17.49.23a17.68,17.68,0,0,0,2.19.76c.46.07.9.44,1.43.53a8.6,8.6,0,0,1,1.46.48c1.16.44,2.33.85,3.48,1.32a42.92,42.92,0,0,1,4.92,1.87c1.41.13,2.56,1.14,4,1.21a16.05,16.05,0,0,0,3.07,1.17c1.46.59,2.93,1.13,4.41,1.67s2.9,1,4.34,1.52a6.37,6.37,0,0,0,2,.62.7.7,0,0,1,.32.09c.95.58,2.08.71,3.06,1.19S115,25,116,25.4a30,30,0,0,0,3.39,1.25c1,.32,1.9.78,2.86,1.13s1.77.42,2.62.82a25.7,25.7,0,0,0,2.62.82c.38.13.73.34,1.1.49,2,.79,4,1.3,6,2.21.54.25,1.21.32,1.75.63s1.23.24,1.81.56c-.38.93-.76,1.84-1.1,2.76-.11.28,0,.67-.2.86s0,.7-.23,1a3.88,3.88,0,0,0-.43.77c-.53,1-.67,2.08-1.11,3.1s-.8,2-1.13,3.08c-.77,2.37-1.65,4.7-2.51,7-.6,1.64-.87,3.42-1.86,4.92,0,.95-.67,1.71-.74,2.66,0,.44-.45.82-.6,1.28-.25.77-.52,1.53-.79,2.28a5.75,5.75,0,0,0-.71,2.2,25.29,25.29,0,0,0-1.14,3,16.64,16.64,0,0,0-.77,2.29,17.46,17.46,0,0,1-.74,2.18,35,35,0,0,0-1.26,3.27,9.14,9.14,0,0,0-.85,2.62c0,.23-.23.45-.35.67a2.27,2.27,0,0,0-.36,1.17c0,.56-.18.73-.78.71-.4,0-.81.12-1.23-.19s-.83.14-1.19-.26c-.09-.1-.38,0-.58,0s-.18-.21-.28-.22A3.75,3.75,0,0,0,116.46,80.41Zm5.31-36.78a3,3,0,0,1-1.64-.22,1.15,1.15,0,0,0-.6-.23,6.91,6.91,0,0,1-2.51-.57c-1.3-.34-2.62-.69-3.93-1.06a15.24,15.24,0,0,0-4.33-1c-1-.57-2.11-.55-3.06-.94-.82.58-.62,1.54-1,2.26a6.81,6.81,0,0,0-.74,2.27c-.13.87-.66,1.56-.79,2.42s-.56,1.51-.67,2.32-.79,1.42-.71,2.25c.08,0,.12.09.15.09,2.44,0,4.91-.17,7.33.05s4.84.11,7.25.19c.71,0,1.42,0,2.13,0h.86c.34-1.4.71-2.68,1.11-3.93S121.39,45,121.77,43.63Z"/><path class="cls-2" d="M39.14,80.41H38.9a3,3,0,0,1,.38-1.73,15.82,15.82,0,0,0,.66-2.08A15.16,15.16,0,0,0,41,73.53v-.48c.36,0,.21-.29.24-.47.36,0,.2-.29.24-.47.54-.57.45-1.42.91-2,.21-.28,0-.84,0-1.28.08-.09.15-.2.24-.29a1.41,1.41,0,0,1,.23-.18,3,3,0,0,1,.91.1c1.35.6,2.84.74,4.19,1.32a4.84,4.84,0,0,0,1.34.46,23.08,23.08,0,0,1,4,1.09c1.39.44,2.82.79,4.2,1.27a24.94,24.94,0,0,0,2.87.84,26.76,26.76,0,0,1,3,.87,2.16,2.16,0,0,0,1.6,0,5.11,5.11,0,0,1,1.26-.39c.66-.08,1.29-.75,2-.14.1.07.31,0,.47,0,.95.07,1.91.14,2.86.24a.57.57,0,0,1,.57.7V75.9c-.36,0-.21.29-.24.47V77.8c-.08.06-.23.12-.23.18,0,.34,0,.67,0,1h.44a18.79,18.79,0,0,1,3.55.72h.48c.51-.17.94.2,1.43.24s.72.21,1.08.21a3.6,3.6,0,0,1,1.08.24,3.09,3.09,0,0,1,1.08.52c.26.22.54.66.75.64.51,0,.61.47,1,.52a1.92,1.92,0,0,0,.24,0c.1.08.21.23.29.22.29,0,.15-.29.18-.46-.16-.74.22-1.42.24-2.13.08-.06.23-.12.23-.18A6.31,6.31,0,0,1,84,77.41a8.21,8.21,0,0,0,.25-1.51c.09-.08.18-.21.28-.23a5,5,0,0,1,.67,0c0,.36.3.2.48.24,1.12-.17,2.2.33,3.32.24,0,.31.23.23.4.23.35,0,.69,0,1,0a7.58,7.58,0,0,1,.94.23l1.42.24a2.88,2.88,0,0,0,2.14.71,1.8,1.8,0,0,1,.51.17,2.1,2.1,0,0,0,1.38.31c.06.07.11.2.19.23.76.24,1.52.51,2.3.7.35.09.67.38,1.07.25.16.55.74,0,1,.37a16.08,16.08,0,0,0,2.84.58v.47h1.42a.76.76,0,0,0,.79.45,5.85,5.85,0,0,1,2.33.66c.14,0,.29,0,.44.08a2.3,2.3,0,0,0,1.89.47,7.4,7.4,0,0,0,2.14.72c.06.08.11.22.18.22a3.16,3.16,0,0,1,1,.22,14.17,14.17,0,0,0,1.89.51,17.41,17.41,0,0,1,3.36,1.18l-.23.71c-.36,0-.21.3-.24.48s-.21.6-.32.91-.1.34-.16.51c0,0-.1,0-.11,0a23.75,23.75,0,0,1-1.06,2.85c-.07.13,0,.31,0,.47,0,0-.11,0-.11,0-.13.63-.25,1.27-.37,1.9-.45.11-.14.48-.23.71h-.11c-.13.39-.25.79-.37,1.19-.39-.08-.54.08-.47.47-.24.87-.48,1.74-.71,2.61-.45.05-.13.45-.28.63-.61.75-.49,1.83-1.14,2.56a4,4,0,0,1-.71,1.93c-.08.13,0,.38,0,.57l-1.1,2.59c-.28.07-.61-.12-1-.18-1.18-.22-2.18-.89-3.3-1.19s-2.17-.71-3.26-1c-.65-.19-1.26-.57-2-.72-.14,0-.25-.19-.33-.26.49-1.33.94-2.6,1.43-3.86a15.46,15.46,0,0,0,1.18-3.3c.68-.49.5-1.37.92-2a8.66,8.66,0,0,0,.74-1.94,1.75,1.75,0,0,0,0-.4c-1-.25-1.92-.49-2.87-.77s-2-.6-2.93-.95A14.87,14.87,0,0,0,97.6,89L96.54,92.6l.22.24s.11.12.18.13c1.5.26,3,.75,4.54,1a2.08,2.08,0,0,1-.14,1,10.68,10.68,0,0,1-.71,1.85c-.23.35,0,.78-.22,1.21a17.32,17.32,0,0,0-.87,2.48c-.07.21-.11.43-.16.64-.1.55-.35.7-.9.51l-2.58-.92c-1.52-.54-3-1.1-4.55-1.61-1.21-.4-2.42-.84-3.59-1.33a41.25,41.25,0,0,1-4.61-1.75c-.77.18-1.32-.44-2.05-.54s-1.2-.5-1.84-.66a1.62,1.62,0,0,1-.61-.24,3.21,3.21,0,0,0-1.34-.5,9.76,9.76,0,0,1-2.06-.74c-1-.45-2.12-.81-3.17-1.2a19.71,19.71,0,0,0-4.19-1.35c-.44-.06-.73-.43-1.18-.58L62.87,89c-1.21-.42-2.42-.84-3.58-1.37-.49-.23-1-.25-1.47-.45-1.22-.51-2.48-.88-3.7-1.37-.92-.37-1.88-.58-2.78-1-.48-.25-1.19-.13-1.65-.55-.2-.18-.43-.14-.62-.23-1.06-.48-2.26-.39-3.29-.93l-.71-.48c-.59-.26-1.34-.08-1.81-.7-.07-.09-.37,0-.57,0-.33-.57-.89-.47-1.42-.47l-.71-.24C40.08,80.89,39.75,80.37,39.14,80.41Z"/><path class="cls-1" d="M16.37,70.21,15.89,70c0-.16.06-.36,0-.47-.37-.53-.19-1.09-.22-1.55a2.33,2.33,0,0,1,2.08-.58c.05.19.06.38.1.39a1,1,0,0,1,.83.57c.16.32.48.34.79.09s.91-.68,1.4-1c.7.15,1.46.32,2.23.46.55.1,1.12.13,1.67.26a1.38,1.38,0,0,1,.61.41c.35.36.65.76,1,1.13s.88.5,1,1.13a1,1,0,0,0,.73.6c1.25,0,2.46.21,3.69.26s2.3-.05,3.44,0a9.48,9.48,0,0,0,2.27.21l.75-.7h.23a2.86,2.86,0,0,1-.21,1.43c-.25.44-.91.65-.77,1.32a1,1,0,0,1-.3.09c-.2,0-.34,0-.4.27s-.29.3-.45.44h-.24c0-.32-.25-.23-.42-.23-1.62,0-3.23,0-4.85,0a1.57,1.57,0,0,1-1-.17c-.26-.16-.71,0-1.14,0a10.34,10.34,0,0,0,3.24,1.61,10.27,10.27,0,0,0,2.3.69,4.4,4.4,0,0,1,2,.59l.37,1a6.65,6.65,0,0,1-.76.59c-.41.22-.56-.4-.93-.45v.46l-.71-.24h-.72s0-.11,0-.11a4.91,4.91,0,0,0-1.27-.35c-1.25,0-2.37-.63-3.59-.78a10.89,10.89,0,0,1-1.48-.4c-.54-.16-1.12-.15-1.67-.27a2.28,2.28,0,0,0-1.46,0,.3.3,0,0,1-.23,0c-.52-.37-1.12-.2-1.68-.24-.06-.09-.09-.23-.17-.27a2,2,0,0,0-.48-.14c0,.16,0,.38.14.47a1.15,1.15,0,0,0,.51.18,8.14,8.14,0,0,0,2.35.79l0,.85c.35.08.7.16,1.06.26.66.19,1.33.38,2,.59a11.67,11.67,0,0,0,3.31.84,1.66,1.66,0,0,1,.49.23,1.28,1.28,0,0,0,.95.24,1.58,1.58,0,0,0,1.18.23c.13.09.36.17.37.27.08.55.47.45.82.45.12.32.46.6.09,1-.12.14-.07.43-.09.66-.22,0-.56,0-.65-.1-.34-.47-.81-.4-1.26-.37a7.56,7.56,0,0,1-3.3-.51,9.9,9.9,0,0,0-1.48-.35c-.13,0-.08.14-.05.13a1.33,1.33,0,0,0,.34-.1c-.15,0-.29-.08-.29,0a1.75,1.75,0,0,0,.84.63c1.17.4,2.32.85,3.47,1.3a1.83,1.83,0,0,1,.48.36,4.84,4.84,0,0,0,1.19.7l-.24,1.18H33l-1.19.24c0-.15,0-.38-.09-.43a16.88,16.88,0,0,0-2.45-1.21q-2.4-.83-4.86-1.42c-.61-.15-1.27-.5-1.94,0-.13.08-.43-.06-.64-.13-.52-.18-1-.37-1.55-.57-.35.35.61.79-.33,1.15a2.89,2.89,0,0,1,.79,0,3.31,3.31,0,0,0,1.23.49,5.79,5.79,0,0,1,1.35.45c1,.34,2,.66,3,1,.54.22,1,.59,1.56.82a5.89,5.89,0,0,0,1.56.49c.64.09,1,.65,1.58.8a3.12,3.12,0,0,1,1.27.64c.05,0,.16,0,.23,0,.36,0,.21.3.24.48l-.24.47c.08.39-.08.55-.47.48a6.71,6.71,0,0,0-1.36,0c.23.26.45.48.65.71s.32.44.47.66a1.29,1.29,0,0,0-.23,1,3.31,3.31,0,0,1-1.65-.31,16.14,16.14,0,0,0-2.35-.87c-1.09-.34-2.2-.59-3.27-1a9.07,9.07,0,0,1-2.09-.66c-.19-.12-.52,0-.78,0-.1,1-.1,1-.77,1.16-.12-.46-.48-.15-.72-.24-.24-.44-.6-.17-.94-.08l.94.32h.72a.69.69,0,0,0,.55.49,11.93,11.93,0,0,1,1.6.7,6.54,6.54,0,0,0,1.75.88,5.79,5.79,0,0,1,2,.79,3.34,3.34,0,0,0,1.94.46c.36,0,.71,0,1.07,0l1,0v.67c-.18,0-.46-.12-.48.24l-.5.34c.36.29.64.6.5,1.08-.55.8-1.23.16-1.85.16-.09,0-.19-.15-.29-.15-.63,0-1.26,0-1.89,0s-1.18-.18-1.74-.28l-.64,1.51a24.1,24.1,0,0,1-3.86-1.7,5.88,5.88,0,0,0-2.56-.94c-1.11-.94-1.87,0-2.72.49a3.92,3.92,0,0,0-.56.33.51.51,0,0,1-.81-.08c-.26-.31-.62-.51-.67-1s-.43-.75-.67-1.12L11.62,93l-.23-.24c-.13-.72-.7-1.33-.48-2.1-.37,0-.7,0-.88-.12a2.09,2.09,0,0,0-1.28-.63c-.06,0-.18,0-.18-.09-.09-.55-.68-.94-.51-1.57v-.52L9,87.05h.48l.71.24c.56,0,.92.38,1.32.67,1.26-1,.69-2.29.81-3.52-.21,0-.37,0-.43,0-.46.4-.9.2-1.34,0a2.46,2.46,0,0,0-1.31-.24V82.9c0-1,.32-1.26,1.28-1.31a2,2,0,0,1,1.54.56c.62.58.67.56,1.31-.06.43-.41.88-.8,1.39-1.26l-.54-.31c0-.63,0-1.26,0-1.89,0-.47-.26-.6-.73-.45-.11,0-.24.12-.32.08a6.5,6.5,0,0,1-1.63-.9A1,1,0,0,1,11.39,76c.09-.2.21-.39.3-.55h2.07c0,.35.29.2.47.23l.71-.23v.9c.33-.43.53-.68.71-.94s.43-.74,1-.68h.95a16.34,16.34,0,0,1,2.61.24c0,.26,0,.55.38.48a1,1,0,0,1,.44.06c.07,0,0,0,0-.06l-.11.1a.83.83,0,0,0,.15.11s0,0,0-.15c-.2-.44-.45-.58-.82-.54-.22-.53-.82-.6-1.18-1a.67.67,0,0,0-.65-.49c-.2,0-.36-.3-.54-.46v-.47c.27-.32.11-.78.28-1.06a1.58,1.58,0,0,0,.17-1ZM28,88.74c.28.22.28.22.67,0a3,3,0,0,1-.74-.06c-.27-.22-.27-.22-.67,0A3,3,0,0,1,28,88.74Zm-8.06,0c.27.22.27.22.67,0a3,3,0,0,1-.74-.06c-.28-.22-.28-.22-.67,0A3,3,0,0,1,20,88.74Zm-6,5.31c.16-.16.29-.26.28-.3a.67.67,0,0,0-.24-.29s-.21.11-.21.17S13.86,93.86,13.94,94.05Zm13.3.78,0-.21-.62.09v.12Zm-1-6.55.31-.13a.7.7,0,0,0-.21-.14c-.05,0-.13,0-.19.07Zm.94-6.64.32-.13c-.07-.05-.13-.13-.21-.15s-.13,0-.19.08Zm-.83-.46v.12h.47v-.12ZM27,88.44l.08-.09a.77.77,0,0,0-.16-.07s-.05,0-.08.07Z"/><path class="cls-2" d="M53.13,55.5l-4.77-1.85c-.28-.36.37-.82.26-1.34.64-1.16.84-2.48,1.39-3.68s1-2.45,1.41-3.68.95-2.69,1.42-4a10.07,10.07,0,0,1,.76-2.18c.34-.57.65-.78,1.14-.44s1.44.41,2,1c.28.29.81-.12,1,.34.74-.11,1.25.4,1.86.66,1.24.52,2.5,1,3.77,1.47,1.53.58,3.07,1.17,4.62,1.71a12.1,12.1,0,0,0,3.2,1.14,12.53,12.53,0,0,0,2.61,1.12,5.08,5.08,0,0,1,.93.32c.37.26.89.17,1.2.59.09.14.41.12.68.19,0,.22-.09.43-.14.63-.24.85-.82,1.55-1.09,2.4s-.89,1.46-1.13,2.25c-.42,1.37-1.26,2.55-1.73,3.9a9.5,9.5,0,0,1-.74,1.59A7.53,7.53,0,0,0,70.86,60h-.41c-.81.07-1.56-.42-2.38-.24-.31-.37-.86-.34-1.16-.71a9,9,0,0,1-2-.48,7.87,7.87,0,0,1-1.07-.24c-.38-.12-.73-.34-1.11-.46a7.77,7.77,0,0,1-1.1-.17,18.94,18.94,0,0,0-3.47-1c0-.36-.29-.2-.47-.24a2.34,2.34,0,0,1-.49-.14c-.23-.13-.4-.19-.46.14L55,56.21a1.29,1.29,0,0,0-1-.23C54,55.45,53.54,55.48,53.13,55.5Z"/><path class="cls-1" d="M49.81,35.58l.42-.24.29,1.42-.33.7c-.59.12-1.18-.36-1.78,0,0,0-.13,0-.2,0a12.66,12.66,0,0,0-1.52-.56,6.54,6.54,0,0,0-2.34-.57c-.09-.08-.17-.21-.28-.23s-.44,0-.68,0c-.29-.24-.29-.24-.69,0,.27,0,.49,0,.69,0a1.12,1.12,0,0,0,1,.49c.45.14.86.38,1.31.53A4.48,4.48,0,0,1,48,38.41a1.67,1.67,0,0,0,1.54.49c0,.35.3.2.48.24v.47l-.24.24c-.26,0-.55-.05-.48.37a1.93,1.93,0,0,1,0,.34,11.3,11.3,0,0,1-3.65-.94c-.78-.39-1.64-.62-2.43-1a12.11,12.11,0,0,0-2.34-.92c-.24-.06-.43-.3-.66-.4-.55-.23-1.07-.53-1.7-.11-.25.16-.61,0-1-.15a4.84,4.84,0,0,0-3.5-.36A2.16,2.16,0,0,1,33,36.39,5,5,0,0,1,30.82,35a4.29,4.29,0,0,0-.7-.54v-1c0-1.12,0-1.11-1.08-1.14a1.9,1.9,0,0,1-.89-.15A1.76,1.76,0,0,1,27,30.27l1-.86a2.59,2.59,0,0,1,2.47,1,2.28,2.28,0,0,0,1-1,1.1,1.1,0,0,1,1.32-.66c-.09-.87-.54-1.65-.31-2.61A3.52,3.52,0,0,1,29.41,25c0-.18,0-.37,0-.57A1.44,1.44,0,0,1,30.84,23c.23,0,.47,0,.71,0,.37.4.95.54,1.24,1.08.11.22.48.2.69-.06a12,12,0,0,1,.76-1c.55-.56.43-1.27.62-1.91-.42-.1-.75,0-1.07-.25a2.85,2.85,0,0,0-1.06-.26h-.39A3.91,3.91,0,0,1,32,18.89c0-.21.18-.54.31-.56.6-.1,1.19-.6,1.84-.16.06,0,.13.1.19.09a3.25,3.25,0,0,1,1.78.33,1.59,1.59,0,0,1,1.24-1.11,12.25,12.25,0,0,0,3.22-1.4,2.27,2.27,0,0,1,.91,1.42c.06.47.43.84.51,1.34,0,.25.55.47.89.6a17.51,17.51,0,0,0,4,1,14.86,14.86,0,0,1,2.14.53l1,.25-.45,1.61c.69.48,1.39.92,2,1.43a2.49,2.49,0,0,0,1.27.67,2,2,0,0,1,.61.24c.81.4.81.41.83,1.42a.68.68,0,0,1-.93,0,7.94,7.94,0,0,1-.11,1.66,2.87,2.87,0,0,1-1.62-1.15,2.66,2.66,0,0,0-1.7-.76c-.44-.08-.89-.15-1.32-.25a1.57,1.57,0,0,1-.49-.23,4.31,4.31,0,0,0-1.59-.45,22.71,22.71,0,0,1-3.43-.88,3.78,3.78,0,0,0-.66-.11c.21.71.81.38,1.13.53.22.71-.43.88-.64,1.29l2.91,1.26c1.52.63,3.06,1.19,4.62,1.7a7.73,7.73,0,0,1,2.23.92c.23.16.14.32.17.49l-.23.23c-.25.67-.91.53-1.4.71a1.93,1.93,0,0,1-.56,0,2.49,2.49,0,0,0,1.24.81c0,.37,0,.75,0,1.14,0,.06-.14.12-.22.18-.52,0-1.15.19-1.51,0s-.87-.06-1.28-.39S48,33.08,47.51,33s-.81-.34-1.22-.46a13.11,13.11,0,0,1-1.41-.32c-1.82-.74-3.78-1.1-5.56-2a.53.53,0,0,0-.72.11l-.49.62c.58.27,1.13.32,1.63.59.29.15.67,0,.61.57,0,.12.29.31.48.41.45.22.93.4,1.4.61s1.12.51,1.7.74a8.17,8.17,0,0,1,1.83.7c.57.41,1.22.3,1.81.5a3.56,3.56,0,0,0,2,.3.87.87,0,0,0,0,.23.68.68,0,0,0,.07.2Zm-3.9-5.73c.17.18.21.27.25.27a2.13,2.13,0,0,0,.33-.11c-.14,0-.29-.08,0,.11.11.46.48.15,1.29.51-.17-.18-.21-.27-.25-.26a1.39,1.39,0,0,0-.33.1c.14,0,.29.08,0-.11C47.09,29.9,46.72,30.21,45.91,29.85ZM40.12,18.63c.11-.19.22-.31.19-.36A1.11,1.11,0,0,0,40,18c-.06.07-.18.17-.17.23S40,18.46,40.12,18.63Zm.64,6.71,0-.21-.62.09v.12Zm.27.1v.12h.48v-.12Zm9.85,0,.32-.13c-.07-.05-.13-.13-.21-.15s-.13.05-.19.07ZM42,25.77l-.09-.15s-.07.05-.07.07a.77.77,0,0,0,.07.16Zm.42.12-.15.08s.06.08.08.08l.16-.08Z"/><path class="cls-2" d="M104.84,77.09a7.35,7.35,0,0,1-.94,0,4.64,4.64,0,0,1-.72-.23c-.16-.5-.6-.13-.88-.27a16.36,16.36,0,0,0-3.16-.92A14.38,14.38,0,0,1,96.49,75a4.72,4.72,0,0,0-.67-.08c-.11-.46-.47-.15-.71-.24h-.23c.07-.38-.09-.54-.48-.47-.65-.18-.39.39-.53.67a3.87,3.87,0,0,1-2.4-.38,7.49,7.49,0,0,0-2-.48,12,12,0,0,0-2.62-.31c-2.45.07-4.9,0-7.35,0a10,10,0,0,1-1.8-.2,10.36,10.36,0,0,0-2.23,0H72.82l-4.11-1.25a19.09,19.09,0,0,1,.36-2c.26-.91.6-1.8.9-2.7s.63-1.79.91-2.7.5-1.84.75-2.76c0-.21-.1-.52.3-.47a3.2,3.2,0,0,1,1.19.26c.37.23.75.12,1.1.23a2.19,2.19,0,0,0,1,.22.68.68,0,0,1,.35,0,16.88,16.88,0,0,0,3,.75c1,.33,2,.46,2.95.88a3.7,3.7,0,0,0,1.29,0c0,.36.29.2.47.24s.12.23.18.22a4.39,4.39,0,0,1,1.72.25c0,.36.3.2.48.24h.47c.09.08.18.21.28.23a5,5,0,0,0,.67,0c0,.06,0,.19.08.19a13.79,13.79,0,0,1,3.74.89,1,1,0,0,0,.43.1A7.72,7.72,0,0,1,94,67a2.93,2.93,0,0,0,.67.08c.09.08.2.24.29.23a4.31,4.31,0,0,1,1.58.34c.24.06.49.1.74.15l1.18.23c.93.24,1.85.54,2.79.7,1.13.19,2.24.51,3.36.74.29,0,.52.24.85.24.73,0,1.08.39.8,1A3.12,3.12,0,0,0,106,72c0,.16.06.39,0,.46-.33.28-.18.65-.23,1s-.18.72-.23,1.09c-.09.71-.13,1.43-.26,2.14C105.26,76.81,105,76.94,104.84,77.09Z"/><path class="cls-2" d="M43.88,66.65c-.2-1.23.45-2.25.85-3.33a7.56,7.56,0,0,0,.59-1.89,3.93,3.93,0,0,1,.53-1.31c.49-1,.71-2.08,1.12-3.1.16-.41.35-.8.53-1.22.89-.36,1.54.37,2.31.55a10.6,10.6,0,0,0,2.61.58,1.08,1.08,0,0,0,.95.47l2,.67a6,6,0,0,1,.64.17,3,3,0,0,0,1.28.37,4,4,0,0,1,1.37.39,22.61,22.61,0,0,0,3.75,1.25,5,5,0,0,0,.72.22,7.37,7.37,0,0,0,.94,0c.16.08.33.24.48.23a10.3,10.3,0,0,1,2.6.48c.56.08,1.13.13,1.68.26a.7.7,0,0,1,.44.45,1.7,1.7,0,0,1,0,1.05,16,16,0,0,0-.66,2.34,17.31,17.31,0,0,0-.5,2.4c-.52.35,0,1-.4,1.38-.24,1.23-.88,2.38-.8,3.75-1.15-.1-2.22.38-3.35.25a3.91,3.91,0,0,1-1.64-.36,8.9,8.9,0,0,0-1.64-.6c-.42-.15-.84-.26-1.25-.44s-.91-.16-1.27-.35a26.62,26.62,0,0,0-3.22-1.11c-1.34-.49-2.7-.93-4-1.44A5,5,0,0,0,49,68.31c-.53,0-.9-.45-1.46-.52a6.82,6.82,0,0,1-1.75-.59,6.08,6.08,0,0,0-.93-.34A2.78,2.78,0,0,0,43.88,66.65Z"/><path class="cls-1" d="M21.35,64c0-.43,0-.87,0-1.3a1.19,1.19,0,0,0-1-1.07c-.39,0-.78,0-1.16,0a2.2,2.2,0,0,1,.07-3.08c.7,0,1.06.83,1.81.76.13,0,.29.25.42.4a.59.59,0,0,0,.8.19,2.2,2.2,0,0,0-.3-1.83,2.88,2.88,0,0,1-1.72-.42,1.73,1.73,0,0,1-.77-1.48c-.11-.5.37-.64.58-.94h1.9c1,1,1.26,1,2-.17a2.1,2.1,0,0,0,.36-2l-.2.51c-.52,0-1.09.25-1.64-.33-.24-.26-.74-.28-1.11-.4,0-1.44,0-1.44.8-2.31h2.34l.57.76c.6-.3.83-.92,1.43-1.1.09,0,.08-.41.13-.67l4.18,1.82c0,.32.16.7-.29,1a9.59,9.59,0,0,1,1.8.34,11,11,0,0,1,1.63.93l2,1.18a5.42,5.42,0,0,1,.95.53c.27.25.16.81.67.89a3.82,3.82,0,0,1,1.08.56c.63.32,1,1,1.79,1.11a2.33,2.33,0,0,0,2.19.71c.15,0,.31,0,.49,0v.86l-.87.4c.25.5.69,1,.2,1.58-.33.08-.49-.14-.69-.33a5.84,5.84,0,0,0-2.51-1.32,6.13,6.13,0,0,1-2.41-.72,2.46,2.46,0,0,0-1.47-.24c-.12,0-.28,0-.35,0-.5-.41-1.16-.15-1.71-.44a4.48,4.48,0,0,0-1.3-.26c-.17-.49-.49-.58-1-.37.35.24.48.72,1,.61a14.32,14.32,0,0,1,1.42.84,29.07,29.07,0,0,0,4.17,2.46,15.68,15.68,0,0,0,2.33.92.86.86,0,0,0,1-.24c.08-.11.24-.16.37-.25l.3.35L41,64.28v.24a3.59,3.59,0,0,0-.47,1.18l-.24.71c-.59-.09-1.23.23-1.77-.23-.65.17-1.07-.72-1.79-.4a9.59,9.59,0,0,0,1.3,1.06,2,2,0,0,0,1,.31c.38,0,.54-.23.78-.41s.29-.06.43-.09a2.65,2.65,0,0,1-.13.77c-.15.36-.44.62-.54.94a4.72,4.72,0,0,0,0,1.41.62.62,0,0,1-.11.19,1.13,1.13,0,0,1-1.14-.39,2.67,2.67,0,0,0-1.34-1,7.55,7.55,0,0,1-2.17-1.06c-.49-.32-1-.8-1.64-.6h-.48c-.12-.08-.25-.23-.37-.23A3.58,3.58,0,0,1,31,66.43a6.68,6.68,0,0,0-1.43-.25,6.78,6.78,0,0,1-1.66-.27,2.7,2.7,0,0,1-1.5-1.14c-.11.19-.23.37-.34.57s0,.16,0,.23c-.2.63-.69.85-1.19.46a8.92,8.92,0,0,0-1.55-.83C22.66,64.85,22,64.43,21.35,64Zm9.58-6.37c-.16-.18-.2-.27-.24-.26a1.39,1.39,0,0,0-.33.1c.14,0,.29.08,0-.11,0-.36-.29-.2-.51-.27-.27-.22-.27-.22-.67,0a5.24,5.24,0,0,1,.71,0C29.91,57.52,30.18,57.36,30.93,57.67Z"/><path class="cls-1" d="M4.27,94.88c0-.12,0-.32,0-.34-.82-.41-1.37-1.25-2.34-1.43C1.46,93,1,92.84.55,92.75A.63.63,0,0,1,0,92.27c.1-.08.22-.24.3-.22a2.23,2.23,0,0,1,.57.33L1,91.24c.69.36,1.32.66,1.92,1a2.11,2.11,0,0,0,1.47.28c.27,0,.73.16.77.34.18.69.94.51,1.29,1A4.41,4.41,0,0,0,7.74,95,7,7,0,0,1,9.1,96.27c.59.12,1.24-.16,1.8.26.07,0,.23,0,.34,0a5,5,0,0,1,1.44-.2,11.9,11.9,0,0,0,1.33.22c.64,0,1.28.18,1.92.21s1.35,0,2,0a10.46,10.46,0,0,1,1.46.33c-.19.53.82.68.52,1.34.4.46.16,1,.28,1.59a11.2,11.2,0,0,1,3.29.87c.89.33,1.77.69,2.67,1a4.91,4.91,0,0,0,1.51,0c.47.5.47.5-.16,1.55a1.49,1.49,0,0,0-1.23.43.93.93,0,0,1-1.14.17c-1.24-.51-2.53-.92-3.73-1.54a1.65,1.65,0,0,0-1.5-.14c.14.14.23.33.36.35a11.05,11.05,0,0,1,3.31,1.42c.38.2.82.3,1.21.51s.91.11,1.21.49.91,0,1.28.32v.6l-.33.68c-.3.23-.87-.22-1.22.25,0,0-.25-.09-.39-.13A20.58,20.58,0,0,1,22,105.57a1.64,1.64,0,0,0-.56,0c-.38.48-.83,1-1.22,1.56s-.56.71-1.24.4l-2.59-1.16a5.2,5.2,0,0,0-.74-.19l.29-1c-.84-.29-1.71-.54-2.54-.9a10.8,10.8,0,0,1-1.88-.6c-.21-.14-.53-.18-.8-.36a1.83,1.83,0,0,0-1-.41c-.67,0-1.34-.12-2-.18-.11-.53-.18-1-.31-1.39A1.06,1.06,0,0,0,7,100.8c-.34-.23-.3-.59-.41-1l-2.22.3c-.94-.31-.64-1.17-1-1.66l.48-1.22H6.08l.38-.85c-.35-.32-.68-.66-1-1-.1-.08-.28-.06-.43-.09Zm2.6,4.69a7.77,7.77,0,0,0,1.67,0c0-.51-.31-.59-.62-.73C7.17,98.53,7,98.62,6.87,99.57Z"/><path class="cls-1" d="M47,10.56c-.09.39.19.86-.2,1.15l.86.46a.86.86,0,0,0,.41.15,4.17,4.17,0,0,1,1.6.42,7,7,0,0,0,1.76.37,5.38,5.38,0,0,1,2,1.32A5.81,5.81,0,0,0,56,15.94c.67.2,1.08.24,1.51-.28,0,0,.15,0,.26,0a1.75,1.75,0,0,1-.34,1.67,1.91,1.91,0,0,0-.29.95,1.64,1.64,0,0,1-.09.44,1.5,1.5,0,0,1-1.77.66c-1.11-.37-2.23-.72-3.33-1.11a3.94,3.94,0,0,1-1.56-.77c-.4-.43-1-.28-1.36-.79,0-.09-.27-.07-.42-.1-.37-.05-.73.07-1.11-.2s-.83,0-1.16.25a.7.7,0,0,1-.92,0,7,7,0,0,0-2.07-1,11.61,11.61,0,0,0-2.36,0,1.57,1.57,0,0,1-.86-.21c-.93-.52-1.9-.95-2.81-1.38L37,11.68H35.26l-.87-1a3,3,0,0,1,1.09-2.44c.55.19,1,.63,1.68.53.14,0,.32.17.48.27l1,.7.64-.54c.7.72,1.39-.18,2.27.1-.13-.39-.14-.68-.3-.83a2.37,2.37,0,0,0-.8-.31L41,7.45c-.32-.23-.24-.62-.16-.92a.62.62,0,0,1,.65-.38.69.69,0,0,1,.73.44,6.78,6.78,0,0,0,.32.93,1.48,1.48,0,0,0,.54.62,2.77,2.77,0,0,1,1,2c.14.58-.34.68-.71.87.38.34,1-.16,1.31.39l.45-1C45.72,10.61,46.36,10,47,10.56Zm-7.87.78,0-.2-.86.06v.14Z"/><path class="cls-1" d="M45.25,48.46c-1.23-.51-2.44-.24-3.57-.31A10,10,0,0,1,41,49c-.37.37-.69-.06-1-.14a3.83,3.83,0,0,1-.89-.47c-.26.2-.34.64-.91.41-.95-.38-2-.51-3-.86a1.64,1.64,0,0,1-.9-.66,7.34,7.34,0,0,0-3-1.77l-.08-.58-2.36,1.25c0,.09.05.23.12.29a.35.35,0,0,1-.13.64c-.94,0-1.75.66-2.76.57L26,47c-.49.57-1,.14-1.29-.08a2.46,2.46,0,0,1-.9-1.27A5.53,5.53,0,0,1,23.25,43c-.66-.14-.81-.65-.95-1.15a.86.86,0,0,1,.49-1,1.32,1.32,0,0,1,1.46-.22c.63.33.62.93.89,1.42a1.53,1.53,0,0,1,.06.4l.74-.32c.37.6.77,1.17-.28,1.64,1,.74,2.06.53,2.89,1,.44-.8,1.48-1,1.74-1.85-.92-.13-.93-.13-1.5-1.07-.06-.1-.11-.29-.08-.31.72-.48-.41-1.11.11-1.54a2.6,2.6,0,0,1,1.59-.72c.43,0,.86,0,1.26,0,.17-.18.13-.73.5-.4s.53,0,.89-.09a1.56,1.56,0,0,0,1.75.7c0,.17,0,.32.06.38a6.8,6.8,0,0,1,.89.69c.21.24-.1.68.25,1,.12.08,0,.37.31.38s.23.21.14.42a2.59,2.59,0,0,1-.84,1.31,4.68,4.68,0,0,1-.49.23l.58.66c.56-.21,1.06-.46,1.64-.06.22.14.61,0,.92,0h1.31c1.3,0,1.29,0,1,1.26a.59.59,0,0,0,0,.23l.92-.91c0,.06,0-.11,0-.24-.31-.79-.24-1,.53-1,.22,0,.49.06.46-.33,0,0,.17-.13.27-.14h1.54l-2.11,2.76c.19.43.4.6.76.56a2.07,2.07,0,0,1,1.32.24,2.46,2.46,0,0,0,1.33.23c.78,0,.78,0,1.71.82l-.75.2c.34.9.24,1.23-.6,1.84ZM34.9,43.28c-.12.17-.23.26-.26.37s.11.15.17.23a1.14,1.14,0,0,0,.28-.25S35,43.47,34.9,43.28Zm-7.34,2.78v.21l.64-.09v-.12Z"/><path class="cls-3" d="M94.86,116.39c.93.86.93.9.27,2.22a15.44,15.44,0,0,1,3-.49c1-.56,2-.07,3,0l.86.86-.28,1.86a4.19,4.19,0,0,1,.69-.13c.25,0,.47-.22.61-.22a13.18,13.18,0,0,0,1.57-.25,12.84,12.84,0,0,1,2.48,0c.43.06,1,.08,1.26.59s.57.88.05,1.35c-.24,1.73-1.43,3-2,4.62-.56.37-.43,1.08-.81,1.57a8.18,8.18,0,0,0-.77,1.57c-.55,1.15-1.11,2.31-1.67,3.46-.09.2-.21.51-.36.53a2.37,2.37,0,0,1-1-.07.37.37,0,0,1-.22-.56c.25-.45.43-.93.66-1.39.67-1.34,1.14-2.77,1.9-4.07a6.68,6.68,0,0,0,.69-1.25c.13-.45.49-.8.57-1.18.22-.93,1-1.54,1.17-2.5,0-.22.27-.52.12-.71a2.53,2.53,0,0,0-.83-.56.83.83,0,0,0-.47,0,21.1,21.1,0,0,0-4,.73,1.86,1.86,0,0,0-1.19,1.12c-.21.59-.64,1.09-.83,1.67s-.84.91-.74,1.59c-1.06,1.22-1.37,2.87-2.36,4.12-.14.17-.26.41-.44.48a.7.7,0,0,1-1-.86,3.14,3.14,0,0,1,.35-.8c.91-1.72,1.79-3.45,2.73-5.15.67-1.22,1.32-2.45,1.91-3.71a1.47,1.47,0,0,0,.21-.75.57.57,0,0,0-.57-.58,12.76,12.76,0,0,0-5,.76,1.35,1.35,0,0,0-.75.72c-.63,1.28-1.28,2.56-1.93,3.83s-1.44,2.8-2.16,4.2a.89.89,0,0,1-1.06.45.93.93,0,0,1-.36-1,5.46,5.46,0,0,1,.3-.59q1.15-2.3,2.3-4.61c.26-.53.6-1,.84-1.55a3.17,3.17,0,0,0,.35-1.52.92.92,0,0,1,.69-1c.43-.14.56-.5.74-.86A5.5,5.5,0,0,1,94.86,116.39Z"/><path class="cls-3" d="M141.12,78.17c1.18,0,1.48.9,1.88,1.57a9.63,9.63,0,0,1,1.3,2.77,7,7,0,0,1,.39,1.74c0,.26-.08.54.19.76.08.07.07.3,0,.44a32.44,32.44,0,0,1-.85,3.57,7.42,7.42,0,0,1-2.63,3.24,13.15,13.15,0,0,1-2.55.72,11.81,11.81,0,0,0-1.19,0c-1.2.13-2.39-.43-3.88-.93-1.17-.4-2.08-1.25-3.21-1.69a.93.93,0,0,1-.27-.22,8.42,8.42,0,0,0-1.66-1.43c-.55-.32-.8-.94-1.29-1.36a6.58,6.58,0,0,1-1-1.47c-.38-.6-.82-1.16-1.15-1.78a21.24,21.24,0,0,1-1.21-3.41,5.85,5.85,0,0,1,0-.94c0-.25-.24-.5-.21-.73a10.62,10.62,0,0,1,.82-3.57A6,6,0,0,1,127,72.77a4.88,4.88,0,0,1,1.39-.69c1.05-.25,1-.31,1.56.61a1.36,1.36,0,0,0,.28.3c-.33.8-1.07,1-1.65,1.23a4.84,4.84,0,0,0-2.54,2.86,6.75,6.75,0,0,0-.16,3.68,11.08,11.08,0,0,0,1.7,3.92,13.48,13.48,0,0,0,2.33,2.93,16.22,16.22,0,0,0,5.33,3.17,8.5,8.5,0,0,0,3.43.28,5.32,5.32,0,0,0,3.4-2.4,6.2,6.2,0,0,0,.88-4.35,11.09,11.09,0,0,0-1.56-4c-.14-.22-.3-.43-.42-.66C140.52,78.79,140.53,78.78,141.12,78.17Z"/><path class="cls-3" d="M87,123.83c.28.9-.31,1.3-.86,1.63a20.38,20.38,0,0,1-3.21,1.4,2,2,0,0,1-.69,0H79.86a5.12,5.12,0,0,1-2.16-.51c-.4-.18-.88-.18-1.22-.47s-.74-.71-1.1-1.09a2.75,2.75,0,0,1-.9-2.23,1.76,1.76,0,0,0,0-.23,6.11,6.11,0,0,1,1.2-3.89,9.59,9.59,0,0,1,1.07-1.33c.34-.38.83-.6,1.07-1.07,1-.38,1.61-1.35,2.69-1.52a5.7,5.7,0,0,1,3-1.28c1-.26,2.1-.79,3.19-.14a3.33,3.33,0,0,1,2.19.71,2.73,2.73,0,0,1,1.46,2c.25,2.07-.39,2.63-2,3.18-1.05.36-1.12.33-2.65,0a3.27,3.27,0,0,0-.7,0,8,8,0,0,1-2.32-.42,7,7,0,0,0-.92-.06,4.13,4.13,0,0,1-.85-.24c-.59-.22-1.24-.17-1.83-.44a1.28,1.28,0,0,0-1.52.55,9.57,9.57,0,0,0-.91,1.4,4.41,4.41,0,0,0-.52,2.15,2.82,2.82,0,0,0,1.56,2.51,5.58,5.58,0,0,0,2.78.74c.39,0,.85.43,1.19.19s.82-.12,1.22-.22a8.12,8.12,0,0,0,1.13-.42,5.84,5.84,0,0,0,1.29-.6A2.35,2.35,0,0,1,87,123.83Zm-7.22-7.19a8.35,8.35,0,0,1,1.75.32c.52.22,1.14,0,1.53.25.56.34,1.12.1,1.66.3a6.14,6.14,0,0,0,1.83.13,8.4,8.4,0,0,0,1.42,0,1.22,1.22,0,0,0,.73-.41,1,1,0,0,0,.11-.77,2.56,2.56,0,0,0-2.36-1.83,7,7,0,0,0-3,.14A10.55,10.55,0,0,0,79.77,116.64Z"/><path class="cls-3" d="M110.82,128.82c-.3.34-.64.76-1,1.16a6.72,6.72,0,0,0-1.17,2.83c-.15.51.2,1,.38,1.49a2.25,2.25,0,0,0,1,1.14,7.32,7.32,0,0,0,3.76,1,8.15,8.15,0,0,0,4.71-1.53.55.55,0,0,1,.81,0,.91.91,0,0,1,.11.95,2.84,2.84,0,0,1-.61.53,10.47,10.47,0,0,1-3.54,1.46,6.15,6.15,0,0,1-1.69.2c-.56,0-1.16.16-1.68-.23-1.07.12-1.88-.62-2.85-.84-.14,0-.37-.09-.39-.17-.15-.54-.79-.55-1-1a7.69,7.69,0,0,1-.49-1.1,4.85,4.85,0,0,1,.19-3.51c.34-.83.91-1.51,1.26-2.32.64-.24.82-1,1.46-1.28a1,1,0,0,0,.35-.3,9.6,9.6,0,0,1,2.87-1.93,16.16,16.16,0,0,1,3.1-1.12,8.19,8.19,0,0,1,3-.16,4.46,4.46,0,0,1,2.29,1,3.36,3.36,0,0,1,1.37,2.5,2.59,2.59,0,0,1-1.74,2.35,3,3,0,0,1-1.32.24c-.51,0-1,0-1.54,0s-1,.15-1.46-.2-1,.2-1.42-.27a13,13,0,0,1-2.77-.48C112.2,129.14,111.55,129,110.82,128.82Zm10.62-1.44L120.11,126c-1-.13-1.88-.63-2.89-.47a5.09,5.09,0,0,0-.85.23,12.52,12.52,0,0,0-2.76,1.07l-1.15.74c.09.1.17.23.26.25,1,.2,1.91.37,2.86.55.67.12,1.4.12,2,.29a9.39,9.39,0,0,0,2.52.17c.86,0,1.25-.48,1.32-1.39Z"/><path class="cls-3" d="M152,51.23c0-.12.05-.28,0-.35a6.8,6.8,0,0,1-1.21-3.06c-.26-.93,0-1.86-.23-2.74a29.77,29.77,0,0,1-.24-4.42,9.22,9.22,0,0,0-2.62-1c-.23,0-.38-.45-.69-.12s-.61.2-.71.64c-.18.81-.79,1.56-.23,2.44a.44.44,0,0,1,0,.23c-.16,1.21.42,2.37.2,3.58-.9.13-1.13,0-1.38-.79a7.42,7.42,0,0,1-.37-1.73c-.12-1.82-.5-3.67.6-5.36,0-.58.59-.69.87-.74a3.32,3.32,0,0,1,1.58.1c1,.36,2,.82,2.93,1.24s2.12,1.14,3.28,1.52a21.65,21.65,0,0,1,3.24,1.6c.46.24.89.54,1.35.82,0,0,0,.11,0,.18,0,.87-.4,1.12-1.16.79-.37-.16-.71-.39-1.07-.57-.09,0-.21,0-.37,0A8.28,8.28,0,0,1,157,47.21a1.73,1.73,0,0,1,.22,1.44,11.46,11.46,0,0,1-.53,2.5,2.1,2.1,0,0,1-2.81,1.12,2,2,0,0,0-.44-.09A4.54,4.54,0,0,0,152,51.23Zm-.22-9.78a13.54,13.54,0,0,0,.18,2.36,28.74,28.74,0,0,0,.27,3.57,9.46,9.46,0,0,0,.27,1.55,3.33,3.33,0,0,0,1,1.58,1.35,1.35,0,0,0,1.78-.35,2.87,2.87,0,0,0,.23-1.08,9.92,9.92,0,0,0-.2-2.76,16.49,16.49,0,0,0-1.19-3.3A3.18,3.18,0,0,0,151.82,41.45Z"/><path class="cls-3" d="M69.77,108.45c-.11.12-.24.19-.25.29,0,.34-.21.63-.56.58a1.22,1.22,0,0,1-.86-.39,2,2,0,0,0-.91-.73,6.18,6.18,0,0,0-1.92-.5,15.11,15.11,0,0,0-1.65,0,3.44,3.44,0,0,0-3.38,2.2A2.73,2.73,0,0,0,62.69,111a27.18,27.18,0,0,1,2.86.31,3.72,3.72,0,0,1,2.85,1.64,2.49,2.49,0,0,1,.35,1.6,5.48,5.48,0,0,1-1.61,3.24,13.73,13.73,0,0,1-1.22,1.07,8.29,8.29,0,0,1-4.74,1.45,8.58,8.58,0,0,1-4.61-1.18,3.56,3.56,0,0,1-1.34-1.33,1.22,1.22,0,0,1-.07-1.28,1,1,0,0,1,1.2-.47c.11.23.32.46.31.69,0,.39.22.56.44.77a12.62,12.62,0,0,0,2,.9,9.16,9.16,0,0,0,3.57.19,4.84,4.84,0,0,0,2.6-1.13,5,5,0,0,0,1.46-1.62,1.81,1.81,0,0,0,.13-1.75,2.25,2.25,0,0,0-1.59-1.17,11.33,11.33,0,0,0-1.92-.24c-.52,0-1-.26-1.56-.24a4.59,4.59,0,0,1-1.56-.24,2,2,0,0,1-1.41-1.07,2.39,2.39,0,0,1-.06-1.71,4.24,4.24,0,0,1,1.73-2.18,5.23,5.23,0,0,1,2.56-1,7.37,7.37,0,0,1,1.68-.17,12.59,12.59,0,0,1,3.87.93,1.62,1.62,0,0,1,.89.89C69.56,108,69.65,108.19,69.77,108.45Z"/><path class="cls-3" d="M55.74,104.72l-1-.31a.8.8,0,0,0-.34,0c-.36.06-.72.17-1.09.22s-.78-.08-1,.09c-.48.34-1,.07-1.53.34a5.67,5.67,0,0,1-1.56.48.9.9,0,0,0-.71.56c-1,2-2,3.92-2.92,5.89a14.82,14.82,0,0,0-1,1.85,1.7,1.7,0,0,1-.38.55c-.27.34-.63.24-1,.16s-.4-.6-.3-.93a2,2,0,0,1,.27-.59,14.55,14.55,0,0,1,1.38-2.39c.13-1.06,1.11-1.75,1.22-2.82,0-.06.12-.1.15-.17.9-1.51,1.45-3.2,2.35-4.71a4.38,4.38,0,0,0,.31-.7c.28-.8.4-.89,1.32-.91a1.63,1.63,0,0,1,.1,1.3,11.23,11.23,0,0,1-.53,1.27c.85-.17,1.6-.29,2.34-.48a12.44,12.44,0,0,1,4.31-.41c.42.1,1,.08,1.23.62s.52.89,0,1.35c-.15,1.56-1.16,2.76-1.78,4.12-1,2.19-2.14,4.33-3.22,6.48a4.65,4.65,0,0,1-.53.85.83.83,0,0,1-1.12.19c-.32-.25-.24-.52-.1-.9A23.24,23.24,0,0,1,52.45,112c.26-.47.43-1,.68-1.49.69-1.29,1.4-2.58,2.08-3.88a8.42,8.42,0,0,0,.52-1.32A2.17,2.17,0,0,0,55.74,104.72Z"/><path class="cls-3" d="M125.71,110.17l6.18,3.11c.69.34,1.36.72,2.06,1,.51.23.86.52.77,1.12-.05.33-.23.58-.61.54a2,2,0,0,1-.63-.18,10.56,10.56,0,0,1-2.62-1.42s-.14,0-.21-.06a21.35,21.35,0,0,0-3.19-1.45c-.1,0-.17-.14-.27-.2-1.34-.85-2.9-1.25-4.21-2.14-.09,0-.22,0-.32-.09-1-.44-1-.44-1-1.51a3.85,3.85,0,0,1,2.35.36,3.85,3.85,0,0,0-.25-1.42c-.33-.52,0-1.16-.44-1.6.08-.93-.34-1.81-.26-2.75a5.39,5.39,0,0,1,.37-1.51,1.07,1.07,0,0,1,1.21-.72,5.14,5.14,0,0,1,1.57.49,18.89,18.89,0,0,0,1.89.88c1.15.51,2.18,1.21,3.32,1.72s2.16,1.09,3.23,1.64a8.1,8.1,0,0,0,1,.47,2.18,2.18,0,0,1,1.44,1.45c-.84.56-.85.57-1.55.21-.43-.22-.83-.65-1.25-.66s-.77-.73-1.35-.52c-.23-.47-.78-.4-1.15-.65a6.1,6.1,0,0,0-1.06-.59,13.68,13.68,0,0,1-1.55-.84c-.5-.29-1.08-.43-1.59-.75a14.93,14.93,0,0,0-2-.93c-.38-.16-.87.1-.84.48a23.78,23.78,0,0,0,.12,2.66,34,34,0,0,0,.8,3.35A1.48,1.48,0,0,1,125.71,110.17Z"/><path class="cls-3" d="M138.16,66.06l-.34,1.8c-.38-.09-.69.1-1-.19a1.25,1.25,0,0,1-.34-1.46c.27-.87.26-.87-.51-1.3-1-.6-2.11-1.19-3.15-1.83-.48-.29-.9-.68-1.36-1a.61.61,0,0,1-.26-.71.63.63,0,0,1,.63-.42,1.86,1.86,0,0,1,1.05.37c1.35.87,2.76,1.66,4.19,2.5.26-1.24.48-2.45.77-3.63.12-.49.14-1,.62-1.41s.82-.27.95.14.66.6.09,1a4.49,4.49,0,0,1-.23,1.45,10,10,0,0,0-.26,1.55c0,.21-.2.41-.22.62,0,.39,0,.78,0,1.25.88.27,1.47,1,2.45,1.24a7.09,7.09,0,0,1,1.64.88,12.38,12.38,0,0,0,2.08,1,12.15,12.15,0,0,1,1.8.8,4,4,0,0,0,1.93.37,5.6,5.6,0,0,0-.33-2.4,15.1,15.1,0,0,0-1-3.14.6.6,0,0,1,.27-.8c.31-.18.57,0,.81.21a4,4,0,0,1,1,1.85c.27,1.14.66,2.27.9,3.42a9.14,9.14,0,0,1,.05,2.34c0,.24-.28.4-.6.43a6.14,6.14,0,0,1-3.1-.57c-2.44-1.07-4.82-2.3-7.21-3.48A13.51,13.51,0,0,1,138.16,66.06Z"/><path class="cls-3" d="M152.51,53.6c.28,1,.59,1.9.83,2.86a5.81,5.81,0,0,1,.36,1.75c0,.27.15.51.19.74a2,2,0,0,1-.31,1.77c-.45,0-.92,0-1.39,0a6.66,6.66,0,0,1-1.32-.24,9.15,9.15,0,0,1-1.42-.57c-1.49-.68-3-1.36-4.46-2.09-1.12-.56-2.2-1.19-3.33-1.81,0,.19-.06.41-.11.62a4.6,4.6,0,0,1-.19.52.67.67,0,0,1-.89.49.58.58,0,0,1-.54-.62,4,4,0,0,1,.27-1.84A34.93,34.93,0,0,1,136,52.65c-.37-.27-.71-.59-1.06-.89a.5.5,0,0,1-.08-.72.56.56,0,0,1,.8-.22c.55.3,1.1.6,1.64.92l3.25,1.94,1.09-5a.92.92,0,0,1,.19-.07c1.23,0,1.6.3,1.21,1.44s-.32,2.5-.89,3.66c-.23.45,0,.78.53,1.06,1.39.75,2.77,1.52,4.17,2.23A46.39,46.39,0,0,0,151.33,59c.28.11.5.18.73,0s.36-.51.09-.81.15-1-.33-1.28a9.84,9.84,0,0,0-.77-2.77,4.21,4.21,0,0,1-.17-1.4h.92Z"/><path class="cls-3" d="M37.14,112.43c-.64-.71-.29-1.32,0-1.92,1-2.13,2.06-4.28,3.2-6.36.85-1.54,1.52-3.18,2.43-4.67.81-1.32,1.38-2.77,2.26-4,.44-.65.79-1.4,1.21-2.1s.54-.69,1.16-.59a.61.61,0,0,1,.5.76,6.69,6.69,0,0,1-.62,1.39c-.48.75-.91,1.52-1.33,2.29-1.05,1.9-2.13,3.77-3.09,5.71q-2.09,4.22-4.2,8.43C38.35,111.94,38,112.47,37.14,112.43Z"/><path class="cls-3" d="M135.2,69.9c.34.13.59.2.82.31l10,5c.43.22.81.51,1.25.7s.37.52.47.8a.5.5,0,0,1-.49.62,2.65,2.65,0,0,1-1-.23c-3.07-1.53-6.13-3.09-9.21-4.62a6.91,6.91,0,0,0-1.9-.85c-.2,0-.37-.25-.53-.42a.71.71,0,0,1-.05-.94C134.71,70.06,135,70,135.2,69.9Z"/><path class="cls-3" d="M119.58,114.16a1.38,1.38,0,0,1,1.62.07c1.1.68,2.47.8,3.43,1.74a6.17,6.17,0,0,1,2.1.92c.69.34,1.39.64,2.07,1s1.06.69,1.63.92a11.22,11.22,0,0,1,1.85,1,.91.91,0,0,1,.3.24c.33.5.34.75.07,1a.84.84,0,0,1-1.05,0c-1.24-.64-2.49-1.23-3.73-1.85-2.13-1.07-4.24-2.16-6.36-3.22-.39-.19-.82-.32-1.22-.48A1,1,0,0,1,119.58,114.16Z"/><path class="cls-3" d="M68.87,123.08a1.1,1.1,0,0,1,0-1.33c1.56-3.06,3.13-6.11,4.67-9.19a13.82,13.82,0,0,1,1-2.19,1,1,0,0,1,.23-.31c.5-.32.78-.35,1-.06a1.13,1.13,0,0,1,0,1.28c-.48.94-1,1.87-1.41,2.85a17.16,17.16,0,0,0-.87,2,6.22,6.22,0,0,1-.73,1.23,4.79,4.79,0,0,0-.61,1.16,1.65,1.65,0,0,1-.49,1.1c-.37.28-.21.76-.54,1.1a5.33,5.33,0,0,0-.88,1.63A1.1,1.1,0,0,1,68.87,123.08Z"/><path class="cls-3" d="M143.26,38a4,4,0,0,1,0,.78c-.05.2-.17.52-.31.56-.66.16-1.09.76-1.78.87a4.67,4.67,0,0,0-1,.48,4,4,0,0,1-2.33.34.76.76,0,0,1-.49-.51c0-.21-.19-.49.31-.7.78-.31,1.59-.53,2.38-.83a8.39,8.39,0,0,0,1.5-.65A2.49,2.49,0,0,1,143.26,38Z"/><path class="cls-2" d="M22.06,76.37v.24a1.15,1.15,0,0,1-.51-.18c-.1-.09-.1-.31-.14-.47a2,2,0,0,1,.48.14C22,76.14,22,76.28,22.06,76.37Z"/><path class="cls-4" d="M19.92,90.37,19,90.05c.34-.09.7-.36.94.08Z"/><path class="cls-4" d="M20.87,75.43a1.82,1.82,0,0,0-.33,0c-.42.07-.38-.22-.38-.48A.58.58,0,0,1,20.87,75.43Z"/><path class="cls-4" d="M13.94,94.05c-.08-.19-.17-.3-.17-.42s.19-.18.21-.17a.67.67,0,0,1,.24.29S14.1,93.89,13.94,94.05Z"/><path class="cls-2" d="M27.24,94.83h-.63v-.12l.62-.09Z"/><path class="cls-4" d="M19.89,88.68h-.67C19.61,88.46,19.61,88.46,19.89,88.68Z"/><path class="cls-4" d="M28,88.68h-.67C27.68,88.46,27.68,88.46,28,88.68Z"/><path class="cls-2" d="M20,88.74h.67C20.23,89,20.23,89,20,88.74Z"/><path class="cls-4" d="M28,88.74h.67C28.3,89,28.3,89,28,88.74Z"/><path class="cls-4" d="M26.22,88.28l-.09-.2c.06,0,.14-.09.19-.07a.7.7,0,0,1,.21.14Z"/><path class="cls-2" d="M27.65,81.56l.58.16a1.33,1.33,0,0,1-.34.1S27.81,81.74,27.65,81.56Z"/><path class="cls-4" d="M27.16,81.64l-.08-.2c.06,0,.14-.09.19-.08s.14.1.21.15Z"/><ellipse class="cls-4" cx="26.57" cy="81.24" rx="0.34" ry="0.08"/><path class="cls-4" d="M27,88.44l-.16-.09s.06-.08.08-.07a.77.77,0,0,1,.16.07Z"/><path class="cls-4" d="M21.09,75.56l-.07.08a.83.83,0,0,1-.15-.11l.11-.1Z"/><path class="cls-2" d="M44.35,36.29v.24a1.08,1.08,0,0,1-.94-.48,4.82,4.82,0,0,1,.66,0C44.18,36.08,44.26,36.21,44.35,36.29Z"/><path class="cls-2" d="M40.12,18.63c-.12-.17-.23-.26-.26-.37S40,18.1,40,18a1.11,1.11,0,0,1,.28.24C40.34,18.32,40.23,18.44,40.12,18.63Z"/><path class="cls-4" d="M47.2,30.36c-.23-.09-.6.22-.71-.24C46.72,30.21,47.09,29.9,47.2,30.36Z"/><path class="cls-4" d="M40.76,25.34h-.63v-.12l.62-.09Z"/><path class="cls-2" d="M43.37,36H42.7C43.1,35.8,43.1,35.8,43.37,36Z"/><path class="cls-2" d="M47.78,30.63l-.58-.16a1.39,1.39,0,0,1,.33-.1S47.61,30.45,47.78,30.63Z"/><path class="cls-4" d="M45.91,29.85l.58.16a2.13,2.13,0,0,1-.33.11S46.08,30,45.91,29.85Z"/><ellipse class="cls-4" cx="41.27" cy="25.5" rx="0.34" ry="0.08"/><path class="cls-4" d="M50.88,25.43l-.08-.21c.06,0,.14-.08.19-.07s.14.1.21.15Z"/><path class="cls-4" d="M42,25.77l-.09.08a.77.77,0,0,1-.07-.16s.05-.05.07-.07Z"/><path class="cls-4" d="M42.37,25.89l.09.08-.16.08s0-.05-.08-.08Z"/><path class="cls-2" d="M32,58.11v.24c-.5.11-.63-.37-1-.61C31.53,57.53,31.85,57.62,32,58.11Z"/><path class="cls-2" d="M29.85,57.13h-.67C29.58,56.91,29.58,56.91,29.85,57.13Z"/><path class="cls-2" d="M30.36,57.4c-.18,0-.45.12-.47-.24C30.07,57.2,30.34,57,30.36,57.4Z"/><path class="cls-2" d="M30.93,57.67l-.57-.16a1.39,1.39,0,0,1,.33-.1S30.77,57.49,30.93,57.67Z"/><path class="cls-2" d="M39.1,11.34h-.87V11.2l.86-.06Z"/><path class="cls-2" d="M34.9,43.28c.11.19.22.31.19.35a1.14,1.14,0,0,1-.28.25c-.06-.08-.18-.17-.17-.23S34.78,43.45,34.9,43.28Z"/><path class="cls-4" d="M27.56,46.06h.63v.12l-.64.09Z"/></g></g></g></svg>