<svg xmlns="http://www.w3.org/2000/svg" viewBox="0 0 500.49 501.65"><defs><style>.cls-1{fill:#201f20;}.cls-2{fill:#66b474;}</style></defs><g id="Livello_2" data-name="Livello 2"><g id="Dark"><g id="qOIzk7"><path class="cls-1" d="M221.49,48.89c7.1-1.17,13.59-2.43,20.14-3.3,38-5.08,74.51.5,108.7,17.79C404.88,91,439.88,134.82,452.52,194.62s-1.29,114.14-40.4,161.26c-30.1,36.26-69,58.34-115.56,65.55-53,8.21-101.44-4.07-144.68-36.14a7.45,7.45,0,0,1-3.39-5.72c-2-22.4.55-43.91,12.65-63.47A65,65,0,0,1,196,288.41a13.68,13.68,0,0,0,9.12-8.65c8.4-20.77,19.07-40.3,33-58,20.94-26.63,47.39-44.62,81.15-50.48A180.32,180.32,0,0,1,348.08,169c27.15-.3,54.32-.11,81.48-.12h3.81c-14-34.78-36-62.38-66.55-83.09-31.29-21.23-65.95-31.26-104.59-30.71,1.06,1.73,1.58,2.7,2.21,3.59,7.28,10.29,5.8,22.1-3.79,30.37-7.11,6.13-15.67,8.5-24.7,9.71-.94.12-1.89.2-3.86.42,1.65,1.51,2.6,2.5,3.67,3.34,6.49,5.11,12.38,10.86,15.5,18.58,1.83,4.53,3.36,9.62,3.21,14.41-.42,14.22-12.84,23-27.34,19.93-8.21-1.72-15.08-6-21.28-11.49l-4.77-4.2c-.35,6.08,0,11.46-1.12,16.51-1.26,5.76-2.88,11.82-6,16.72-9.76,15.42-28.93,14.76-38.4-.85-5-8.3-6.16-17.47-6-26.92,0-1.32.08-2.64,0-4,0-.24-.36-.47-.87-1.07l-3.56,3.11c-7.39,6.45-15.34,11.86-25.52,12.51-16.8,1.09-27.58-12.45-23-28.71,2.83-10.08,9.32-17.5,17.12-24,1.27-1,2.57-2,4.57-3.65-3.92-.66-7.2-.81-10.18-1.81C103,95.92,97.63,94.27,93,91.47c-8.1-4.91-12.75-12.39-11.49-22.17,1.3-10.1,7.79-16.23,17.08-19.62,7.75-2.84,15.68-2.6,23.66-1.29l6.37,1.06c-1-2.25-1.52-3.67-2.21-5-3.56-6.9-5.93-14.06-5.5-22C121.9,4.81,138.19-5,154.16,2.58c9.07,4.3,14.55,11.9,18.78,20.63.63,1.31,1.19,2.65,2,4.39,2.78-4.79,5.06-9.33,7.91-13.48C187.36,7.48,193.4,2.63,201.41.7c13.52-3.25,26.05,5.5,27.79,19.35,1,8.06-.92,15.53-4.51,22.67C223.73,44.62,222.73,46.5,221.49,48.89ZM445.55,230c.12-12.69-2.34-29.09-6.71-45.26-.95-3.5-2.49-4.68-6.19-4.65-28.15.17-56.31-.05-84.46.18a169.51,169.51,0,0,0-26.37,1.88c-29.35,4.89-52.89,19.92-71.8,42.58-16,19.13-27.37,40.9-36.46,63.9-2,5-4.55,7.61-9.72,9-17.94,4.95-30.6,16.2-37.94,33.36-5.54,13-7.13,26.56-6.84,40.53.08,3.7,1.19,6.05,4.32,8.21C206.49,409.6,253.86,419.3,305,408.45,386.76,391.08,445.38,317.9,445.55,230Zm-274-125c-1.64,4.27-3.22,8.11-4.6,12-3.68,10.4-6.25,21-5.93,32.18.17,5.89,1.1,11.61,4.15,16.75,5.56,9.37,14.25,9.42,19.91.16,2.95-4.82,4-10.18,4.23-15.73.67-16.18-4.38-31-10.67-45.39Zm17.36-5.07c2,3.87,3.74,7.62,5.78,11.2,6.05,10.58,12.93,20.52,23,27.78,4.38,3.15,9.13,5.51,14.61,5.83,6.71.39,11.21-3.92,11.09-10.52-.1-5.57-2.62-10.21-6-14.46-4.7-6-10.68-10.41-17.21-14.14a111.06,111.06,0,0,0-26.86-10.92Zm-32.74-5.17c-11.68,3.55-22.79,7.92-32.58,15-7.07,5.13-13.34,11.1-15.91,19.88-1.26,4.33-1.32,8.7,2.06,12.18,3.23,3.32,7.39,3.46,11.65,2.4,6.48-1.6,11.82-5.22,16.6-9.71,10.23-9.62,17.11-21.52,23.15-34.08Zm40.43-11.27C209.15,87.12,222,89,235,87.46a52,52,0,0,0,15.53-4.89c4.49-2.13,7.76-6.13,7.24-11.57-.56-5.84-4.79-8.83-9.87-10.78a5.83,5.83,0,0,0-1.92-.51c-5.43,0-11-.72-16.27.16-13,2.19-24.15,8.71-34.6,16.09C195.64,78.82,196.1,81.08,196.58,83.48Zm-42.1-7.81C143.23,67.08,129.71,61,117.6,59.17c-7-1-14-.81-20.08,3.65s-6.87,11.62-1.44,16.69a29.93,29.93,0,0,0,10.12,6c9,3.19,18.36,2.9,27.64,1.84,6.52-.75,12.95-2.26,19.08-3.36C153.54,80.7,154,78.27,154.48,75.67Zm34-9.06c9.75-7.54,18.77-15.78,25-26.61,3.14-5.41,5.18-11.13,4.69-17.52-.68-8.63-7.77-13.26-15.9-10.29-4.72,1.72-8.18,5.07-10.87,9.16-8.28,12.57-10,26.77-10.4,41.29Zm-27-.37,7.79-3.83a86.79,86.79,0,0,0-4.69-30c-2-5.84-4.72-11.48-9.52-15.55a28.25,28.25,0,0,0-8.91-5.13c-5.57-1.89-11.05,1.28-13,6.87-1.83,5.14-1.09,10.18.84,15.06C139.43,47.63,150,57.32,161.44,66.24ZM185,83.52a10.24,10.24,0,1,0-20.47.26,10.29,10.29,0,0,0,10.35,10A10.43,10.43,0,0,0,185,83.52ZM129,49.36l-.34-.6c-.1.1-.31.23-.29.3a2.53,2.53,0,0,0,.3.62Z"/><path class="cls-1" d="M418.4,427.27l13.24,16.65-8.58,7.31L397,419.91c2.81-2.39,5.32-4.79,8.13-6.77a5.67,5.67,0,0,1,4.05-.34c5.61,1.32,11.16,2.85,16.74,4.31l.62-.84L416,403.46,426,397l1.16.77c0-.5,0-1,0-1.5.33-1,.38-2.34,1-3.11,6.68-7.87,13.47-15.65,20.24-23.44.2-.22.59-.27,1.28-.57l7.27,6.31-7.39,8.75,22.94,19.94-7.59,8.75-23-19.7-7.31,8.14-5.91-3.57-.89.9c1.37,3.79,4.63,6.38,7,9.48,2.54,3.3,5.3,6.42,8,9.63l7.89,9.55c-4.26,5.62-4.74,5.78-11.2,4.09s-13.19-3.44-19.78-5.16l-1.59-.12Z"/><path class="cls-1" d="M334.13,123.05c30.38-15.55,69.4.92,78.58,35.1C385.44,172.28,345.89,160.51,334.13,123.05Zm15.6,6.47c6.1,16.55,31.95,27.52,47.65,21.74C390.68,135.23,368.15,125,349.73,129.52Z"/><path class="cls-1" d="M444.39,149.51c-14.76-26.86-1.92-67.75,34.84-78.39C494.38,100.49,479.64,139.25,444.39,149.51Zm28.37-63.19c-15.38,5.7-27.69,30.4-21.81,48C466.27,128.35,478.45,104.82,472.76,86.32Z"/><path class="cls-2" d="M51.2,305.41c1.38,3.19,2.89,5.67,3.46,8.36a9,9,0,0,1-1.16,5.51c-2.28,4.22-4.92,8.24-7.75,12.9A32.1,32.1,0,0,0,50,333.74c2.77.56,5.59.84,8.36,1.38,7.17,1.42,9.05,3.51,10.55,11.81L32.15,363.22,27.05,353l20.89-9.79c-4.56-.9-7.89-1.5-11.19-2.23-4.2-.93-5.5-3.84-3.4-7.66a48.35,48.35,0,0,0,3.83-7.58c-6.73.89-12.1,5.13-19,6.84-1.47-3.37-2.9-6.61-4.54-10.36Z"/><path class="cls-1" d="M320.32,496.32c-3.87-13.23-7.58-25.94-11.26-38.51.45-.47.62-.83.88-.92,9.24-3,9.24-3,16.71,3.06,2.56,2.09,5.14,4.16,8.34,6.75,1.71-5,3.51-9.42,4.67-14,1-3.82,2.81-6.13,6.85-6.61a41.73,41.73,0,0,0,5.37-1.41c3.79,12.89,7.56,25.72,11.45,39L352.42,487l-6.7-22.27c-1.43,4.34-2.49,7.6-3.57,10.85-1.57,4.74-4.62,5.6-8.57,2.41-2.37-1.91-4.71-3.87-7.06-5.8l-1,.7c1.86,6.61,3.72,13.23,5.7,20.25Z"/><path class="cls-1" d="M382.71,472.19c-11.4-.19-19.66-7.11-20.8-17.42-1.22-11,6.78-22.18,17.88-24.89,14.84-3.63,28.42,6.57,27.2,20.43A24.45,24.45,0,0,1,382.71,472.19ZM395,451c.08-5.83-4.95-11.09-10.58-11.08a10.72,10.72,0,0,0-.23,21.44C389.81,461.38,395,456.46,395,451Z"/><path class="cls-2" d="M70.91,402c-11.24-.12-18.1-5.13-22.45-13.5S44.84,371.73,50.22,364c4.6-6.6,15.18-8.88,23.52-5.42,11.66,4.84,17.66,15.66,15.25,28C87.48,394.34,79.74,402.54,70.91,402Zm7.29-22.24a10.51,10.51,0,1,0-21-.42c-.06,6.38,4.21,10.7,10.54,10.66C73.83,389.91,78.19,385.65,78.2,379.71Z"/><path class="cls-1" d="M139.08,421.47l10.1,5.76-7.17,13,11.41,6.54c2.61-4.49,4.92-8.47,7.48-12.86L171,439.64,150.84,475l-10.13-5.7,7.58-13.65L137,449.09,129,462.57l-10.15-5.64C125.7,445,132.26,433.45,139.08,421.47Z"/><path class="cls-1" d="M230.63,457.63c6.94.76,13.29,1.05,19.47,2.22,9.36,1.77,14.53,10.71,10.68,18.71-1.54,3.2-4.9,5.52-8,8.86l10.31,14c-4.72-.32-8.64-.41-12.49-1a6.45,6.45,0,0,1-3.43-2.43c-2.28-2.79-4.33-5.77-7.5-8.46l-.89,9.68-11.6-.71C228.31,485,229.44,471.69,230.63,457.63Zm10.07,21.13c3,.49,6.16,1.68,8-1.17a8,8,0,0,0,.41-6.49c-1.34-3.13-4.57-2.39-7.66-2.2C241.16,472.24,240.94,475.34,240.7,478.76Z"/><path class="cls-1" d="M42.39,203.22c-.63,3.89-1.19,7.42-1.86,11.6-9.45-1.77-18.65-3-27.59-5.3C6,207.74,2,201,2.37,193.25A33.73,33.73,0,0,1,4,184.47c2.87-8.68,8.88-12.71,17.91-11.58,8.2,1,16.33,2.7,24.91,4.16-.63,3.82-1.23,7.36-1.9,11.43l-19.19-3.14c-1.31-.21-2.62-.47-3.94-.63-5.16-.62-7.86,1.21-8.64,5.83-.84,5,.7,7.47,5.86,8.5C26.52,200.53,34.06,201.74,42.39,203.22Z"/><path class="cls-1" d="M482.65,373.36l9.46-14.78,8.38,5.26L484.8,388.62l-34.47-21.85c5.28-8.31,10.31-16.25,15.56-24.54l8.37,5.27c-3.12,5-6,9.64-9.08,14.61l4.1,2.79c3.08-4.71,6-9.22,9.23-14.09l8.1,5.07L477.77,370Z"/><path class="cls-1" d="M177.45,486.41l25.28-35.76,12,3.28c1.42,14.4,2.8,28.42,4.28,43.41-4-1-7.58-1.79-11.09-2.87-.65-.2-1.2-1.48-1.38-2.35a48,48,0,0,1-.5-5.05l-12.41-3.36-4.21,5.87Zm28.15-8.63V465.36l-.87-.14-6.6,10.5Z"/><path class="cls-2" d="M11,313.89c-.82-3.63-1.32-6.59-2.18-9.44-.73-2.39-.11-3.91,2.14-4.77,2.94-1.12,3.56-3.07,2.48-5.93a30.13,30.13,0,0,1-1.13-4.86c-.53-2.78-1.8-4.58-5-4.27-2.24.22-3.28-1.05-3.71-3.15-.59-2.92-1.34-5.81-2.11-9.09a13.29,13.29,0,0,1,3-.31c11.85,1.58,23.68,3.35,35.55,4.76,3.89.47,5.8,1.92,6.47,5.93,1.42,8.56,2.06,6.7-4.54,11-9.19,6-18.33,12.06-27.5,18.09C13.52,312.47,12.53,313,11,313.89Zm9.79-28.7c.64,3.08,1.15,5.46,1.72,8.16,4.07-2.06,7.77-3.5,10.83-7.12Z"/><path class="cls-1" d="M280.33,459.57c1.31-.2,2.27-.43,3.25-.5,3-.22,6-.39,9.26-.6,6.13,12.93,12.23,25.81,18.66,39.39L299.22,499c-3.51-6.7-3.52-6.71-10.77-6-1.8.19-3.59.47-5.42.72-.67,2.32-1.26,4.37-1.94,6.71l-5.83.57-6.54.62Zm4.48,25,8.11-.87-5.32-12.61c-1,4.1-1.73,7-2.39,9.9A35.57,35.57,0,0,0,284.81,484.61Z"/><path class="cls-1" d="M26.67,143.12,17,139.41c1.2-3.47,2.36-6.85,3.76-10.93l38.64,13.79c-2.78,7.12-5,14.23-8.29,20.85s-10.26,9-16.94,6.89c-7.39-2.39-11.17-7.82-10.25-15.58C24.37,150.69,25.69,147,26.67,143.12Zm9.64,3.38c-1.15,3.68-4.07,6.87-1.32,10.11a7.2,7.2,0,0,0,6.19,1.88c3.84-1.15,3.44-5.36,4.9-8.33-1.07-.52-1.64-.86-2.25-1.08C41.5,148.26,39.16,147.48,36.31,146.5Z"/><path class="cls-1" d="M135.18,420.85l-6.35,7.82c-2.65-3.11-4.9-6.23-7.64-8.84-4.74-4.5-10.29-4.24-14.52.29s-4.49,10.94.26,15.07c3.06,2.66,6.83,4.49,10.7,7l-5.83,7.28c-10.74-2.15-19.4-12-19.87-22.33-.45-9.84,5.33-18.22,14.44-20.93C116.88,403,128.2,408.66,135.18,420.85Z"/><path class="cls-1" d="M10.1,230.45V245.8H0V219H40.4v11.47Z"/><path class="cls-1" d="M186.58,445.42l-15.46,37.76-10.82-4.37,15.32-37.56Z"/><path class="cls-1" d="M40.94,249.3c.44,4.08.81,7.52,1.24,11.56l-40.6,3.93L.43,253.16Z"/><path class="cls-2" d="M472.76,86.32c5.69,18.5-6.49,42-21.81,48C445.07,116.72,457.38,92,472.76,86.32Z"/><path class="cls-1" d="M418.43,270.61,429.37,272c-.63,3-1.08,5.87-1.84,8.64-10.65,38.92-33.28,69.26-66.46,91.82-16.42,11.16-35.62,19.86-51.25,24-.54-1.63-1.13-3.3-1.66-5s-.93-3.17-1.54-5.27c2.35-.86,4.61-1.71,6.89-2.52,30.31-10.75,56.42-27.61,76.54-53A144,144,0,0,0,418.43,270.61Z"/></g></g></g></svg>