<svg xmlns="http://www.w3.org/2000/svg" viewBox="0 0 548.16 546.04"><defs><style>.cls-1{fill:#4e7e5f;}.cls-2{fill:#67a27d;}.cls-3{fill:#80b192;}.cls-4{fill:#6b3026;}.cls-5{fill:#9d524b;}</style></defs><g id="Livello_2" data-name="Livello 2"><g id="Livello_1-2" data-name="Livello 1"><ellipse class="cls-1" cx="273.61" cy="273.02" rx="277.1" ry="259.48" transform="translate(-112.17 297.12) rotate(-48.51)"/><path d="M255.91,546c-67.11,0-129.39-24.8-176.56-70.58C28.68,426.29,1.5,358.9,2.79,285.7,4,220.4,33.66,151.34,84.29,96.22,138,37.78,206.84,3.72,278.21.32c74.34-3.54,147.72,22.47,196.27,69.59a219.15,219.15,0,0,1,51.53,78c13,33,19.15,70.89,18.41,112.48l-3.5-.07,3.5.07c-1.29,72.79-30.64,142.56-82.65,196.45S341.3,542.28,269,545.73Q262.43,546,255.91,546ZM291.25,7q-6.37,0-12.7.3C209,10.63,141.87,43.88,89.44,101a320.8,320.8,0,0,0-57.57,88.16c-13.89,32-21.52,65.44-22.08,96.72C8.53,357.06,35,422.63,84.22,470.43c48.82,47.39,114.33,71.64,184.45,68.3,70.51-3.36,137.29-34.18,188.06-86.79s79.43-120.7,80.69-191.72c.72-40.66-5.31-77.6-17.93-109.8A212.34,212.34,0,0,0,469.6,74.93c-25.14-24.4-56.25-42.7-92.48-54.4A281.7,281.7,0,0,0,291.25,7Z"/><ellipse class="cls-2" cx="274.08" cy="269.79" rx="270.88" ry="257.54" transform="translate(-40.73 48.88) rotate(-9.49)"/><path d="M269.07,531.28a277.7,277.7,0,0,1-150.79-44C58,448.45,17.63,389.36,4.49,320.84-8.18,254.76,6.16,187,44.87,130.09A273.07,273.07,0,0,1,121,55.3a284,284,0,0,1,104-41.89l.65,3.44-.65-3.44c72-13.63,144.76.2,205,38.94s100.65,97.87,113.78,166.39c12.67,66.08-1.67,133.83-40.37,190.75a273.11,273.11,0,0,1-76.11,74.79,284,284,0,0,1-104,41.89A291.13,291.13,0,0,1,269.07,531.28Zm10-516a283.8,283.8,0,0,0-52.84,5A277,277,0,0,0,124.82,61.15,266.29,266.29,0,0,0,50.65,134C13,189.4-.95,255.28,11.37,319.53c12.77,66.61,52.08,124.08,110.7,161.81s129.64,51.24,199.85,37.95a277,277,0,0,0,101.41-40.86,266.16,266.16,0,0,0,74.17-72.87c37.65-55.38,51.61-121.26,39.29-185.51C524,153.44,484.7,96,426.09,58.24A270.78,270.78,0,0,0,279.08,15.3Z"/><circle class="cls-3" cx="273.96" cy="269.38" r="257.35"/><path d="M274,530.22A260.84,260.84,0,0,1,89.51,84.93a260.85,260.85,0,1,1,368.9,368.89A259.13,259.13,0,0,1,274,530.22Zm0-514.69A253.84,253.84,0,0,0,94.46,448.87a253.85,253.85,0,1,0,359-359A252.17,252.17,0,0,0,274,15.53Z"/><path class="cls-4" d="M140.93,280.4s-7,43.57,37.82,86.8c29.07,28,74.77,43.56,103,40.18,84.7-10.14,104.76-81.38,115-132.14,6.11-30.38,5.1-82-2.85-104.67-3-8.44-16.12-26.29-24.93-24.75-3.75.66-4.15,1.4-7-1.35-1.19-1.14-2.16-5.79-9.36-10.18-15.84-9.67-65.67,3.41-94,14.69-33.88,13.51-55.52,26.52-76.43,49C163.86,217.72,146.63,244.9,140.93,280.4Z"/><path class="cls-5" d="M370.88,160.08s-86,15.08-96.73,40.12c-29.47,68.84-42.07,38-92.91,72.88-48.55,33.36,3.27,81.14,4.1,82.12A113.89,113.89,0,0,0,279,395.89c47.83-2.27,91.11-35.25,106-117.75C396.86,212,383.05,176,383.05,176A40.61,40.61,0,0,0,370.88,160.08Z"/><path class="cls-4" d="M360.18,171.11S319,184.54,299.5,193.31C279,202.56,269.7,237,265.88,246.54c-.47,1.17-2,4.89-2.35,6.11-.65,2.56-3.17,6.57-24,11.56C213,270.58,251,271,251,271s27.12-2.52,27.16-10.72c.12-19.71,5.73-43.56,29.82-58.1,7.3-4.41,43.72-19.06,48.52-22.38C360.48,177,360.18,171.11,360.18,171.11Z"/><path class="cls-3" d="M108.69,308.36a36,36,0,1,1,0-72.06,35.34,35.34,0,0,1,12.36,2.18,34.92,34.92,0,0,1,10.5,6.09,38.58,38.58,0,0,1,7.8,9A35.12,35.12,0,0,1,144,265.09l1.4,6.69h.23l-.12.55.12.55h-.24L144,279.57a35,35,0,0,1-4.65,11.52,38.84,38.84,0,0,1-7.8,9,35.27,35.27,0,0,1-22.86,8.26Zm0-53.21a16.15,16.15,0,0,0-6.57,1.34,17.87,17.87,0,0,0-5.53,3.74,17.67,17.67,0,0,0-3.73,5.53,16.72,16.72,0,0,0,0,13.14,17.61,17.61,0,0,0,9.27,9.27,16.94,16.94,0,0,0,12.25.39,18.15,18.15,0,0,0,4.93-2.75,17.85,17.85,0,0,0,3.84-4.14,18.22,18.22,0,0,0,2.39-5.18l1.17-4.16-1.17-4.16a17.71,17.71,0,0,0-2.4-5.18,18.19,18.19,0,0,0-3.82-4.14,18.39,18.39,0,0,0-5-2.75A16.37,16.37,0,0,0,108.69,255.15Z"/><path class="cls-4" d="M108.69,296a22.58,22.58,0,0,0,7.93-1.36,24.52,24.52,0,0,0,15.13-16.38h5.92a28.26,28.26,0,0,1-3.79,9.41,32.19,32.19,0,0,1-6.5,7.51,29,29,0,0,1-18.69,6.74,29.3,29.3,0,0,1-29.56-29.57,29.29,29.29,0,0,1,29.56-29.56,28.91,28.91,0,0,1,10.11,1.77,28.52,28.52,0,0,1,8.58,5,32.19,32.19,0,0,1,6.5,7.51,28.29,28.29,0,0,1,3.79,9.4h-5.92a24.55,24.55,0,0,0-8.45-12.65,24.7,24.7,0,0,0-6.68-3.73,23.44,23.44,0,0,0-17.09.53,24,24,0,0,0-12.6,12.6,23.17,23.17,0,0,0,0,18.33,24,24,0,0,0,12.6,12.59A22.56,22.56,0,0,0,108.69,296Z"/><path class="cls-4" d="M194.59,308.36a3.08,3.08,0,0,1-3.08-3.08v-1.35l-.84.45a35.16,35.16,0,0,1-16.34,4,36.14,36.14,0,1,1,36-36v32.95a3.08,3.08,0,0,1-3.08,3.08Zm-20.26-53.21a16.15,16.15,0,0,0-6.57,1.34,17.52,17.52,0,0,0-9.27,9.27,16.66,16.66,0,0,0,0,13.14,17.52,17.52,0,0,0,9.27,9.27,16.64,16.64,0,0,0,13.13,0,17.52,17.52,0,0,0,9.27-9.27,16.66,16.66,0,0,0,0-13.14,17.67,17.67,0,0,0-3.73-5.53,17.87,17.87,0,0,0-5.53-3.74A16.15,16.15,0,0,0,174.33,255.15Z"/><path class="cls-3" d="M174.33,242.77a29.36,29.36,0,0,1,29.56,29.56V301.9H198V290.07a30,30,0,0,1-10.29,8.58,28.69,28.69,0,0,1-13.36,3.25,29.69,29.69,0,0,1-21-50.56,29.37,29.37,0,0,1,21-8.57Zm0,53.21a22.59,22.59,0,0,0,9.16-1.89,24,24,0,0,0,12.6-12.59,23.17,23.17,0,0,0,0-18.33,24,24,0,0,0-12.6-12.6,23.17,23.17,0,0,0-18.33,0,24,24,0,0,0-12.59,12.6,23.05,23.05,0,0,0,0,18.33,23.92,23.92,0,0,0,12.59,12.59A22.61,22.61,0,0,0,174.33,296Z"/><path class="cls-4" d="M207.6,308.36a3.08,3.08,0,0,1-3.08-3.08V272.33a35.79,35.79,0,0,1,36-36,34.74,34.74,0,0,1,13.93,2.84,37.78,37.78,0,0,1,11.33,7.56,35.65,35.65,0,0,1,7.87,11.46,35.29,35.29,0,0,1,2.9,14.17v3.39a3.07,3.07,0,0,1-3.08,3.08H260.82a3.08,3.08,0,0,1-3.08-3.08v-3.39a16,16,0,0,0-1.35-6.57,17.52,17.52,0,0,0-9.27-9.27,16.78,16.78,0,0,0-13.14,0,17.87,17.87,0,0,0-5.53,3.74,17.67,17.67,0,0,0-3.73,5.53,16,16,0,0,0-1.35,6.57v32.95a3.08,3.08,0,0,1-3.08,3.08Z"/><path class="cls-3" d="M240.55,242.77a28.41,28.41,0,0,1,11.36,2.3,31.32,31.32,0,0,1,9.4,6.27,29.08,29.08,0,0,1,6.44,9.4,28.71,28.71,0,0,1,2.37,11.59h-5.91a22.57,22.57,0,0,0-1.9-9.16,24,24,0,0,0-12.59-12.6,23.17,23.17,0,0,0-18.33,0,24,24,0,0,0-12.6,12.6,22.56,22.56,0,0,0-1.89,9.16V301.9H211V272.33a29.29,29.29,0,0,1,29.56-29.56Z"/><path class="cls-4" d="M327.05,308.36a3.08,3.08,0,0,1-3.08-3.08v-1.35c-.28.16-.56.31-.85.45a35.13,35.13,0,0,1-16.34,4,36.14,36.14,0,1,1,36-36v32.95a3.08,3.08,0,0,1-3.08,3.08Zm-20.27-53.21a16.15,16.15,0,0,0-6.57,1.34,17.61,17.61,0,0,0-9.27,9.27,16.66,16.66,0,0,0,0,13.14,17.61,17.61,0,0,0,9.27,9.27,16.66,16.66,0,0,0,13.14,0,17.61,17.61,0,0,0,9.27-9.27,16.66,16.66,0,0,0,0-13.14,17.61,17.61,0,0,0-9.27-9.27A16.15,16.15,0,0,0,306.78,255.15Z"/><path class="cls-3" d="M306.78,242.77a29.36,29.36,0,0,1,29.56,29.56V301.9h-5.91V290.07a30,30,0,0,1-10.29,8.58,28.69,28.69,0,0,1-13.36,3.25,29.57,29.57,0,1,1,0-59.13Zm0,53.21a22.56,22.56,0,0,0,9.16-1.89,24,24,0,0,0,12.6-12.59,23.17,23.17,0,0,0,0-18.33,24,24,0,0,0-12.6-12.6,23.17,23.17,0,0,0-18.33,0A24,24,0,0,0,285,263.17a23.17,23.17,0,0,0,0,18.33,23.92,23.92,0,0,0,12.59,12.59A22.64,22.64,0,0,0,306.78,296Z"/><path class="cls-4" d="M373,308.36a35.79,35.79,0,0,1-36-36V230.51a3.08,3.08,0,0,1,3.09-3.08h12.68a3.08,3.08,0,0,1,3.08,3.08V245a3.08,3.08,0,0,0,3.08,3.09h9.8a3.08,3.08,0,0,1,3.09,3.08v12.68A3.08,3.08,0,0,1,368.7,267h-9.8a3.08,3.08,0,0,0-3.08,3.08v2.28a16,16,0,0,0,1.35,6.57,17.54,17.54,0,0,0,9.26,9.27,16.66,16.66,0,0,0,13.14,0,17.52,17.52,0,0,0,9.27-9.27,16,16,0,0,0,1.35-6.57V269a3.08,3.08,0,0,1,3.08-3.08H406A3.08,3.08,0,0,1,409,269v3.38a35.19,35.19,0,0,1-2.91,14.25A36,36,0,0,1,398.27,298a37.52,37.52,0,0,1-11.34,7.56A34.69,34.69,0,0,1,373,308.36Z"/><path class="cls-3" d="M402.57,272.33A28.75,28.75,0,0,1,400.21,284a29.33,29.33,0,0,1-6.45,9.34,31,31,0,0,1-9.4,6.27A28.2,28.2,0,0,1,373,301.9a29.19,29.19,0,0,1-11.65-2.31,29.33,29.33,0,0,1-17.92-27.26V233.9h5.91v20.69h16v5.92h-16v11.82a22.45,22.45,0,0,0,1.9,9.17,23.92,23.92,0,0,0,12.59,12.59,23.17,23.17,0,0,0,18.33,0,24,24,0,0,0,12.6-12.59,22.61,22.61,0,0,0,1.89-9.17Z"/><path class="cls-3" d="M439.23,308.36a36,36,0,1,1,0-72.06,34.74,34.74,0,0,1,13.93,2.84,37.78,37.78,0,0,1,11.33,7.56,35.8,35.8,0,0,1,7.87,11.46,36.21,36.21,0,0,1,0,28.42A35.71,35.71,0,0,1,464.49,298a37.47,37.47,0,0,1-11.33,7.56A34.74,34.74,0,0,1,439.23,308.36Zm0-53.21a16.15,16.15,0,0,0-6.57,1.34,17.87,17.87,0,0,0-5.53,3.74,17.67,17.67,0,0,0-3.73,5.53,16.72,16.72,0,0,0,0,13.14,17.61,17.61,0,0,0,9.27,9.27,16.66,16.66,0,0,0,13.14,0,17.63,17.63,0,0,0,5.54-3.74,17.84,17.84,0,0,0,3.73-5.53,16.66,16.66,0,0,0,0-13.14,17.87,17.87,0,0,0-3.74-5.53,17.64,17.64,0,0,0-5.53-3.74A16.15,16.15,0,0,0,439.23,255.15Z"/><path class="cls-4" d="M439.23,242.77a28.41,28.41,0,0,1,11.36,2.3,31.32,31.32,0,0,1,9.4,6.27,29.24,29.24,0,0,1,6.44,9.4,29.67,29.67,0,0,1,0,23.24,29.31,29.31,0,0,1-6.44,9.34,31.13,31.13,0,0,1-9.4,6.27,28.25,28.25,0,0,1-11.36,2.31,29.3,29.3,0,0,1-29.56-29.57,29.29,29.29,0,0,1,29.56-29.56Zm0,53.21a22.64,22.64,0,0,0,9.17-1.89A23.92,23.92,0,0,0,461,281.5a23.17,23.17,0,0,0,0-18.33,24,24,0,0,0-12.59-12.6,23.17,23.17,0,0,0-18.33,0,24,24,0,0,0-12.6,12.6,23.17,23.17,0,0,0,0,18.33,24,24,0,0,0,12.6,12.59A22.56,22.56,0,0,0,439.23,296Z"/></g></g></svg>