<?xml version="1.0" encoding="utf-8"?>
<!-- Generator: Adobe Illustrator 25.0.1, SVG Export Plug-In . SVG Version: 6.00 Build 0)  -->
<svg version="1.1" id="Livello_1" xmlns="http://www.w3.org/2000/svg" xmlns:xlink="http://www.w3.org/1999/xlink" x="0px" y="0px"
	 viewBox="0 0 500 500" style="enable-background:new 0 0 500 500;" xml:space="preserve">
<style type="text/css">
	.st0{fill:#FFFFFF;}
</style>
<g>
	<path d="M239.6,490.4c-53-0.9-108.7-21.9-155.5-65.1C47,390.9,23.3,348.6,12.6,299.2c-3.6-16.7-5.5-33.6-5.1-50.6
		C9,188.2,29.7,135.2,70.2,90.4c35.2-39,79-63.8,130.3-75.2c14.7-3.3,29.6-5.3,44.7-5.5c69.6-1,129.2,23.3,178.3,72.5
		c31.5,31.5,52,69.4,62.4,112.7c6.7,28.1,8.3,56.5,4.5,85.1c-6.8,51.9-28.3,97-64.3,135c-30.7,32.4-67.9,54.4-110.9,66.5
		C293.3,487.6,272.7,490.3,239.6,490.4z M191.1,73.1c-0.4,1.8-0.8,3.5-1.3,5.2c-0.2,0.6-0.8,1.3-1.4,1.5c-2.2,0.9-4.4,1.7-6.7,2.4
		c-9.1,2.5-15.9,8.2-21.5,15.5c-4.5,5.8-6.7,12.5-7.7,19.7c-1.6,11.7-0.5,22.8,5.6,33.2c4.3,7.4,8.6,14.7,13,22
		c0.5,0.9,1.2,1.6,1.8,2.4c0.2,0,0.4-0.1,0.7-0.1c0-1.7-0.1-3.4,0-5.1c0.6-5.8,1.3-11.5,2-17.3c0.4-3.4,2.2-5.3,5.3-5.3
		c4.6,0,9.3-0.2,13.5,2.5c1.4,0.9,2.9,1.6,4.4,2.3c2.8,1.3,5.8,2.4,8.4,4c5.4,3.4,10.3,7.4,13.5,13c0.9,1.6,2,2.4,3.9,2.3
		c2.1-0.1,3.3,1.3,3.2,3.4c0,1.4-0.2,2.8-0.3,4.1c-0.2,4.1-1,8.2-0.4,12.2c0.9,5.7-2.5,9.4-5,13.5c-1,1.6-2.6,2.8-4.1,4.1
		c-2.9,2.7-5.7,5.6-9.6,6.8c-3.2,1-5.3,3.3-7.1,6.1c-1,1.6-2.2,3.3-3.6,4.5c-3.4,2.8-6.8,5.7-10.5,8.1c-5.8,3.7-11.8,7-17.8,10.3
		c-1.7,0.9-3.8,1.3-5.8,1.5c-2.5,0.2-5,0-7.5,0c-8.3,0.1-16.7,0.1-24.6,3.4c-5.4,2.3-11,4.4-16,7.5c-7.1,4.5-13.4,10-18.9,16.5
		c-1.1,1.3-1.6,2.4-1.4,4.1c0.4,3.7,0.2,4-3.3,5.2c-0.9,0.3-1.9,0.5-2.8,0.8c-2.6,0.7-5.3,1.5-8,2.3c1.2,1,2.3,1.7,3.1,2.6
		c2.1,2.5,2.1,2.8-0.6,4.6c-5.2,3.6-10.2,7.5-14.3,12.3c-9.3,10.9-16.5,23.1-21,36.8c-1.2,3.7-2.5,7.3-3.8,11.1
		c0.5-0.1,0.7-0.1,0.9-0.1c6.7-2.9,13.4-5.7,20-8.6c0.5-0.2,0.9-1.1,0.9-1.8c0.1-5,0-10,0.1-15c0.2-8.3,4.5-14.7,10.7-19.5
		c4.4-3.4,9.6-5.8,14.5-8.5c3-1.6,6.2-2.9,10.1-4.6c-1.9-1.7-3.6-3-5.1-4.5c-0.7-0.7-1-1.7-1.5-2.5c0.9-0.3,1.8-0.8,2.7-0.9
		c2.4-0.1,4.8,0,7.7,0c-0.8-1.3-1.2-1.9-1.7-2.5c-1.9-2.5-1.7-5.6,0.4-7.8c2.3-2.4,4.7-4.7,7.1-7c2.7-2.5,5.1-5.4,8.2-7.3
		c9-5.4,18.7-8.9,29-11c3.5-0.7,4-0.3,4,3.3c0,2.5,0,4.9,0,8.1c3-2.5,5.5-4.7,8.1-6.8c0.6-0.5,1.8-1.1,2.3-0.8
		c0.7,0.5,1.2,1.6,1.6,2.5c0.2,0.5,0,1.1,0,1.6c0.1,2.8,0.4,3.1,3,1.9c2.2-1.1,4.3-2.4,6.5-3.7c3.4-2,7.4-0.2,8,3.7
		c0.3,1.8,0.6,3.5,0.9,5.3c0.4,3,0.7,3.3,3.8,3.5c5.2,0.2,4.3,0.6,6.1,5c0.2,0.4,0.2,0.9,0.3,1.4c0.5,2.1,0.7,4.3,1.4,6.3
		c1.3,3.4,2.8,6.6,4.3,9.9c0.5,1,1.2,1.9,2,3.1c0.5-0.8,0.8-1.2,0.9-1.6c0.6-3,1.3-6.1,1.7-9.2c0.7-6.5,5.8-11.1,12.4-10.9
		c1.7,0.1,2.8,1,2.6,2.7c-0.7,4.5,0.4,8.7,1.6,12.9c0.6,2.2,1.6,4.3,2.5,6.7c0.5-0.6,0.7-0.7,0.8-0.9c1.6-2.9,2.9-6,4.8-8.7
		c2.4-3.4,5.1-6.7,8.1-9.6c2.5-2.4,5.4-4.5,8.4-6.4c2.6-1.6,4.3-1.2,6.2,1.1c4.4,5.2,8.3,10.6,10.3,17.2c0.4,1.4,1.1,2.8,2,4.8
		c0.6-1.3,1-1.8,1.2-2.4c0.6-2.1,1.1-4.1,1.7-6.2c0.2-0.7,0.7-1.4,1.1-2.1c0.7,0.4,1.6,0.7,2,1.3c1,1.7,2,3.5,2.5,5.4
		c1,3.5,1.5,7.1,2.3,10.6c0.9-1.3,1.3-2.6,1.7-4c0.8-2.8,1.6-5.7,2.6-8.5c0.2-0.6,1.5-1.4,2.2-1.3c1,0.2,2,0.9,2.7,1.7
		c0.5,0.6,0.6,1.5,0.7,2.4c0.5,5.1,0.9,10.2,1.4,15.3c0.1,1,0.5,2,0.8,3.6c2.3-3.1,4.2-5.6,5.9-8.3c2.6-3.9,5.1-7.9,7.7-11.8
		c1.9-2.9,6.3-3.6,8.8-1.5c1.7,1.4,3.1,3.2,4.7,4.7c1.5,1.4,1.9,3.1,2.1,5c0.1,1.4,0.7,2.7,1.1,4c0.2,0,0.4,0,0.6-0.1
		c0.2-0.6,0.3-1.3,0.5-1.9c0.4-1.5,0.7-3,1.4-4.3c0.4-0.8,1.3-1.5,2.1-1.7c0.4-0.1,1.2,0.9,1.7,1.5c0.6,0.9,1.2,1.9,1.5,2.9
		c2.3,8.5,4.5,17,6.8,25.5c0.2,0.6,0.7,1.2,1.1,1.8c0.4-0.5,1-0.8,1.3-1.4c1.5-3.4,3.7-6.3,6.7-8.6c2.1-1.6,3-1.3,4,1.1
		c4.6,10.5,7,21.4,7.1,32.9c0,0.6,0.2,1.2,0.3,1.8c0.2,0,0.4,0,0.6,0c0.3-1,0.6-1.9,1-2.9c0.7-2,1.2-4.1,2-6.1
		c0.8-2.1,2.4-2.4,3.7-0.6c1.8,2.5,3.7,5,4.8,7.7c1.8,4.3,3.1,8.9,4.4,13.4c0.6,2.1,1,4.3,1.5,6.4c1-1.3,1.6-2.7,2.3-4.1
		c2-4.1,4-8.2,6.3-12.1c1-1.8,2-1.7,3,0.1c0.9,1.5,1.5,3.1,2,4.8c1.1,3.3,2,6.6,3,9.9c0.6-1.3,0.8-2.6,1.1-4
		c0.4-1.5,0.6-3.2,1.3-4.5c1.1-1.8,3-1.7,3.9,0.1c0.7,1.3,1,2.9,1.2,4.3c0.2,1.8,0.1,3.7,0.2,5.6c0.1,6.1,0.4,12.2,0.4,18.3
		c0,4.2-3.5,5.9-7.1,3.6c-1.1-0.7-1.9-1.8-2.9-2.6c-0.5-0.4-1-0.8-1.4-1.2c-0.2,0.2-0.4,0.3-0.6,0.5c0.8,1.1,1.6,2.3,2.4,3.4
		c1.6,2.2,3.8,4.2,4.9,6.6c2.4,5.1,4.2,10.4,6.3,15.6c0.7,1.9,1.7,3.7,2.5,5.5c0.3-0.1,0.6-0.1,0.9-0.2c0.3-4.5,0.5-8.9,0.8-13.4
		c0.2-3.4,0.5-6.9,0.8-10.3c0.3-4.8,1.4-9.8,0.8-14.5c-1.1-8.2-2.4-16.4-5.7-24.2c-2-4.7-1.4-9,2.8-12.3c1.5-1.2,1.5-2.8,1.6-4.5
		c0.3-5.9-1.8-11.8,0.4-17.8c1.8-4.8,1.9-10.2,3.2-15.2c1.4-5.3,3.5-10.3,5.2-15.6c1.5-4.7,3.2-9.4,5.7-13.7c4-6.7,4-13.9,1-21
		c-2.5-6.1-2.7-12.2-0.8-18.5c0.9-3.1,1.9-6.3,2.5-9.4c1.3-7.6,0.5-15.2-0.2-22.8c-0.4-4.2-1.6-8.4-2.5-12.6
		c-0.4-1.7-0.3-3.2,1.1-4.3c1.3-1.1,2.6-0.6,3.9,0.1c1.6,1,3.1,2.1,4.7,3.1c0.2-0.1,0.3-0.2,0.5-0.3c-0.8-2.2-1.7-4.3-2.3-6.6
		c-1.1-4.4-2-8.8-2.9-13.2c-1.7-8.6-3.4-17.1-5-25.7c-0.5-2.8-0.5-5.7-1.1-8.4c-1.6-7.6-6.2-13.6-10.6-19.8c-1.1-1.5-1.5-3-0.1-4
		c2-1.5,1.4-2.9,0.3-4.4c-4-5.8-7-12.3-12.3-17.2c-0.5-0.5-0.9-1.2-1.4-1.8c-2.6-2.9-5-6.2-8-8.7c-6.1-5-12.3-9.8-19.6-13.1
		c-1.4-0.6-1.5-1.5-0.6-2.6c0.3-0.4,0.7-0.8,1.1-1.2c-1.5-2.5-4.3-4.2-8.6-5.8c-7-2.5-14.4-3.8-20.7-8.2c-3.5-2.5-7.5-4.2-11.8-4.4
		c-1.7-0.1-2.9-0.8-4.2-1.8c-1.8-1.4-3.8-2.8-5.9-3.6c-5.5-2.1-11.3-2.4-17.1-2.5c-3.7,0-7.4,0.2-11.1,0.7c-3.3,0.4-6.4,1.2-9.4-0.9
		c-0.5-0.4-1.6-0.2-2.4,0c-4,1.2-8.1,2.5-12.1,3.8c-4.4,1.5-5.3,1.3-7.1-1.8c-0.7,0.2-1.5,0.4-2.1,0.8c-4.6,2.6-9.2,5.1-13.6,8
		c-3.4,2.2-6.4,5.1-9.7,7.4c-0.8,0.6-2.2,0.9-3.2,0.6c-10.3-2.4-20.6-4.9-31-7.4c-5.4-1.3-10.7-2.6-16.3-3.9c-0.6,2.6-1.2,5-1.8,7.5
		c2.3,0.6,4.3,1.1,6.5,1.7c-0.6,2.6-1.1,4.9-1.7,7.4c2.4,0.6,4.7,1.2,7,1.7c-0.7,2.4-1.3,4.8-2,7.4C186.9,71.9,189,72.5,191.1,73.1z
		 M41.8,356.3c0.3-2.1,0.4-3.7,0.7-5.2c0.5-2.3,0-4.3-0.9-6.4c-10.2-22.6-16.5-46.2-18.9-70.8c-4-41.5,2.3-81.4,20.3-118.9
		C74.1,90.2,124.7,48.5,194.1,30.1c37.7-10,75.7-9.5,113.4,0.4c48.1,12.7,88.4,38.1,119.5,77c44.5,55.7,60,119.2,46.5,189.2
		c-9.2,47.6-32.4,87.9-67.6,121.2c-2.8,2.7-2.6,6.4-3.9,9.6c84.2-69.3,116.3-205.8,39.1-314.6C366.4,7.5,218.2-18.5,111.4,60.3
		C8.6,136-5.8,267.9,41.8,356.3z M247.3,472.4c-1.3,5.1,0.3,8.2,5.5,9.7c3.4,0.9,6.9,1.5,10.4,1.7c7.3,0.4,14.6,0.1,21.5-2.6
		c4.5-1.8,5.5-3.8,4.9-8.6c-1.5-10.8-3-21.7-4.5-32.5c-0.5-3.7-1.1-7.5-1.6-11.2c-0.7,0-1.2,0-1.7,0c-5.7,0.5-11.5,0.9-17.2,1.6
		c-4.2,0.5-8.5,1.2-12.6,2.3c-3,0.8-4.5,3.1-4.4,6.5c0,6.5-0.2,13-0.4,19.5c-0.1,5.1,1.2,7.2,6.1,8.4c3.9,0.9,8.1,1.1,12.1,1.5
		c2.3,0.2,4.5,0,7,0c0.1,1.1,0.2,2.4,0.3,3.6c0.4,5.4-0.4,6.2-5.9,5.8c-0.3,0-0.5-0.1-0.8-0.1c-1.7-0.2-2.6-1.1-2.5-2.9
		c0.1-0.8-0.1-1.6-0.1-2.5C257.9,472.4,252.6,472.4,247.3,472.4z M226.4,467c-0.1,1.1-0.2,2.3-0.3,3.4c-0.6,5.4-1.4,6-6.8,4.7
		c-0.3-0.1-0.5-0.2-0.8-0.2c-1.6-0.5-2.3-1.4-1.9-3.1c0.2-0.8,0.1-1.7,0.2-2.6c-5.5-1-10.7-2-15.9-2.9c-1.8,5.7-0.9,8,4.2,10.6
		c1,0.5,2,1,3,1.3c7.7,2.7,15.7,3.8,23.9,3.5c2-0.1,4-0.5,5.9-1.1c2.8-0.8,4.3-2.7,4.4-5.8c0.4-14.4,1-28.8,1.5-43.2
		c0-0.4-0.1-0.8-0.2-1.2c-0.4-0.1-0.6-0.1-0.9-0.2c-6.2-0.5-12.4-1.2-18.6-1.6c-4.1-0.2-8.3-0.1-12.4,0.3c-2.7,0.3-4.3,2.2-4.9,5
		c-1.3,6.9-2.6,13.8-4,20.6c-0.5,2.6,0.1,4.7,2.3,6c2.7,1.6,5.6,3.1,8.6,3.9C217.9,465.7,222,466.2,226.4,467z M222,361
		c-8.5-2.2-16.7-4.4-24.9-6.4c-2.4-0.6-4.9-0.8-7.4-0.8c-3.2-0.1-4.5,1-5.6,3.9c-2,5.2-3.9,10.4-5.9,15.6c-1.3,3.5-1,5.3,2,7.4
		c3.1,2.1,6.5,3.9,10,5.5c2.9,1.3,6.1,2.1,9.3,3.2c-0.2,0.8-0.3,1.5-0.5,2.2c-1.4,5.4-2.2,5.7-7.4,3.6c-2.8-1.1-3-1.5-2.1-4.5
		c0.1-0.4,0.1-0.8,0.1-1.1c-5.2-1.9-10.2-3.7-15.2-5.6c-2.3,4-2,6.1,1.2,8.9c0.5,0.4,1.1,0.9,1.7,1.2c5.6,3.7,11.9,6,18.4,7.5
		c4.2,1,8.5,1.5,12.7,1.7c4,0.2,5.4-1.3,6.2-5.3c1.7-8.4,3.4-16.7,5-25.1C220.4,368.9,221.2,365,222,361z M309.4,463.8
		c-0.2-1-0.3-1.6-0.4-2.3c-1.9-8.9-3.9-17.7-5.7-26.6c-0.2-1-0.3-2.7,0.1-2.9c1.9-0.8,4-1.5,6-1.7c1.8-0.1,1.7,1.9,2,3.2
		c2.3,8.8,4.5,17.6,6.7,26.4c0.2,0.8,0.1,2,1.6,1.6c4.9-1.3,9.8-2.6,14.7-3.9c-0.1-0.6,0-0.9-0.1-1.3c-3.1-9.7-6.2-19.4-9.3-29.1
		c-0.8-2.5-2.7-4-5.1-4c-4,0-8,0.3-12,0.7c-2.2,0.2-4.3,0.9-6.6,1.5c-1.1-5.1-2.2-10.1-3.4-15.2c-4.4,0.8-8.5,1.6-12.9,2.5
		c2.8,17.9,5.5,35.7,8.3,53.7C298.8,465.5,304,464.7,309.4,463.8z M134.8,336.4c1.1,0.3,1.8,0.5,2.6,0.6c3.4,0.7,4.7,0.2,6.6-2.7
		c1.8-2.9,3.6-5.8,5.5-8.6c1.5-2.2,1.4-4.4-0.1-6.3c-1.5-1.9-3.2-3.9-5.1-5.4c-4.6-3.9-9.4-7.5-14.2-11.3c-1.7-1.4-3.4-2.8-5.2-4.4
		c-9.8,10.7-19.4,21.3-29.2,32.1c4.3,3.8,8.5,7.4,12.7,11.1c4-5,7.8-9.8,11.6-14.4c1.8,0.7,2,1.6,1.6,3.2c-1.4,5-2.5,10.1-3.9,15.1
		c-0.6,2-0.4,3.3,1.6,4.5c2.5,1.5,4.9,3.4,7.3,5.1c1.3,0.9,2.6,1.7,4.1,2.7C132.1,350.4,133.4,343.5,134.8,336.4z M116.2,427.9
		c9.4,5.5,18.2,11.4,28.5,14.7c2,0.6,4.2,0.9,6.3,1c2.6,0.1,4.5-1.1,5.5-3.7c2.4-6.3,5-12.5,7.5-18.7c1.1-2.7,0.8-5.2-1.4-7
		c-2.5-2.1-5.2-4.1-8-5.9c-2.3-1.5-4.9-2.6-7.5-3.9c2.2-4.3,4.4-8.4,6.6-12.6c-3.9-2.2-7.7-4.2-11.6-6.4
		C133.4,399.4,124.9,413.5,116.2,427.9z M78.7,399.2c8.5,7.3,16.4,15,26.4,20.1c1.8,0.9,3.8,1.4,5.7,1.9c2.6,0.6,4.5-0.4,5.9-2.7
		c3.2-5.3,6.6-10.6,10-15.8c2.1-3.4,2.2-5.6-0.5-8.7c-2.2-2.5-4.8-4.8-7.3-7c-1.8-1.6-3.8-2.9-5.8-4.4c2.9-3.7,5.7-7.3,8.5-11
		c-3.6-2.9-7-5.7-10.5-8.5C100.3,375.1,89.6,387.1,78.7,399.2z M43.3,359.5c2.5,3.2,4.8,6.3,7.2,9.2c0.3,0.3,1.3,0.3,1.8,0.1
		c2.4-0.8,4.9-1.7,7.2-2.6c1.1-0.4,1.7-0.3,2.5,0.6c2.3,2.8,4.7,5.5,7.1,8.1c0.8,0.9,0.9,1.5,0.3,2.5c-1.3,2.2-2.3,4.6-3.6,6.8
		c-0.6,1.1-0.5,1.8,0.4,2.7c3.3,3.2,6.5,6.4,9.8,9.7c0.3,0.3,0.7,0.5,1.2,0.8c0.2-0.4,0.4-0.6,0.5-0.9c6.3-14.6,13.5-28.9,21.5-42.7
		c0.6-1.1,0.6-1.7-0.3-2.6c-2.4-2.5-4.8-5-7.1-7.6c-1-1.1-1.7-1.1-3-0.6c-11.5,4.4-23,8.8-34.6,13.1
		C50.8,357.4,47.2,358.3,43.3,359.5z M348.2,423c4.4-2.1,8.9-4.2,13.5-6.3c-0.6-1.3-1.2-2.3-1.6-3.3c-0.2-0.6-0.3-1.7-0.1-1.9
		c1.9-1.2,3.8-2.3,5.8-3.2c0.3-0.1,1,0.3,1.2,0.6c1.7,2.9,3.3,5.9,4.9,8.9c-3.5,1.9-6.8,3.6-9.9,5.5c-2.8,1.7-5.4,3.7-7.9,5.7
		c-2,1.6-2.4,3.8-1.2,6.2c0.9,1.8,1.7,3.7,2.4,5.5c1,2.8,3.2,4.1,5.9,4c2.5-0.1,5.1-0.2,7.3-1.1c6.2-2.6,12.2-5.5,18.2-8.5
		c3.6-1.8,7-4.1,10.6-6.2c-0.4-0.8-0.7-1.3-1.1-1.8c-5-8.1-10.1-16.1-15.1-24.2c-2.6-4.2-4.9-5.4-9.7-4c-8.3,2.4-15.8,6.4-22.4,12
		C345,414.6,344.8,417.8,348.2,423z M190.1,458.6c0.7,0,1.4,0,2.1,0c4.4-0.3,6-1.6,6.9-6c1.3-6.2,2.5-12.5,4-18.7
		c0.8-3.4-0.2-5.9-3-7.7c-1.3-0.8-2.6-1.7-4-2.2c-5.3-1.8-10.7-3.5-16.1-5c-2-0.6-4.1-0.7-6.2-0.6c-2.7,0.1-5,0.9-6.1,3.8
		c-2.5,6.6-5,13.2-7.6,19.8c-0.7,1.8-0.5,3.5,0.7,4.9c1,1.2,2.1,2.5,3.4,3.3C172.1,455.3,180.8,457.8,190.1,458.6z M354.7,385.9
		c-0.2-0.6-0.2-1-0.3-1.4c-2.8-7.8-5.5-15.7-8.3-23.5c-1.6-4.4-2.8-5.5-7.5-5.3c-9.2,0.4-17.9,2.9-26.1,6.9
		c-4.3,2.1-5.1,4.8-3.2,9.7c4.7-1,9.5-2,14.5-3c-0.3-1.2-0.5-2.1-0.7-3.1c-0.4-2.4,1.6-2.5,3-2.9c1.7-0.4,3.9-1.8,4.9,0.6
		c1.1,2.5,1.6,5.3,2.4,8.1c-3.3,0.9-6.4,1.6-9.4,2.6c-3.6,1.2-7.2,2.5-10.7,4.1c-2,0.9-3,2.6-2.4,4.9c0.4,1.5,0.6,3.1,0.9,4.7
		c0.5,2.9,1.9,4.4,4.8,5c1.4,0.3,2.7,0.4,4.1,0.4c6.7,0.1,13-1.7,19.4-3.4C345,388.9,349.8,387.3,354.7,385.9z M261.7,399.4
		c0.1-0.8,0.1-1.1,0.1-1.4c0.2-9.3,0.3-18.6,0.5-27.9c0.1-4.7,0-4.6-4.5-4.8c-3.2-0.1-6.3-0.4-9.5-0.5c-0.1,0.8-0.2,1.4-0.3,2
		c-0.6,7.7-1.4,15.5-1.8,23.2c-0.1,2.1-1.1,2.7-2.8,2.7c-1.4,0-2.9-0.3-4.3-0.6c-1.5-0.3-2-1.2-1.8-2.7c0.6-4.4,1-8.8,1.5-13.2
		c0.5-4,0.9-8.1,1.4-12.2c-4.8-0.7-9.3-1.5-14-2.2c-0.2,0.6-0.4,1-0.4,1.5c-1.3,7.2-2.6,14.3-3.9,21.5c-1,5.8-0.1,7.5,5.5,9.8
		c0.9,0.4,1.8,0.8,2.7,1c5.4,1,10.9,2.1,16.4,2.8C251.4,398.8,256.5,399,261.7,399.4z M171,379.1c3.2-8,6.2-15.6,9.3-23.1
		c1.1-2.5,0.6-4.7-1.3-6.4c-1.6-1.5-3.3-3-5.2-4c-5.1-2.8-10.3-5.3-15.6-7.8c-1.7-0.8-3.5-1.3-5.4-1.6c-4.2-0.8-6.1,0.3-7.6,4.7
		c4.2,2.4,8.4,4.8,12.9,7.4c0.5-1,0.9-1.7,1.3-2.4c1.1-1.9,2.6-1,3.8-0.3c1.6,0.8,4.3,1.1,3.7,3.7c-0.6,2.4-2,4.6-3.2,7.1
		c-2-1-3.8-2-5.6-2.8c-4.4-1.9-8.8-4-13.4-5.6c-2.9-1-3.9-0.4-5.4,2.3c-0.6,1.1-1.2,2.2-2,3.2c-1.4,2-1.2,4,0.2,5.8
		c1.4,1.7,2.8,3.6,4.6,4.7c5,3.2,10.1,6.2,15.4,9.1C161.8,375.1,166.3,376.9,171,379.1z M290.1,374.8c4.5-0.6,9.1-1.1,13.6-1.7
		c0.4-0.1,0.9-0.9,0.9-1.4c-0.3-4.3-2-6.1-6.4-6.8c-6.8-1-13.6-0.3-20.3,0.6c-2.5,0.3-4.9,1-7.2,1.8c-3.2,1.1-4.2,2.8-4.2,6.2
		c0,1.1,0,2.2,0,3.3c0,4,0.8,5.3,4.8,5.9c4.6,0.7,9.2,0.9,13.9,0.9c5.5,0,5.5-0.2,6.1,5.3c0.5,4.2,0.1,4.6-4.1,4.8
		c-0.2,0-0.4,0-0.6,0c-3.5,0.1-3.8-0.2-4.1-3.5c0-0.4-0.2-0.8-0.2-1c-5.3,0-10.4,0-15.4,0c-0.8,5,0.4,7,4.9,8.5
		c0.7,0.2,1.3,0.4,2,0.5c8.2,1.5,16.5,1.1,24.6-0.8c2.4-0.6,4.8-1.7,7.1-2.9c2-1.1,2.7-3,2.2-5.3c-0.3-1.6-0.6-3.1-0.7-4.7
		c-0.2-2.5-1.6-3.9-3.9-4.1c-3.3-0.4-6.6-0.5-9.9-0.6c-3,0-6,0.2-8.9,0.3c-1.5,0-2.3-0.7-2.3-2.3c-0.1-1.7-0.3-3.5-0.2-5.2
		c0-0.7,0.6-1.9,1-1.9c2-0.3,4.2-0.6,6.1-0.2c0.7,0.2,0.9,2.4,1.3,3.7C289.8,374.3,289.8,374.4,290.1,374.8z M339.6,413.5
		c-4.6,1.7-8.9,3.4-13.4,5.1c4.2,12.6,8.4,25,12.7,37.6c5.4-1.9,10.4-3.8,15.7-5.6C349.5,438.1,344.6,425.9,339.6,413.5z
		 M84.6,313.1c-5.3,2.6-9.7,5.8-11.6,11.4c-1.2,3.5-1.6,7.7,1.9,10.3C78.2,327.6,81.4,320.3,84.6,313.1z M335.9,404.3
		c-4.4,1.7-8.6,3.3-12.8,4.9c0.7,2,1.3,3.7,1.9,5.7c4.5-1.7,8.8-3.4,13.1-5C337.3,407.8,336.6,406.1,335.9,404.3z"/>
	<path class="st0" d="M186.5,63.9c-2.3-0.6-4.5-1.1-7-1.7c0.6-2.5,1.1-4.8,1.7-7.4c-2.1-0.6-4.2-1.1-6.5-1.7
		c0.6-2.5,1.2-4.9,1.8-7.5c5.5,1.3,10.9,2.6,16.3,3.9c10.3,2.5,20.6,5,31,7.4c1,0.2,2.4-0.1,3.2-0.6c3.3-2.4,6.3-5.2,9.7-7.4
		c4.4-2.9,9.1-5.4,13.6-8c0.6-0.4,1.4-0.5,2.1-0.8c1.8,3.1,2.7,3.3,7.1,1.8c4-1.4,8-2.6,12.1-3.8c0.8-0.2,1.9-0.4,2.4,0
		c3,2.1,6.1,1.3,9.4,0.9c3.7-0.5,7.4-0.7,11.1-0.7c5.8,0.1,11.6,0.3,17.1,2.5c2.1,0.8,4.1,2.2,5.9,3.6c1.3,1,2.5,1.7,4.2,1.8
		c4.4,0.2,8.3,1.9,11.8,4.4c6.3,4.4,13.7,5.7,20.7,8.2c4.4,1.5,7.2,3.3,8.6,5.8c-0.3,0.4-0.7,0.7-1.1,1.2c-0.9,1.1-0.8,2,0.6,2.6
		c7.3,3.3,13.5,8.1,19.6,13.1c3,2.5,5.4,5.8,8,8.7c0.5,0.6,0.9,1.3,1.4,1.8c5.3,4.9,8.3,11.4,12.3,17.2c1,1.5,1.7,2.9-0.3,4.4
		c-1.4,1-1,2.6,0.1,4c4.4,6.1,9.1,12.2,10.6,19.8c0.6,2.8,0.5,5.7,1.1,8.4c1.6,8.6,3.3,17.1,5,25.7c0.9,4.4,1.8,8.8,2.9,13.2
		c0.6,2.2,1.5,4.4,2.3,6.6c-0.2,0.1-0.3,0.2-0.5,0.3c-1.6-1.1-3.1-2.2-4.7-3.1c-1.2-0.7-2.6-1.2-3.9-0.1c-1.4,1.2-1.5,2.7-1.1,4.3
		c0.9,4.2,2.1,8.3,2.5,12.6c0.7,7.6,1.5,15.2,0.2,22.8c-0.5,3.2-1.5,6.3-2.5,9.4c-1.9,6.3-1.7,12.4,0.8,18.5c2.9,7.1,2.9,14.3-1,21
		c-2.6,4.3-4.2,9-5.7,13.7c-1.7,5.2-3.8,10.3-5.2,15.6c-1.3,5-1.4,10.4-3.2,15.2c-2.3,6.1-0.1,11.9-0.4,17.8
		c-0.1,1.7-0.1,3.3-1.6,4.5c-4.2,3.3-4.7,7.7-2.8,12.3c3.3,7.8,4.5,16,5.7,24.2c0.6,4.7-0.4,9.6-0.8,14.5c-0.2,3.4-0.5,6.9-0.8,10.3
		c-0.3,4.5-0.5,8.9-0.8,13.4c-0.3,0.1-0.6,0.1-0.9,0.2c-0.8-1.8-1.7-3.6-2.5-5.5c-2.1-5.2-3.9-10.5-6.3-15.6
		c-1.1-2.4-3.3-4.4-4.9-6.6c-0.8-1.1-1.6-2.3-2.4-3.4c0.2-0.2,0.4-0.3,0.6-0.5c0.5,0.4,1,0.8,1.4,1.2c1,0.9,1.8,1.9,2.9,2.6
		c3.5,2.3,7,0.6,7.1-3.6c0-6.1-0.2-12.2-0.4-18.3c0-1.9,0.1-3.8-0.2-5.6c-0.2-1.5-0.5-3-1.2-4.3c-1-1.9-2.8-2-3.9-0.1
		c-0.8,1.3-1,3-1.3,4.5c-0.3,1.3-0.5,2.7-1.1,4c-1-3.3-1.9-6.6-3-9.9c-0.5-1.6-1.1-3.3-2-4.8c-1-1.8-2-1.8-3-0.1
		c-2.2,4-4.2,8.1-6.3,12.1c-0.7,1.4-1.2,2.8-2.3,4.1c-0.5-2.1-0.8-4.3-1.5-6.4c-1.4-4.5-2.7-9-4.4-13.4c-1.1-2.8-3-5.3-4.8-7.7
		c-1.3-1.8-2.9-1.5-3.7,0.6c-0.7,2-1.3,4.1-2,6.1c-0.3,1-0.6,1.9-1,2.9c-0.2,0-0.4,0-0.6,0c-0.1-0.6-0.3-1.2-0.3-1.8
		c-0.1-11.5-2.6-22.4-7.1-32.9c-1.1-2.4-1.9-2.7-4-1.1c-3,2.3-5.1,5.2-6.7,8.6c-0.2,0.5-0.8,0.9-1.3,1.4c-0.4-0.6-1-1.1-1.1-1.8
		c-2.3-8.5-4.5-17-6.8-25.5c-0.3-1-0.9-2-1.5-2.9c-0.4-0.6-1.3-1.6-1.7-1.5c-0.8,0.2-1.7,1-2.1,1.7c-0.7,1.4-0.9,2.9-1.4,4.3
		c-0.2,0.6-0.4,1.3-0.5,1.9c-0.2,0-0.4,0-0.6,0.1c-0.4-1.3-1-2.7-1.1-4c-0.1-2-0.6-3.6-2.1-5c-1.6-1.5-3.1-3.2-4.7-4.7
		c-2.5-2.1-6.8-1.4-8.8,1.5c-2.6,3.9-5.1,7.9-7.7,11.8c-1.8,2.6-3.7,5.1-5.9,8.3c-0.4-1.6-0.7-2.6-0.8-3.6
		c-0.5-5.1-0.9-10.2-1.4-15.3c-0.1-0.8-0.2-1.8-0.7-2.4c-0.7-0.8-1.7-1.5-2.7-1.7c-0.7-0.1-1.9,0.6-2.2,1.3c-1,2.8-1.7,5.7-2.6,8.5
		c-0.4,1.4-0.8,2.8-1.7,4c-0.7-3.5-1.3-7.1-2.3-10.6c-0.5-1.9-1.5-3.7-2.5-5.4c-0.3-0.6-1.3-0.8-2-1.3c-0.4,0.7-0.9,1.3-1.1,2.1
		c-0.6,2-1.1,4.1-1.7,6.2c-0.2,0.6-0.6,1.2-1.2,2.4c-0.8-2-1.5-3.3-2-4.8c-2-6.6-5.9-12.1-10.3-17.2c-2-2.3-3.7-2.7-6.2-1.1
		c-3,1.9-5.9,3.9-8.4,6.4c-3,2.9-5.7,6.2-8.1,9.6c-1.9,2.7-3.2,5.8-4.8,8.7c-0.1,0.2-0.3,0.3-0.8,0.9c-0.9-2.4-1.9-4.5-2.5-6.7
		c-1.2-4.2-2.2-8.4-1.6-12.9c0.3-1.7-0.8-2.7-2.6-2.7c-6.6-0.2-11.7,4.4-12.4,10.9c-0.3,3.1-1.1,6.1-1.7,9.2
		c-0.1,0.4-0.4,0.8-0.9,1.6c-0.8-1.2-1.5-2.1-2-3.1c-1.5-3.3-3-6.5-4.3-9.9c-0.7-2-1-4.2-1.4-6.3c-0.1-0.5-0.1-1-0.3-1.4
		c-1.7-4.3-0.9-4.8-6.1-5c-3.1-0.1-3.4-0.5-3.8-3.5c-0.2-1.8-0.6-3.6-0.9-5.3c-0.6-3.9-4.6-5.7-8-3.7c-2.2,1.2-4.2,2.6-6.5,3.7
		c-2.6,1.2-3,0.9-3-1.9c0-0.6,0.2-1.2,0-1.6c-0.4-0.9-0.8-2-1.6-2.5c-0.4-0.3-1.6,0.3-2.3,0.8c-2.6,2.1-5.1,4.3-8.1,6.8
		c0-3.2,0-5.7,0-8.1c0-3.6-0.5-4-4-3.3c-10.3,2-20,5.6-29,11c-3.1,1.8-5.5,4.8-8.2,7.3c-2.4,2.3-4.8,4.6-7.1,7
		c-2.2,2.2-2.3,5.3-0.4,7.8c0.4,0.6,0.8,1.2,1.7,2.5c-3,0-5.4-0.1-7.7,0c-0.9,0-1.8,0.6-2.7,0.9c0.5,0.8,0.8,1.9,1.5,2.5
		c1.5,1.5,3.2,2.8,5.1,4.5c-3.9,1.8-7.1,3-10.1,4.6c-4.9,2.7-10.1,5.1-14.5,8.5c-6.2,4.8-10.5,11.2-10.7,19.5c-0.1,5,0,10-0.1,15
		c0,0.6-0.4,1.5-0.9,1.8c-6.6,2.9-13.3,5.8-20,8.6c-0.2,0.1-0.4,0.1-0.9,0.1c1.3-3.8,2.6-7.5,3.8-11.1c4.5-13.7,11.7-25.8,21-36.8
		c4.1-4.8,9.1-8.7,14.3-12.3c2.7-1.9,2.8-2.2,0.6-4.6c-0.8-1-1.9-1.7-3.1-2.6c2.7-0.8,5.3-1.5,8-2.3c0.9-0.3,1.9-0.5,2.8-0.8
		c3.5-1.2,3.8-1.5,3.3-5.2c-0.2-1.7,0.4-2.8,1.4-4.1c5.4-6.5,11.8-12,18.9-16.5c4.9-3.1,10.5-5.2,16-7.5c7.8-3.3,16.2-3.3,24.6-3.4
		c2.5,0,5,0.2,7.5,0c2-0.2,4.1-0.5,5.8-1.5c6-3.3,12-6.6,17.8-10.3c3.7-2.4,7.1-5.2,10.5-8.1c1.5-1.2,2.6-2.9,3.6-4.5
		c1.8-2.8,3.8-5,7.1-6.1c3.9-1.3,6.6-4.2,9.6-6.8c1.4-1.3,3.1-2.5,4.1-4.1c2.5-4.1,5.9-7.8,5-13.5c-0.6-4,0.2-8.1,0.4-12.2
		c0.1-1.4,0.3-2.8,0.3-4.1c0.1-2.2-1.1-3.6-3.2-3.4c-2,0.1-3-0.7-3.9-2.3c-3.2-5.7-8.1-9.7-13.5-13c-2.6-1.6-5.6-2.6-8.4-4
		c-1.5-0.7-3-1.4-4.4-2.3c-4.1-2.8-8.9-2.5-13.5-2.5c-3.2,0-4.9,1.9-5.3,5.3c-0.7,5.8-1.4,11.5-2,17.3c-0.2,1.7,0,3.4,0,5.1
		c-0.2,0-0.4,0.1-0.7,0.1c-0.6-0.8-1.3-1.5-1.8-2.4c-4.3-7.3-8.7-14.7-13-22c-6-10.4-7.2-21.5-5.6-33.2c1-7.2,3.3-13.9,7.7-19.7
		c5.6-7.3,12.4-13,21.5-15.5c2.3-0.6,4.5-1.5,6.7-2.4c0.6-0.2,1.2-0.9,1.4-1.5c0.6-1.7,0.9-3.5,1.3-5.2l-0.1,0
		c2.1,0.4,4.3,0.8,6.6,1.3c0.6-2.5,1.2-4.8,1.8-7.3c-2.3-0.6-4.3-1.1-6.5-1.7c0.6-2.6,1.1-4.9,1.7-7.5c-2.2-0.5-4.2-1-6.5-1.6
		C187.6,59,187,61.5,186.5,63.9L186.5,63.9z M270.3,84.6c0.7-2.6,1.4-5.2,2.1-7.9c-2.3-0.6-4.4-1-6.6-1.6c-0.6,2.6-1.2,5-1.7,7.5
		c1.1,0.3,1.8,0.4,2.5,0.6C267.9,83.6,269.1,84.1,270.3,84.6c-0.5,2.3-0.9,4.6-1.4,7.1c2.2,0.5,4.3,1,6.4,1.5c0.6-2.6,1.2-5,1.8-7.7
		C274.7,85.2,272.5,84.9,270.3,84.6z M370.2,294.9c-0.2,0-0.4,0-0.6,0c-0.3,0.5-0.9,1.1-1,1.6c-0.6,3.2-1.1,6.4-1.6,9.6
		c-0.6,3.8-1.2,7.6-1.9,11.5c-0.1,0.4-0.6,0.8-1,1.2c-0.4-0.4-0.9-0.7-1.2-1.2c-0.3-0.5-0.3-1.2-0.3-1.8c-0.3-5.1-0.6-10.2-1-15.3
		c-0.3-4.1-0.8-8.1-1.3-12.2c-0.1-0.6-0.4-1.2-0.6-1.8c-0.3-0.1-0.5-0.1-0.8-0.2c-1.1,2.6-2.5,5-3.2,7.7c-1.1,4.2-1.8,8.5-2.7,12.7
		c-1.3,6.1-0.8,11.9,2.8,17.3c3.5,5.4,6.8,10.9,10.3,16.3c1.1,1.8,2.3,3.5,3.5,5.3c0.2,0,0.5-0.1,0.8-0.1c0.2-1,0.5-2,0.6-3
		c0.2-4.8,0.2-9.7,0.4-14.5c0-0.6,0.3-1.7,0.6-1.8c0.6-0.1,1.6,0.1,2,0.5c1.2,1,2.2,2.3,3.3,3.4c1.8,2,3.8,3.7,6.7,4.4
		c1.5-3.1,2.5-6.1,2.4-9.5c-0.2-4.7-0.4-9.4-0.4-14.1c0-1.1,0.5-2.3,0.8-3.4c0.8,0.9,1.8,1.8,2.4,2.8c1.3,2.2,2.3,4.5,3.6,7.1
		c0.7-0.9,1.2-1.4,1.5-2c1.5-3.2,3.1-6.3,4.5-9.6c3-7.1,2.4-14.2,0.1-21.3c-0.8-2.4-2.4-4.5-3.4-6.9c-0.3-0.8,0-1.9,0.1-2.8
		c0.8,0.3,1.8,0.3,2.5,0.8c1.9,1.4,3.6,3.1,5.5,4.5c1.9,1.4,3.2,1.2,4.6-0.8c1.1-1.7,2-3.5,2.9-5.3c2.6-5.2,3.2-10.6,1.7-16.1
		c-0.4-1.4-1.5-3.3-2.7-3.7c-1.8-0.5-2.2,1.8-3.1,3c-0.7,1.1-1.7,2-2.7,2.8c-0.4,0.4-1.2,0.3-1.8,0.5c-0.1-0.4-0.1-0.6-0.1-0.7
		c2.9-7.7,4.4-15.3,0.1-23.1c-0.5-0.9-0.2-3.1,0.4-3.5c1.5-0.9,2.6,0.5,3.5,1.7c1,1.4,1.9,2.7,2.9,4.1c0.2,0,0.5-0.1,0.7-0.1
		c0.5-1.5,1.3-3,1.6-4.6c0.6-3.1,1.2-6.3,1.4-9.4c0.8-9.8,0.8-19.7-1.3-29.4c-1.1-5-2.6-9.9-3.9-14.9c-0.6-2.2-0.2-3,2.1-2.8
		c1.5,0.1,3.1,0.7,4.6,1.1c2.3,0.7,3.1,0.1,2.7-2.1c-1.3-6.4-2.6-12.8-4.1-19.1c-1.4-5.8-2.7-11.6-4.8-17.2
		c-2.6-6.9-5.8-13.6-8.9-20.4c-1.1-2.3-2.6-4.6-4.4-6.5c-1.1-1.2-3-1.7-4.4-2.7c-0.6-0.4-1.2-1.4-1.2-2.1c0-0.6,0.8-1.5,1.4-1.7
		c1.1-0.4,2.3-0.3,3.4-0.5c0.6-0.1,1.2-0.4,1.9-0.6c-0.3-0.6-0.4-1.3-0.8-1.8c-3.4-4.1-6.7-8.3-10.2-12.3
		c-10-11.3-21.2-21-36.3-24.8c-0.8-0.2-1.4-1.2-2.1-1.8c0.9-0.6,1.7-1.4,2.7-1.9c0.9-0.4,2-0.4,3.1-0.6c0-0.2,0.1-0.4,0.1-0.7
		c-0.7-0.4-1.3-0.9-2-1.1c-4.7-1.3-9.4-2.4-14-3.8c-2.7-0.8-6.3-0.5-7.4-4.2c0-0.1-0.2-0.2-0.3-0.3c-3.2-2.7-6.6-4-10.9-3.4
		c-3.9,0.5-7.7,0.3-11.5-1.8c-5.3-3-11-4.7-17.3-4.2c-4.6,0.4-9.1,1-13.3,2.9c-1.4,0.6-2.7,0.5-2.9-1.5c-0.2-2-1.6-2.6-3.2-2.5
		c-2,0.2-4.1,0.5-5.8,1.4c-3.9,1.8-7.6,4-11.3,6.1c-2.2,1.2-3,0.9-3.1-1.6c0-0.6-0.2-1.1-0.3-1.8c-6.7,3.3-12.9,6.8-18,12.4
		c40.4,9.8,80.5,19.4,120.7,29.2c-0.7,2.6-1.3,5-1.9,7.5c-12.9-3.1-25.6-6.2-38.3-9.2c-0.7,2.7-1.3,5-1.9,7.4
		c-2.3-0.5-4.3-1-6.5-1.4c-0.6,2.6-1.2,4.9-1.9,7.4c-2.2-0.5-4.3-0.9-6.5-1.4c-0.6,2.5-1.2,4.9-1.8,7.4c-13.1-3.2-26.1-6.3-39.2-9.5
		c0.6-2.6,1.1-5,1.7-7.5c-2.1-0.5-4.1-1-6.1-1.6c0.6-2.6,1.2-4.9,1.8-7.5c2.2,0.5,4.3,1,6.5,1.6c-0.6,2.6-1.1,5-1.7,7.5
		c2.2,0.5,4.2,1,6.4,1.5c0.6-2.5,1.2-4.9,1.8-7.4c-2.3-0.6-4.3-1.1-6.5-1.7c0.6-2.6,1.2-4.9,1.8-7.5c-2.2-0.5-4.3-1-6.5-1.5
		c-0.7,2.6-1.3,4.9-1.9,7.4c-2.2-0.5-4.2-1-6.5-1.6c0.6-2.6,1.1-5,1.7-7.5c-4.4-1-8.5-2-12.7-3c-0.7,2.6-1.3,5-1.9,7.4
		c-2.3-0.5-4.4-1-6.5-1.4c-0.7,2.6-1.2,4.9-1.9,7.4c-1.8-0.4-3.5-0.8-5.2-1.3c-1.2-0.3-1.8-0.1-2,1.2c-0.4,1.9-0.9,3.9-1.4,5.9
		c-0.7-0.1-1.2-0.2-1.6-0.3c-4.6-0.9-9.2-1.9-13.9-2.6c-5.5-0.7-10.5,1.6-15.4,3.6c-8,3.2-14.9,7.9-19.1,15.7
		c-3.6,6.6-5.7,13.8-5.8,21.5c0,4.5-0.3,9.1,0.8,13.4c1.6,6.2,4.3,12.1,6.6,18.2c0.4,1,1.3,1.8,2.2,3c0.3-0.8,0.5-1.1,0.6-1.4
		c1.4-6.2,3.1-12.3,6.7-17.8c4-6.2,9.2-10.9,16.2-13.2c4-1.3,8.1-2.3,12.3-3c4.3-0.7,8.6-1.4,13-1.3c6.5,0.1,12.9,1.2,19.4,1.4
		c5.7,0.2,11.3-0.3,17-0.5c3.5-0.1,7-1,10.3-0.4c6.9,1.3,13.7,3.3,20.5,5.2c0.5,0.1,1.3,1.1,1.2,1.6c-0.1,0.7-0.8,1.6-1.4,1.8
		c-1.1,0.3-2.5,0.4-3.7,0.3c-2.3-0.2-4.5-0.8-6.8-0.9c-7.1-0.5-14.2-1.2-21.3-1.4c-11.7-0.3-23.4-0.4-35.2-0.4
		c-6.8,0-13.1,2.1-19.1,5.2c-1.1,0.6-2,1.5-2.9,2.3c0.1,0.2,0.2,0.5,0.3,0.7c1.2,0,2.4,0.1,3.6,0c14.8-0.7,29.6-0.3,44.3,2.5
		c4.4,0.8,9,1.3,13.3-0.6c3.6-1.6,6.4-0.6,9,2c1.1,1.1,2.1,2.2,3.4,3.1c1.8,1.2,3.2,0.4,3.3-1.7c0-0.8,0-1.5,0-2.3
		c0.1-2.4,0.9-3.3,3.3-2.5c2,0.6,3.8,1.9,5.7,2.8c1.6,0.8,3.2,2.1,4.9,2.5c10.4,2.1,20.9,4,31.3,6.1c1,0.2,2,1.5,2.5,2.6
		c0.2,0.3-1.1,1.9-2,2.1c-2.9,0.7-5.9,1.2-8.9,1.7c-1.2,0.2-2.4,0.3-3.6,0.5c-0.1,0.2-0.1,0.5-0.2,0.7c1.1,0.6,2.2,1.5,3.4,1.9
		c5,1.6,9.8,4,15.3,2.6c1.3-0.3,1.8,0.6,1.7,1.9c-0.1,1.7-1.1,2.4-3.2,2.4c-5.5-0.1-11.1-0.1-16.6-0.2c-1,0-2,0.1-3.6,0.3
		c2.5,3,5,4.7,8.4,4.9c3.5,0.2,7.1,0.2,10.6,0.4c0.7,0,1.4,0.8,2,1.2c-0.6,0.7-1,1.6-1.8,1.9c-1.2,0.5-2.6,0.5-3.8,0.9
		c-1.5,0.5-3.5,0.8-4.4,2c-1.7,2.1-3.6,2.6-5.9,2c-2.3-0.6-4.4-1.7-6.6-2.7c-1.7-0.8-3.1-0.5-3.3,1.3c-0.2,1.1,0.4,2.3,0.8,3.4
		c0.3,0.7,1.1,1.3,1.3,2.1c1.4,4.3,1.6,8.7,1.2,13.1c0,0.5-0.8,1.3-1.2,1.3c-0.8,0-2.2-0.2-2.4-0.7c-1.1-2.7-3.5-3.7-5.9-4.6
		c-9.1-3.6-18.5-5.6-28.2-6c-1.5-0.1-2.2,0.9-2.4,2.3c-0.4,2.6,1.1,4.3,2.8,5.9c0.9,0.8,1.5,0.7,2.5,0.2c1-0.6,2.6-1.1,3.5-0.7
		c0.8,0.3,1.4,2,1.4,3.1c0,5.9-0.3,11.8-0.3,17.7c0,3.6,1,6.9,4,9.4c2.6,2.1,5,4.4,7.4,6.6c0.5,0.5,1.1,1.2,1.1,1.9
		c0,6.5,0,13-0.3,19.5c0,1-1.5,2.2-2.7,2.7c-0.4,0.2-1.7-1.2-2.4-1.9c-0.4-0.4-0.5-1.1-0.7-1.7c-1-2.5-1.9-5-3.1-7.5
		c-1.8-4-3.9-8-5.7-12c-0.9-2.1-0.6-2.4,1.6-2.9c1.6-0.3,1.9-1.2,0.9-2.5c-1.1-1.3-2.2-2.7-3.4-3.9c-0.7-0.6-1.9-0.8-2.8-1.1
		c-0.4,1.2-1.3,2.3-1.2,3.5c0.1,1.5,1.1,2.8,1.4,4.3c0.2,1.3,0.5,3.4-0.2,4c-1.5,1.2-2.3-0.8-3.2-1.7c-1.9-2.1-3.6-4.4-5.7-6.3
		c-1-1-2.4-1.5-3.8-2c-1.1-0.4-2.1,0.1-2.2,1.5c-0.2,2.2-0.6,4.4-0.7,6.6c-0.1,2.7,0,5.4-0.1,8.1c0,0.9-0.4,2.2-1,2.4
		c-0.8,0.3-2.1,0-2.8-0.6c-1.9-1.3-3.6-2.8-5.3-4.3c-2-1.8-4-3.6-4.9-6.4c-0.2-0.7-1-1.6-1.6-1.6c-0.6,0-1.4,0.7-1.9,1.4
		c-1.3,1.9-2.3,4.1-3.8,5.9c-0.7,0.8-2.2,1.4-3.3,1.4c-1.4,0-1.7-1.3-1.7-2.6c0-0.3-0.1-0.6-0.2-1.3c-0.8,0.6-1.5,1-2,1.4
		c-1.6,1.5-3.3,2.8-4.6,4.5c-2.1,2.9-3.9,6-5.9,9c-0.4,0.6-1.3,1.5-1.6,1.4c-0.7-0.2-1.3-1-1.7-1.7c-0.4-0.9-0.4-1.9-0.6-2.8
		c-0.5-1.5-1.5-2.4-3.1-2c-1.4,0.4-2.7,0.9-4.1,1.5c-2.4,1.1-3.8,0.9-5.7-0.8c-0.7-0.6-1.7-1.2-2.1-2c-1.4-2.6-3.5-1.9-5.5-1.3
		c-1.4,0.4-2.9,0.7-4.1,1.4c-0.9,0.5-1.8,1.5-2.2,2.5c-0.2,0.4,0.8,1.6,1.6,2c1.9,1.3,4,2.5,6,3.6c2.4,1.3,5.2,0.4,6.6-2
		c0.1-0.2,0.2-0.4,0.3-0.5c1.2-1.7,3.2-2,5.9-1.2c1.9,0.6,1.7,2.1,1.5,3.4c-0.1,1.7-0.6,3.4-1,5.2c0.2-0.1,0.6-0.2,0.9-0.4
		c1.8-0.8,2.8-0.1,2.7,1.9c0,0.6-0.1,1.1-0.2,1.6c-1,3.6-2.1,7.1-3.1,10.7c-0.3,1-0.5,1.9-0.7,2.9c0.9-0.7,1.5-1.5,2-2.4
		c1.8-2.8,4.2-4.4,7.5-4.4c0.9,0,1.8-0.1,2.7,0c1.6,0.1,2.8-0.7,3.2-2.1c0.5-1.8,1-3.8,0.9-5.7c-0.4-5.5,2-13.4,7.9-15.8
		c1.6-0.7,3.5-1.9,5-0.4c1.5,1.5,1,3.6,0.2,5.5c-0.1,0.3-0.3,0.5-0.4,0.7c-1,1.8-2,3.6-3,5.4c-1.1,2-1.1,4-0.6,6.6
		c1.3-1.6,2.1-2.9,3.2-4c0.6-0.6,1.7-0.9,2.5-1.3c0.3,1,0.8,1.9,0.9,2.9c0.1,0.5-0.4,1.2-0.5,1.8c-0.4,1.7-0.9,3.5-1.1,5.2
		c-0.2,2.2-0.1,4.4-0.2,6.7c0,0.6,0.1,1.1,0.2,2.3c1.1-1.4,1.9-2.3,2.6-3.2c4-4.9,8-9.9,12.1-14.8c2.3-2.8,4.2-2.9,6.2,0.1
		c3.2,4.8,6.1,9.9,9.2,14.8c0.3,0.5,0.6,0.9,1.3,1.8c0.3-1.5,0.5-2.4,0.6-3.2c0.3-3.4,0.6-6.9,1-10.3c0.1-0.8,0.6-1.9,1.2-2.1
		c0.6-0.2,1.8,0.2,2.3,0.8c1.2,1.4,2.5,2.9,3.2,4.5c1.9,4.4,3.6,9,5.3,13.5c0.2,0.5,0.6,0.9,1,1.5c0.5-1.7,0.8-3.1,1.3-4.4
		c1.3-3.1,3.5-3.6,5.7-1.1c1.7,2,2.9,4.4,4.3,6.6c0.5,0.7,1,1.5,1.5,2.2c0.5-0.5,0.6-0.8,0.6-1.1c0.2-7.4,0.4-14.8,0.6-22.2
		c0-0.9,0-1.8,0.3-2.7c0.1-0.5,0.6-1.2,1-1.2c0.5,0,1.1,0.4,1.5,0.8c0.3,0.3,0.5,0.8,0.6,1.3c2.5,7.5,3.9,15.3,4.1,23.2
		c0,0.5,0.1,1.1,0.1,1.6c2-2.7,3.7-5.4,5-8.3c1.9-4.3,3-8.9,3.4-13.6c0.1-1.1,0.6-2.3,1-3.4c0.2-0.4,0.8-0.6,1.3-0.7
		c0.1,0,0.6,0.5,0.7,0.8c0.4,2.3,0.9,4.6,1.1,7c0.2,1.7,0.6,2.7,2.6,2.3c2.6-0.5,4.6,0.6,5.6,3c1.2,2.8,2.1,5.6,3.2,9
		c0.2-0.4,0.4-0.9,0.7-1.3c2.6-3.5,3.6-7.4,3.8-11.7c0.1-2.9,0.4-5.8,0.7-8.7c0.1-0.5,0.7-0.9,1.1-1.4c0.4,0.4,1.1,0.7,1.3,1.2
		c0.6,1.9,1.2,3.9,1.4,5.8c0.4,7-0.3,14-2.3,20.7c-1.2,3.9,0.9,9.9,3.9,12.6c1,0.9,1.3,2.6,2,3.9c0.6,1.3,1.4,2.5,2,3.7
		c0.7-1.2,1.8-2.3,1.9-3.5c0.5-5.1,0.7-10.2,1-15.3c0.2-3.6,0.4-7.2,0.7-10.8c0.1-0.7,0.7-1.3,1.1-2c0.6,0.4,1.2,0.8,1.6,1.4
		c0.7,0.8,1.2,1.8,1.9,2.9c2.5-2.3,2.5-5,2.4-7.7c-0.1-1.9-0.4-3.9-0.4-5.8c0-0.6,0.6-1.6,1.1-1.8c0.4-0.2,1.4,0.4,1.8,0.9
		c1.5,2.1,2.7,4.4,4.2,6.4c1.1,1.5,0.9,2.7,0,4.2c-1.9,3.3-3.9,6.6-5.7,9.9c-3.9,7.2-2.7,15.1-2.8,22.8c0,0.6,0.7,1.7,1.1,1.7
		c0.8,0.1,1.7-0.4,2.4-0.9c0.5-0.4,0.8-1.1,1-1.8c2.3-8.1,4.7-16.2,4.7-24.8c0-2.9,1.2-5.2,4.1-6.1c2.3-0.7,3.8-2.2,4.9-4.2
		c0.5-1,0.9-2.1,1.6-2.9c0.5-0.6,1.5-0.9,2.2-0.9c0.3,0,0.8,1.2,0.8,1.8c0,1.2-0.3,2.3-0.5,3.5c-0.7,3.5-0.6,6.9-0.2,10.9
		c1-0.7,1.7-1,2.2-1.5c1.2-1.6,2.3-3.3,3.5-4.8c0.5-0.7,1.4-1.1,2.1-1.6c0.4,0.8,1,1.6,1.1,2.4c0.1,6.9,0.1,13.7,0,20.6
		c0,3.3-0.1,6.7-0.4,10c-0.1,0.8-0.8,1.5-1.2,2.3c-0.6-0.6-1.4-1.1-1.9-1.9c-0.4-0.7-0.5-1.6-0.7-2.4
		C371.4,299.1,370.8,297,370.2,294.9z M283.2,160.2c0.1-0.2,0.1-0.4,0.2-0.6c0.8,0,1.6,0.2,2.3,0c0.9-0.3,2.3-0.7,2.5-1.3
		c0.2-0.7-0.5-1.9-1.2-2.6c-1.7-1.8-3.8-2.6-6.4-2.5c-2.4,0.2-4.8,0.1-7.3,0.3c-0.7,0.1-1.8,0.8-1.8,1.2c0,0.7,0.6,1.8,1.2,2
		C276.1,158,279.7,159.1,283.2,160.2z M203,230.6c0.1,0.3,0.2,0.6,0.4,1c0.8,0.1,1.7,0.4,2.4,0.1c5.1-1.7,9.4-4.9,13.7-8
		c0.5-0.4,0.4-1.5,0.6-2.3c-0.8-0.1-1.7-0.5-2.3-0.2c-4.4,2.6-8.7,5.4-13,8.1C204.2,229.7,203.6,230.1,203,230.6z M250.7,202.8
		c1.7,4.3,3.2,8.4,5,12.4c0.6,1.3,1.4,0.5,1.9-0.4c2.4-4.4-0.7-11.1-5.5-12.2C251.9,202.5,251.5,202.7,250.7,202.8z M284.2,171.3
		c0.1-4.1-3.4-7.6-7.1-7.6c-0.5,0-1.2,0.4-1.5,0.8c-0.2,0.3,0.1,1,0.4,1.4c1.7,2.4,3.3,4.9,5.1,7.2c0.3,0.5,1.1,1,1.6,0.9
		c0.5-0.1,1-0.8,1.2-1.4C284.2,172.3,284.2,171.6,284.2,171.3z M238.4,174.7c0.4-3.5-2.5-4.4-4.4-5.9c-0.5-0.4-1.6-0.3-2.4-0.4
		c0.2,0.8,0.2,1.7,0.6,2.3c1.6,1.9,2.2,3.9,1.8,6.4c-0.1,0.9,0,1.9,0.2,2.9c0.1,0.5,0.7,1.4,0.9,1.3c0.6-0.1,1.4-0.5,1.6-1
		C237.4,178.4,237.8,176.6,238.4,174.7z M53.2,343.9c1.6-0.6,2.9-1.1,4.1-1.7c0.5-0.2,1-0.8,1.1-1.3c0.5-2.8,1-5.6,1.3-8.4
		c0.1-0.5-0.4-1.4-0.8-1.4c-0.5-0.1-1.4,0.2-1.7,0.6c-0.5,0.6-0.8,1.4-1.1,2.2C55.2,337.1,54.3,340.3,53.2,343.9z M211.5,154.6
		c0.8-2.6-2-7.8-4.2-8c-0.8-0.1-1.9,0.6-2.6,1.3c-0.3,0.3-0.2,1.6,0.2,1.9C207,151.5,209.2,152.9,211.5,154.6z"/>
	<path class="st0" d="M41.8,356.3C-5.8,267.9,8.6,136,111.4,60.3c106.9-78.7,255.1-52.8,329.8,52.6
		c77.2,108.8,45.2,245.4-39.1,314.6c1.2-3.2,1-6.9,3.9-9.6c35.2-33.3,58.4-73.6,67.6-121.2c13.5-70-2-133.4-46.5-189.2
		c-31-38.9-71.3-64.3-119.5-77c-37.7-9.9-75.7-10.4-113.4-0.4c-69.4,18.4-120,60.1-151.1,124.8c-18,37.5-24.4,77.4-20.3,118.9
		c2.4,24.6,8.7,48.3,18.9,70.8c0.9,2.1,1.5,4.1,0.9,6.4C42.2,352.6,42.1,354.2,41.8,356.3z"/>
	<path class="st0" d="M247.3,472.4c5.3,0,10.6,0,16.1,0c0.1,0.9,0.2,1.7,0.1,2.5c-0.1,1.8,0.7,2.7,2.5,2.9c0.3,0,0.5,0.1,0.8,0.1
		c5.5,0.4,6.3-0.4,5.9-5.8c-0.1-1.2-0.2-2.5-0.3-3.6c-2.4,0-4.7,0.2-7,0c-4.1-0.4-8.2-0.6-12.1-1.5c-4.9-1.2-6.2-3.3-6.1-8.4
		c0.1-6.5,0.4-13,0.4-19.5c0-3.3,1.4-5.7,4.4-6.5c4.1-1.1,8.4-1.8,12.6-2.3c5.7-0.7,11.4-1.1,17.2-1.6c0.5,0,1,0,1.7,0
		c0.5,3.7,1.1,7.5,1.6,11.2c1.5,10.8,3,21.7,4.5,32.5c0.7,4.7-0.4,6.8-4.9,8.6c-6.9,2.8-14.2,3-21.5,2.6c-3.5-0.2-7.1-0.7-10.4-1.7
		C247.6,480.6,246,477.5,247.3,472.4z M262.1,449.2c0.2,0,0.4,0,0.6,0c0,1.5,0,3,0,4.6c0,1.6,0.2,3.2,0.2,4.8
		c0.2,3.8,0.7,4.3,4.6,4.2c0.8,0,1.6-0.2,2.5-0.4c1.3-0.3,2-1,1.8-2.5c-0.6-7.2-1.1-14.3-1.7-21.5c-0.1-1.4-0.8-2.1-2.1-2.1
		c-1.4-0.1-2.8,0-4.1,0.2c-1.4,0.2-1.9,1-1.9,2.5C262.2,442.3,262.1,445.8,262.1,449.2z"/>
	<path class="st0" d="M226.4,467c-4.4-0.8-8.5-1.3-12.5-2.5c-3-0.9-5.9-2.3-8.6-3.9c-2.1-1.2-2.8-3.4-2.3-6c1.4-6.9,2.7-13.7,4-20.6
		c0.5-2.8,2.2-4.7,4.9-5c4.1-0.4,8.3-0.5,12.4-0.3c6.2,0.3,12.4,1,18.6,1.6c0.3,0,0.5,0.1,0.9,0.2c0.1,0.4,0.2,0.8,0.2,1.2
		c-0.5,14.4-1,28.8-1.5,43.2c-0.1,3.1-1.6,5-4.4,5.8c-1.9,0.6-3.9,1-5.9,1.1c-8.2,0.3-16.2-0.8-23.9-3.5c-1-0.4-2.1-0.8-3-1.3
		c-5.1-2.7-6-5-4.2-10.6c5.2,1,10.4,1.9,15.9,2.9c-0.1,0.8,0,1.7-0.2,2.6c-0.4,1.7,0.3,2.6,1.9,3.1c0.3,0.1,0.5,0.2,0.8,0.2
		c5.4,1.3,6.2,0.7,6.8-4.7C226.2,469.3,226.3,468.2,226.4,467z M223.7,460.7c3,0,3.3-0.3,3.6-2.9c0.6-6.3,1.2-12.7,1.8-19
		c0.3-3-0.2-3.7-3.2-4.1c-0.5-0.1-1-0.1-1.4-0.1c-2.6-0.1-3.1,0.3-3.5,2.9c-0.8,6-1.5,12.1-2.3,18.1c-0.5,3.9-0.1,4.4,3.7,5
		C223,460.6,223.6,460.7,223.7,460.7z"/>
	<path class="st0" d="M222,361c-0.8,4-1.5,7.9-2.3,11.9c-1.7,8.4-3.3,16.7-5,25.1c-0.8,3.9-2.2,5.4-6.2,5.3
		c-4.3-0.2-8.6-0.7-12.7-1.7c-6.5-1.5-12.8-3.8-18.4-7.5c-0.6-0.4-1.1-0.8-1.7-1.2c-3.2-2.8-3.5-4.9-1.2-8.9
		c5,1.8,10.1,3.7,15.2,5.6c0,0.4,0,0.8-0.1,1.1c-0.9,3-0.7,3.4,2.1,4.5c5.2,2.1,5.9,1.7,7.4-3.6c0.2-0.7,0.3-1.5,0.5-2.2
		c-3.2-1.1-6.4-1.9-9.3-3.2c-3.5-1.6-6.9-3.3-10-5.5c-3-2.1-3.3-3.9-2-7.4c1.9-5.2,3.9-10.4,5.9-15.6c1.1-2.9,2.4-4,5.6-3.9
		c2.5,0.1,5,0.3,7.4,0.8C205.3,356.5,213.5,358.7,222,361z M200.5,360.6c-0.2-0.1-0.3-0.2-0.5-0.3c-0.6,0.7-1.5,1.4-1.8,2.2
		c-1.5,4.7-2.9,9.4-4.3,14.1c-1.5,5-1.1,5.7,4.1,6.8c0.2,0,0.4,0.1,0.6,0.1c1.6,0.3,2.6-0.1,3-1.8c1.3-5.2,2.7-10.3,4.1-15.4
		c1-3.6,0.6-4.2-3-5.1C202,360.9,201.2,360.8,200.5,360.6z"/>
	<path class="st0" d="M309.4,463.8c-5.4,0.9-10.6,1.8-16.1,2.7c-2.8-18-5.5-35.8-8.3-53.7c4.4-0.8,8.5-1.6,12.9-2.5
		c1.1,5.1,2.2,10,3.4,15.2c2.3-0.5,4.4-1.2,6.6-1.5c4-0.4,8-0.8,12-0.7c2.4,0,4.3,1.5,5.1,4c3.1,9.7,6.2,19.4,9.3,29.1
		c0.1,0.3,0.1,0.7,0.1,1.3c-4.9,1.3-9.8,2.6-14.7,3.9c-1.4,0.4-1.4-0.8-1.6-1.6c-2.2-8.8-4.4-17.6-6.7-26.4c-0.3-1.2-0.2-3.3-2-3.2
		c-2.1,0.1-4.1,0.9-6,1.7c-0.4,0.2-0.3,1.9-0.1,2.9c1.9,8.9,3.8,17.8,5.7,26.6C309.1,462.1,309.2,462.8,309.4,463.8z"/>
	<path class="st0" d="M134.8,336.4c-1.4,7.1-2.7,13.9-4.1,21.1c-1.5-1-2.8-1.8-4.1-2.7c-2.5-1.7-4.8-3.6-7.3-5.1
		c-1.9-1.2-2.1-2.5-1.6-4.5c1.4-5,2.5-10.1,3.9-15.1c0.4-1.5,0.2-2.5-1.6-3.2c-3.8,4.7-7.6,9.5-11.6,14.4
		c-4.3-3.7-8.4-7.3-12.7-11.1c9.8-10.8,19.4-21.3,29.2-32.1c1.8,1.5,3.4,3,5.2,4.4c4.7,3.8,9.5,7.4,14.2,11.3
		c1.9,1.6,3.6,3.5,5.1,5.4c1.6,2,1.7,4.1,0.1,6.3c-1.9,2.8-3.7,5.7-5.5,8.6c-1.9,2.9-3.2,3.5-6.6,2.7
		C136.6,336.9,135.9,336.7,134.8,336.4z M123.1,323.1c1.9,1.3,3.6,2.6,5.4,3.8c1,0.7,2,0.6,2.8-0.6c2.1-2.9,4.2-5.8,6.4-8.7
		c0.9-1.1,0.7-2-0.3-2.9c-1.5-1.2-3-2.4-4.7-3.8C129.5,315,126.4,319,123.1,323.1z"/>
	<path class="st0" d="M116.2,427.9c8.7-14.4,17.2-28.5,25.8-42.6c4,2.2,7.7,4.3,11.6,6.4c-2.2,4.2-4.3,8.4-6.6,12.6
		c2.6,1.4,5.2,2.5,7.5,3.9c2.8,1.8,5.5,3.7,8,5.9c2.1,1.8,2.5,4.3,1.4,7c-2.6,6.2-5.1,12.4-7.5,18.7c-1,2.6-2.9,3.7-5.5,3.7
		c-2.1-0.1-4.3-0.3-6.3-1C134.4,439.3,125.6,433.3,116.2,427.9z M140.2,435.1c0.8-1,1.5-1.6,1.9-2.3c2.6-5.4,5.2-10.9,7.8-16.3
		c1.6-3.4,1.4-4-2.1-5.6c-0.6-0.3-1.3-0.8-1.9-0.7c-0.9,0.1-2.2,0.5-2.5,1.1c-3.2,5.9-6.3,11.9-9.3,17.8c-0.3,0.6-0.3,1.8,0,2
		C135.9,432.6,137.9,433.7,140.2,435.1z"/>
	<path class="st0" d="M78.7,399.2c10.8-12.1,21.5-24.1,32.4-36.3c3.5,2.9,6.9,5.6,10.5,8.5c-2.8,3.7-5.6,7.3-8.5,11
		c2,1.5,4,2.9,5.8,4.4c2.5,2.2,5.1,4.5,7.3,7c2.7,3,2.6,5.3,0.5,8.7c-3.3,5.3-6.7,10.5-10,15.8c-1.4,2.3-3.4,3.3-5.9,2.7
		c-1.9-0.4-3.9-1-5.7-1.9C95.2,414.3,87.3,406.5,78.7,399.2z M115.6,392.3c-0.3-0.5-0.4-1.1-0.8-1.4c-1-0.9-2.1-1.8-3.2-2.6
		c-1.4-1-2.6-0.8-3.7,0.7c-3.3,4.4-6.7,8.6-10.1,12.9c-3,3.8-2.9,4.4,1.1,7.2c0.4,0.3,0.8,0.5,1.2,0.8c1.4,0.9,2.5,0.7,3.5-0.8
		c3.6-5.1,7.4-10.2,11-15.3C115,393.4,115.3,392.9,115.6,392.3z"/>
	<path class="st0" d="M43.3,359.5c3.9-1.2,7.4-2.1,10.8-3.4c11.6-4.3,23.1-8.7,34.6-13.1c1.3-0.5,2-0.5,3,0.6
		c2.3,2.6,4.7,5.1,7.1,7.6c0.9,0.9,0.9,1.6,0.3,2.6c-8,13.8-15.2,28-21.5,42.7c-0.1,0.2-0.3,0.5-0.5,0.9c-0.4-0.3-0.9-0.5-1.2-0.8
		c-3.3-3.2-6.5-6.5-9.8-9.7c-0.9-0.9-1-1.6-0.4-2.7c1.3-2.2,2.3-4.6,3.6-6.8c0.6-1,0.5-1.7-0.3-2.5c-2.4-2.7-4.8-5.4-7.1-8.1
		c-0.8-0.9-1.4-1-2.5-0.6c-2.4,0.9-4.8,1.8-7.2,2.6c-0.6,0.2-1.6,0.2-1.8-0.1C48.1,365.8,45.8,362.7,43.3,359.5z M66.2,363.7
		c2.3,2.6,4.4,5,6.7,7.5c2.6-4.6,5.1-8.8,7.8-13.5C75.6,359.8,71.1,361.7,66.2,363.7z"/>
	<path class="st0" d="M348.2,423c-3.4-5.2-3.2-8.4,1.1-12.1c6.5-5.6,14.1-9.6,22.4-12c4.8-1.4,7.1-0.2,9.7,4
		c5,8.1,10,16.1,15.1,24.2c0.3,0.5,0.6,1.1,1.1,1.8c-3.6,2.1-7,4.4-10.6,6.2c-6,3-12.1,5.9-18.2,8.5c-2.2,0.9-4.9,1.1-7.3,1.1
		c-2.8,0.1-4.9-1.2-5.9-4c-0.7-1.9-1.5-3.7-2.4-5.5c-1.2-2.4-0.8-4.6,1.2-6.2c2.5-2.1,5.1-4,7.9-5.7c3.1-1.9,6.4-3.6,9.9-5.5
		c-1.7-3-3.3-6-4.9-8.9c-0.2-0.3-1-0.7-1.2-0.6c-2,1-4,2-5.8,3.2c-0.3,0.2-0.1,1.3,0.1,1.9c0.4,1,0.9,2,1.6,3.3
		C357.1,418.8,352.7,420.9,348.2,423z M374.1,421.5c-1.9,1.1-3.7,2-5.4,3c-1.6,1-2.1,2.2-1.1,4c0.7,1.2,1.3,2.5,1.9,3.7
		c1.9,3.7,2.6,3.9,6.3,1.9c0.8-0.5,1.7-1,2.3-1.7c0.4-0.5,0.8-1.6,0.5-2.2C377.3,427.3,375.7,424.5,374.1,421.5z"/>
	<path class="st0" d="M190.1,458.6c-9.2-0.8-18-3.3-25.8-8.4c-1.3-0.8-2.4-2.1-3.4-3.3c-1.2-1.4-1.4-3.1-0.7-4.9
		c2.5-6.6,5.1-13.2,7.6-19.8c1.1-2.9,3.4-3.8,6.1-3.8c2.1,0,4.2,0.1,6.2,0.6c5.4,1.5,10.7,3.2,16.1,5c1.4,0.5,2.7,1.4,4,2.2
		c2.8,1.9,3.8,4.3,3,7.7c-1.5,6.2-2.7,12.5-4,18.7c-0.9,4.4-2.5,5.7-6.9,6C191.5,458.7,190.8,458.6,190.1,458.6z M181.1,451.3
		c1.5,0.2,2.2-0.5,2.6-2c1.6-6,3.3-12,4.9-18.1c0.9-3.3,0.6-3.9-2.6-4.9c-0.5-0.1-0.9-0.2-1.4-0.4c-1.9-0.5-2.9,0.1-3.5,2.1
		c-1.6,5.7-3.5,11.3-5.2,16.9c-1.3,4.2-0.9,4.9,3.4,6C179.8,451,180.5,451.1,181.1,451.3z"/>
	<path class="st0" d="M354.7,385.9c-4.9,1.5-9.7,3-14.6,4.4c-6.3,1.8-12.7,3.5-19.4,3.4c-1.4,0-2.8-0.2-4.1-0.4c-3-0.6-4.3-2-4.8-5
		c-0.3-1.6-0.5-3.2-0.9-4.7c-0.6-2.4,0.4-4.1,2.4-4.9c3.5-1.5,7.1-2.9,10.7-4.1c3-1,6.1-1.7,9.4-2.6c-0.8-2.8-1.3-5.6-2.4-8.1
		c-1.1-2.4-3.3-1-4.9-0.6c-1.4,0.4-3.4,0.6-3,2.9c0.2,0.9,0.4,1.9,0.7,3.1c-5,1-9.7,2-14.5,3c-1.8-4.9-1.1-7.6,3.2-9.7
		c8.2-4,17-6.5,26.1-6.9c4.6-0.2,5.9,0.9,7.5,5.3c2.8,7.8,5.5,15.7,8.3,23.5C354.5,384.8,354.5,385.2,354.7,385.9z M334.4,375.6
		c-1.6,0.4-3.1,0.7-4.5,1.1c-3.5,0.9-3.8,1.5-3,5.1c0.1,0.4,0.2,0.8,0.3,1.2c1.1,4.5,1.8,4.9,6.2,3.5c0.9-0.3,1.8-0.5,2.4-1.1
		c0.5-0.4,0.9-1.3,0.8-1.9C336,380.9,335.2,378.3,334.4,375.6z"/>
	<path class="st0" d="M261.7,399.4c-5.2-0.4-10.3-0.6-15.3-1.2c-5.5-0.7-10.9-1.8-16.4-2.8c-0.9-0.2-1.8-0.6-2.7-1
		c-5.6-2.3-6.5-4-5.5-9.8c1.3-7.2,2.6-14.3,3.9-21.5c0.1-0.5,0.3-0.9,0.4-1.5c4.6,0.7,9.2,1.4,14,2.2c-0.5,4.1-0.9,8.2-1.4,12.2
		c-0.5,4.4-1,8.8-1.5,13.2c-0.2,1.5,0.3,2.4,1.8,2.7c1.4,0.3,2.9,0.6,4.3,0.6c1.7,0,2.7-0.6,2.8-2.7c0.5-7.7,1.2-15.5,1.8-23.2
		c0.1-0.6,0.2-1.2,0.3-2c3.2,0.2,6.4,0.4,9.5,0.5c4.6,0.2,4.6,0.1,4.5,4.8c-0.1,9.3-0.3,18.6-0.5,27.9
		C261.8,398.3,261.8,398.6,261.7,399.4z"/>
	<path class="st0" d="M171,379.1c-4.7-2.2-9.3-4.1-13.6-6.4c-5.2-2.8-10.4-5.8-15.4-9.1c-1.8-1.2-3.2-3-4.6-4.7
		c-1.4-1.8-1.6-3.8-0.2-5.8c0.7-1,1.3-2.1,2-3.2c1.6-2.6,2.5-3.3,5.4-2.3c4.6,1.6,9,3.6,13.4,5.6c1.8,0.8,3.6,1.8,5.6,2.8
		c1.2-2.5,2.6-4.7,3.2-7.1c0.6-2.5-2.2-2.8-3.7-3.7c-1.2-0.6-2.7-1.6-3.8,0.3c-0.4,0.7-0.8,1.4-1.3,2.4c-4.4-2.5-8.7-5-12.9-7.4
		c1.5-4.4,3.4-5.5,7.6-4.7c1.8,0.4,3.7,0.8,5.4,1.6c5.2,2.5,10.5,5.1,15.6,7.8c1.9,1,3.6,2.5,5.2,4c1.9,1.8,2.3,3.9,1.3,6.4
		C177.2,363.5,174.2,371.1,171,379.1z M162.3,359.1c-2.1-1-4-2-6-2.8c-0.7-0.3-2-0.2-2.4,0.3c-4.2,4.6-3.2,8.3,2.6,10
		c0.2,0.1,0.4,0.2,0.6,0.1c0.7-0.3,1.7-0.5,2-1C160.2,363.7,161.1,361.6,162.3,359.1z"/>
	<path class="st0" d="M290.1,374.8c-0.2-0.5-0.3-0.5-0.3-0.6c-0.4-1.3-0.6-3.6-1.3-3.7c-1.9-0.4-4.1-0.1-6.1,0.2
		c-0.5,0.1-1,1.2-1,1.9c-0.1,1.7,0.1,3.5,0.2,5.2c0,1.6,0.8,2.3,2.3,2.3c3-0.1,6-0.3,8.9-0.3c3.3,0,6.6,0.2,9.9,0.6
		c2.3,0.2,3.7,1.6,3.9,4.1c0.1,1.6,0.4,3.2,0.7,4.7c0.5,2.3-0.2,4.2-2.2,5.3c-2.2,1.2-4.6,2.3-7.1,2.9c-8.1,1.9-16.3,2.3-24.6,0.8
		c-0.7-0.1-1.4-0.3-2-0.5c-4.5-1.5-5.7-3.5-4.9-8.5c5.1,0,10.2,0,15.4,0c0.1,0.3,0.2,0.7,0.2,1c0.3,3.4,0.7,3.7,4.1,3.5
		c0.2,0,0.4,0,0.6,0c4.2-0.2,4.6-0.7,4.1-4.8c-0.7-5.4-0.7-5.2-6.1-5.3c-4.6,0-9.3-0.2-13.9-0.9c-4-0.6-4.8-2-4.8-5.9
		c0-1.1,0-2.2,0-3.3c0-3.4,1-5,4.2-6.2c2.3-0.8,4.8-1.5,7.2-1.8c6.7-0.9,13.5-1.7,20.3-0.6c4.4,0.7,6.1,2.5,6.4,6.8
		c0,0.5-0.5,1.4-0.9,1.4C299.1,373.8,294.6,374.3,290.1,374.8z"/>
	<path class="st0" d="M339.6,413.5c5,12.4,9.9,24.5,15,37c-5.3,1.9-10.3,3.7-15.7,5.6c-4.2-12.6-8.4-25-12.7-37.6
		C330.7,416.9,335,415.3,339.6,413.5z"/>
	<path class="st0" d="M84.6,313.1c-3.2,7.2-6.4,14.5-9.7,21.7c-3.4-2.6-3-6.8-1.9-10.3C75,318.9,79.4,315.7,84.6,313.1z"/>
	<path class="st0" d="M335.9,404.3c0.7,1.8,1.4,3.5,2.3,5.6c-4.4,1.7-8.7,3.3-13.1,5c-0.7-2-1.3-3.8-1.9-5.7
		C327.3,407.6,331.5,406,335.9,404.3z"/>
	<path class="st0" d="M191.1,73.1c-2.1-0.6-4.2-1.2-6.6-1.8c0.7-2.5,1.3-4.9,2-7.4c0,0-0.1,0.1-0.1,0.1c2.1,0.5,4.2,0.9,6.5,1.5
		C192.2,68.2,191.6,70.6,191.1,73.1C191,73.1,191.1,73.1,191.1,73.1z"/>
	<path d="M370.2,294.9c0.6,2.1,1.3,4.2,1.9,6.2c0.2,0.8,0.3,1.7,0.7,2.4c0.5,0.7,1.2,1.3,1.9,1.9c0.4-0.8,1.1-1.5,1.2-2.3
		c0.2-3.3,0.4-6.6,0.4-10c0.1-6.9,0.1-13.7,0-20.6c0-0.8-0.7-1.6-1.1-2.4c-0.7,0.5-1.6,0.9-2.1,1.6c-1.3,1.6-2.3,3.3-3.5,4.8
		c-0.4,0.5-1.2,0.8-2.2,1.5c-0.4-3.9-0.5-7.4,0.2-10.9c0.2-1.1,0.5-2.3,0.5-3.5c0-0.6-0.6-1.8-0.8-1.8c-0.8,0-1.7,0.4-2.2,0.9
		c-0.7,0.8-1.1,1.9-1.6,2.9c-1.1,2-2.6,3.5-4.9,4.2c-2.9,0.9-4.1,3.2-4.1,6.1c0,8.6-2.4,16.6-4.7,24.8c-0.2,0.6-0.5,1.4-1,1.8
		c-0.7,0.5-1.6,0.9-2.4,0.9c-0.4,0-1.1-1.1-1.1-1.7c0.1-7.7-1.1-15.6,2.8-22.8c1.8-3.4,3.7-6.6,5.7-9.9c0.9-1.5,1-2.7,0-4.2
		c-1.5-2.1-2.7-4.3-4.2-6.4c-0.4-0.5-1.4-1.1-1.8-0.9c-0.5,0.2-1.1,1.1-1.1,1.8c0,1.9,0.3,3.9,0.4,5.8c0.1,2.7,0.1,5.4-2.4,7.7
		c-0.7-1.1-1.2-2-1.9-2.9c-0.4-0.5-1.1-0.9-1.6-1.4c-0.4,0.7-1.1,1.3-1.1,2c-0.3,3.6-0.5,7.2-0.7,10.8c-0.3,5.1-0.5,10.2-1,15.3
		c-0.1,1.2-1.3,2.3-1.9,3.5c-0.7-1.2-1.4-2.5-2-3.7c-0.7-1.3-0.9-3-2-3.9c-3-2.7-5-8.7-3.9-12.6c2-6.8,2.7-13.7,2.3-20.7
		c-0.1-2-0.8-3.9-1.4-5.8c-0.1-0.5-0.8-0.8-1.3-1.2c-0.4,0.4-1,0.9-1.1,1.4c-0.3,2.9-0.5,5.8-0.7,8.7c-0.2,4.3-1.2,8.2-3.8,11.7
		c-0.3,0.4-0.5,0.8-0.7,1.3c-1.2-3.3-2.1-6.2-3.2-9c-1-2.4-3-3.5-5.6-3c-2,0.4-2.5-0.6-2.6-2.3c-0.2-2.3-0.7-4.6-1.1-7
		c-0.1-0.3-0.5-0.9-0.7-0.8c-0.5,0.1-1.1,0.4-1.3,0.7c-0.5,1.1-0.9,2.2-1,3.4c-0.4,4.7-1.5,9.3-3.4,13.6c-1.3,2.9-3,5.6-5,8.3
		c0-0.5-0.1-1.1-0.1-1.6c-0.3-7.9-1.7-15.7-4.1-23.2c-0.1-0.5-0.3-1-0.6-1.3c-0.4-0.4-1-0.8-1.5-0.8c-0.4,0-0.8,0.7-1,1.2
		c-0.2,0.9-0.2,1.8-0.3,2.7c-0.2,7.4-0.4,14.8-0.6,22.2c0,0.3-0.1,0.6-0.6,1.1c-0.5-0.7-1-1.5-1.5-2.2c-1.4-2.2-2.7-4.6-4.3-6.6
		c-2.1-2.6-4.4-2-5.7,1.1c-0.5,1.3-0.8,2.7-1.3,4.4c-0.4-0.7-0.8-1.1-1-1.5c-1.8-4.5-3.4-9.1-5.3-13.5c-0.7-1.7-2-3.2-3.2-4.5
		c-0.5-0.6-1.7-1-2.3-0.8c-0.6,0.2-1.1,1.3-1.2,2.1c-0.4,3.4-0.7,6.9-1,10.3c-0.1,0.9-0.3,1.7-0.6,3.2c-0.7-0.9-1-1.4-1.3-1.8
		c-3.1-4.9-6-10-9.2-14.8c-2-3-3.8-2.9-6.2-0.1c-4.1,4.9-8.1,9.9-12.1,14.8c-0.7,0.9-1.5,1.8-2.6,3.2c-0.1-1.1-0.2-1.7-0.2-2.3
		c0-2.2,0-4.5,0.2-6.7c0.2-1.8,0.7-3.5,1.1-5.2c0.1-0.6,0.6-1.2,0.5-1.8c-0.1-1-0.6-1.9-0.9-2.9c-0.8,0.4-1.9,0.7-2.5,1.3
		c-1.1,1.1-2,2.4-3.2,4c-0.5-2.7-0.5-4.7,0.6-6.6c1-1.8,2-3.6,3-5.4c0.1-0.2,0.3-0.5,0.4-0.7c0.8-1.9,1.3-4-0.2-5.5
		c-1.5-1.5-3.4-0.3-5,0.4c-5.8,2.4-8.2,10.2-7.9,15.8c0.1,1.9-0.4,3.8-0.9,5.7c-0.4,1.5-1.6,2.2-3.2,2.1c-0.9,0-1.8,0.1-2.7,0
		c-3.4,0-5.8,1.6-7.5,4.4c-0.5,0.9-1.1,1.7-2,2.4c0.2-1,0.4-1.9,0.7-2.9c1-3.6,2.1-7.1,3.1-10.7c0.2-0.5,0.2-1.1,0.2-1.6
		c0.1-2-1-2.6-2.7-1.9c-0.3,0.2-0.7,0.3-0.9,0.4c0.3-1.8,0.8-3.4,1-5.2c0.1-1.3,0.4-2.8-1.5-3.4c-2.7-0.8-4.6-0.5-5.9,1.2
		c-0.1,0.2-0.2,0.3-0.3,0.5c-1.4,2.4-4.2,3.3-6.6,2c-2.1-1.1-4.1-2.3-6-3.6c-0.7-0.5-1.7-1.6-1.6-2c0.4-1,1.2-2,2.2-2.5
		c1.2-0.7,2.7-1.1,4.1-1.4c2.1-0.6,4.1-1.3,5.5,1.3c0.4,0.8,1.4,1.3,2.1,2c1.9,1.7,3.3,1.9,5.7,0.8c1.3-0.6,2.7-1.2,4.1-1.5
		c1.6-0.4,2.7,0.5,3.1,2c0.3,0.9,0.3,2,0.6,2.8c0.3,0.7,1,1.5,1.7,1.7c0.3,0.1,1.2-0.8,1.6-1.4c2-3,3.7-6.1,5.9-9
		c1.3-1.7,3-3.1,4.6-4.5c0.5-0.5,1.2-0.8,2-1.4c0.1,0.7,0.2,1,0.2,1.3c0,1.3,0.3,2.6,1.7,2.6c1.1,0,2.6-0.6,3.3-1.4
		c1.5-1.8,2.5-4,3.8-5.9c0.4-0.6,1.2-1.4,1.9-1.4c0.6,0,1.4,0.9,1.6,1.6c0.9,2.7,2.8,4.6,4.9,6.4c1.7,1.5,3.4,3,5.3,4.3
		c0.7,0.5,2,0.8,2.8,0.6c0.6-0.2,1-1.6,1-2.4c0.1-2.7,0-5.4,0.1-8.1c0.1-2.2,0.4-4.4,0.7-6.6c0.2-1.4,1.2-1.8,2.2-1.5
		c1.3,0.4,2.8,1,3.8,2c2,2,3.7,4.3,5.7,6.3c0.9,0.9,1.7,2.9,3.2,1.7c0.7-0.6,0.4-2.6,0.2-4c-0.3-1.5-1.3-2.9-1.4-4.3
		c-0.1-1.1,0.8-2.3,1.2-3.5c1,0.4,2.1,0.5,2.8,1.1c1.3,1.1,2.3,2.5,3.4,3.9c1,1.3,0.7,2.1-0.9,2.5c-2.2,0.5-2.5,0.8-1.6,2.9
		c1.8,4,3.8,8,5.7,12c1.1,2.4,2,5,3.1,7.5c0.2,0.6,0.3,1.3,0.7,1.7c0.7,0.8,2,2.1,2.4,1.9c1.1-0.5,2.6-1.7,2.7-2.7
		c0.3-6.5,0.3-13,0.3-19.5c0-0.6-0.6-1.4-1.1-1.9c-2.4-2.3-4.9-4.5-7.4-6.6c-3-2.5-4-5.8-4-9.4c0-5.9,0.3-11.8,0.3-17.7
		c0-1.1-0.6-2.7-1.4-3.1c-0.9-0.4-2.5,0.1-3.5,0.7c-1,0.5-1.7,0.7-2.5-0.2c-1.7-1.6-3.2-3.3-2.8-5.9c0.2-1.4,1-2.4,2.4-2.3
		c9.7,0.4,19.2,2.4,28.2,6c2.3,0.9,4.8,1.9,5.9,4.6c0.2,0.5,1.5,0.8,2.4,0.7c0.4,0,1.2-0.8,1.2-1.3c0.4-4.4,0.2-8.8-1.2-13.1
		c-0.2-0.8-1-1.3-1.3-2.1c-0.4-1.1-1-2.4-0.8-3.4c0.3-1.8,1.6-2.1,3.3-1.3c2.2,1,4.3,2.1,6.6,2.7c2.2,0.6,4.2,0.1,5.9-2
		c0.9-1.1,2.9-1.4,4.4-2c1.2-0.4,2.6-0.4,3.8-0.9c0.7-0.3,1.2-1.3,1.8-1.9c-0.7-0.4-1.3-1.2-2-1.2c-3.5-0.2-7.1-0.2-10.6-0.4
		c-3.4-0.2-5.9-1.9-8.4-4.9c1.6-0.1,2.6-0.3,3.6-0.3c5.5,0,11.1,0.1,16.6,0.2c2,0,3.1-0.7,3.2-2.4c0.1-1.3-0.4-2.2-1.7-1.9
		c-5.5,1.4-10.3-1-15.3-2.6c-1.2-0.4-2.3-1.2-3.4-1.9c0.1-0.2,0.1-0.5,0.2-0.7c1.2-0.2,2.4-0.3,3.6-0.5c3-0.5,6-0.9,8.9-1.7
		c0.8-0.2,2.1-1.8,2-2.1c-0.5-1-1.5-2.4-2.5-2.6c-10.4-2.1-20.9-4-31.3-6.1c-1.7-0.4-3.3-1.6-4.9-2.5c-1.9-1-3.7-2.2-5.7-2.8
		c-2.4-0.8-3.2,0.1-3.3,2.5c0,0.8,0,1.5,0,2.3c-0.1,2.1-1.5,3-3.3,1.7c-1.2-0.9-2.3-2-3.4-3.1c-2.6-2.6-5.4-3.7-9-2
		c-4.3,1.9-9,1.5-13.3,0.6c-14.7-2.8-29.4-3.2-44.3-2.5c-1.2,0.1-2.4,0-3.6,0c-0.1-0.2-0.2-0.5-0.3-0.7c1-0.8,1.8-1.8,2.9-2.3
		c6-3.1,12.3-5.2,19.1-5.2c11.7,0,23.5,0.1,35.2,0.4c7.1,0.2,14.2,0.9,21.3,1.4c2.3,0.2,4.5,0.7,6.8,0.9c1.2,0.1,2.5,0.1,3.7-0.3
		c0.6-0.2,1.3-1.1,1.4-1.8c0.1-0.5-0.7-1.5-1.2-1.6c-6.8-1.8-13.6-3.9-20.5-5.2c-3.3-0.6-6.9,0.2-10.3,0.4c-5.7,0.2-11.3,0.7-17,0.5
		c-6.5-0.2-12.9-1.2-19.4-1.4c-4.3-0.1-8.7,0.6-13,1.3c-4.1,0.7-8.3,1.7-12.3,3c-7.1,2.2-12.2,7-16.2,13.2
		c-3.5,5.5-5.2,11.5-6.7,17.8c-0.1,0.3-0.3,0.6-0.6,1.4c-0.9-1.2-1.8-2-2.2-3c-2.3-6-5-11.9-6.6-18.2c-1.1-4.3-0.8-8.9-0.8-13.4
		c0-7.6,2.2-14.8,5.8-21.5c4.2-7.7,11-12.4,19.1-15.7c5-2,9.9-4.3,15.4-3.6c4.7,0.6,9.3,1.7,13.9,2.6c0.5,0.1,0.9,0.2,1.6,0.3
		c0.5-2,1.1-3.9,1.4-5.9c0.3-1.3,0.9-1.5,2-1.2c1.6,0.5,3.3,0.8,5.2,1.3c0.6-2.5,1.2-4.9,1.9-7.4c2.2,0.5,4.2,0.9,6.5,1.4
		c0.6-2.5,1.2-4.8,1.9-7.4c4.2,1,8.3,2,12.7,3c-0.6,2.5-1.1,4.9-1.7,7.5c2.2,0.5,4.2,1,6.5,1.6c0.6-2.5,1.3-4.8,1.9-7.4
		c2.2,0.5,4.2,1,6.5,1.5c-0.6,2.5-1.2,4.9-1.8,7.5c2.2,0.6,4.2,1.1,6.5,1.7c-0.6,2.5-1.2,4.9-1.8,7.4c-2.2-0.5-4.2-1-6.4-1.5
		c0.6-2.5,1.1-4.9,1.7-7.5c-2.2-0.5-4.2-1-6.5-1.6c-0.6,2.6-1.2,4.9-1.8,7.5c2.1,0.5,4,1,6.1,1.6c-0.6,2.5-1.1,4.9-1.7,7.5
		c13.1,3.2,26.1,6.3,39.2,9.5c0.6-2.6,1.2-4.9,1.8-7.4c2.2,0.5,4.3,0.9,6.5,1.4c0.6-2.5,1.2-4.8,1.9-7.4c2.2,0.5,4.2,0.9,6.5,1.4
		c0.6-2.4,1.2-4.7,1.9-7.4c12.7,3.1,25.3,6.1,38.3,9.2c0.6-2.5,1.2-4.9,1.9-7.5c-40.3-9.7-80.4-19.4-120.7-29.2
		c5.1-5.6,11.3-9,18-12.4c0.1,0.7,0.2,1.3,0.3,1.8c0.1,2.5,0.9,2.9,3.1,1.6c3.8-2.1,7.5-4.2,11.3-6.1c1.8-0.8,3.8-1.1,5.8-1.4
		c1.6-0.2,3,0.5,3.2,2.5c0.2,1.9,1.5,2.1,2.9,1.5c4.3-1.9,8.7-2.5,13.3-2.9c6.3-0.5,12,1.2,17.3,4.2c3.7,2.1,7.5,2.4,11.5,1.8
		c4.3-0.6,7.7,0.8,10.9,3.4c0.1,0.1,0.3,0.2,0.3,0.3c1.1,3.7,4.6,3.4,7.4,4.2c4.6,1.4,9.4,2.5,14,3.8c0.7,0.2,1.3,0.7,2,1.1
		c0,0.2-0.1,0.4-0.1,0.7c-1,0.2-2.1,0.2-3.1,0.6c-1,0.4-1.8,1.2-2.7,1.9c0.7,0.6,1.3,1.6,2.1,1.8c15.1,3.9,26.3,13.5,36.3,24.8
		c3.5,4,6.9,8.2,10.2,12.3c0.4,0.5,0.5,1.2,0.8,1.8c-0.6,0.2-1.2,0.5-1.9,0.6c-1.1,0.2-2.4,0.1-3.4,0.5c-0.6,0.2-1.4,1.1-1.4,1.7
		c0,0.7,0.6,1.7,1.2,2.1c1.4,1,3.3,1.5,4.4,2.7c1.7,1.9,3.3,4.1,4.4,6.5c3.2,6.7,6.4,13.4,8.9,20.4c2.1,5.6,3.4,11.4,4.8,17.2
		c1.5,6.3,2.8,12.7,4.1,19.1c0.5,2.3-0.4,2.9-2.7,2.1c-1.5-0.5-3-1-4.6-1.1c-2.3-0.2-2.7,0.6-2.1,2.8c1.3,4.9,2.8,9.9,3.9,14.9
		c2.1,9.7,2.2,19.5,1.3,29.4c-0.3,3.2-0.8,6.3-1.4,9.4c-0.3,1.6-1,3.1-1.6,4.6c-0.2,0-0.5,0.1-0.7,0.1c-1-1.4-1.9-2.7-2.9-4.1
		c-0.9-1.2-2-2.7-3.5-1.7c-0.7,0.4-0.9,2.6-0.4,3.5c4.3,7.8,2.8,15.4-0.1,23.1c0,0.1,0,0.3,0.1,0.7c0.6-0.2,1.4-0.1,1.8-0.5
		c1-0.8,2-1.8,2.7-2.8c0.9-1.3,1.4-3.5,3.1-3c1.2,0.3,2.3,2.3,2.7,3.7c1.6,5.5,1,11-1.7,16.1c-0.9,1.8-1.8,3.6-2.9,5.3
		c-1.3,2-2.6,2.2-4.6,0.8c-1.9-1.4-3.6-3.1-5.5-4.5c-0.7-0.5-1.6-0.6-2.5-0.8c0,0.9-0.4,2-0.1,2.8c1,2.4,2.6,4.5,3.4,6.9
		c2.2,7.1,2.9,14.2-0.1,21.3c-1.4,3.2-2.9,6.4-4.5,9.6c-0.3,0.6-0.8,1.1-1.5,2c-1.3-2.6-2.4-4.9-3.6-7.1c-0.6-1.1-1.6-1.9-2.4-2.8
		c-0.3,1.1-0.8,2.3-0.8,3.4c0,4.7,0.3,9.4,0.4,14.1c0.1,3.3-0.9,6.4-2.4,9.5c-2.8-0.7-4.8-2.4-6.7-4.4c-1.1-1.2-2.1-2.4-3.3-3.4
		c-0.5-0.4-1.4-0.6-2-0.5c-0.3,0.1-0.6,1.1-0.6,1.8c-0.2,4.8-0.2,9.7-0.4,14.5c0,1-0.4,2-0.6,3c-0.2,0-0.5,0.1-0.8,0.1
		c-1.2-1.8-2.4-3.5-3.5-5.3c-3.4-5.4-6.7-10.9-10.3-16.3c-3.5-5.4-4.1-11.2-2.8-17.3c0.9-4.2,1.6-8.5,2.7-12.7
		c0.7-2.7,2.1-5.1,3.2-7.7c0.3,0.1,0.5,0.1,0.8,0.2c0.2,0.6,0.6,1.2,0.6,1.8c0.5,4.1,0.9,8.1,1.3,12.2c0.4,5.1,0.6,10.2,1,15.3
		c0,0.6,0.1,1.3,0.3,1.8c0.2,0.5,0.8,0.8,1.2,1.2c0.3-0.4,0.9-0.8,1-1.2c0.7-3.8,1.2-7.6,1.9-11.5c0.5-3.2,1-6.4,1.6-9.6
		c0.1-0.6,0.7-1.1,1-1.6C369.8,294.9,370,294.9,370.2,294.9z M360.9,244.4c-0.5-2.5-0.8-5.1-1.4-7.6c-1.4-5.4-3.7-10.2-9.2-12.6
		c-1.1-0.5-2.6-0.2-3.9-0.3c0,1.2-0.2,2.5,0.2,3.5c1.8,4.6,3.8,9,5.5,13.6c1.3,3.5,2.2,7.1,3.5,10.6c0.3,0.8,1.4,1.6,2.2,1.7
		c0.5,0,1.5-1.1,1.7-1.9C360.2,249.2,360.4,246.8,360.9,244.4z M217.4,102.1c1.7-0.1,3.4,0,4.9-0.5c1-0.3,2.1-1.3,2.6-2.3
		c0.2-0.4-0.9-1.6-1.6-2.3c-0.8-0.8-1.8-1.3-2.7-2c-4.4-3.1-9-5.7-14.8-5.1c-2.8,0.3-4.2,2.3-3.3,4.9c0.8,2.2,2.3,3.8,4.3,4.8
		C210.2,101.3,213.7,102.1,217.4,102.1z M299,209.8c-0.4,0.1-1.3,0.4-2.1,0.8c0.4,0.9,0.7,1.8,1.2,2.7c1.7,2.8,3.6,5.4,5.2,8.2
		c2.3,4.1,4.4,8.3,6.8,12.3c0.4,0.8,1.6,1.2,2.4,1.8c0.1-0.9,0.5-1.9,0.4-2.8c-0.7-4.7-1.5-9.4-2.4-14.1c-0.3-1.5-0.8-2.9-1.5-4.2
		C306.9,210.6,303.2,210.2,299,209.8z M346.4,212.9c2.8,0.1,4.1-1.5,3.6-4.4c-1.3-7.3-4-9.4-11.4-12.1c-0.7-0.3-2.2-0.3-2.4,0.1
		c-0.4,0.7-0.3,1.9,0,2.7c1.4,3.8,2.9,7.6,4.7,11.3c0.4,0.9,1.7,1.6,2.7,2.1C344.4,213,345.5,212.8,346.4,212.9z M284.9,209.6
		c-0.6-5.6-2.5-9.1-6.9-10.6c-0.9-0.3-2-0.1-3.1-0.1c0,1-0.2,2,0.1,2.9c1.3,3.9,2.6,7.7,4,11.6c0.3,0.9,0.8,1.8,1.2,2.6
		c0.7,1.4,1.8,1.5,2.4,0C283.6,213.5,284.3,211.1,284.9,209.6z M330.2,200.3c2.2-3.8,0.9-10.3-2.1-12.6c-0.2-0.1-0.3-0.3-0.5-0.3
		c-3.3-0.3-6.6-0.7-9.9-0.9c-0.5,0-0.9,0.4-1.6,0.7C320.9,191.5,325.5,195.8,330.2,200.3z M261.7,250.7c0.1-6.8-1.3-9.8-6-12.5
		c-0.7-0.4-2.3-0.8-2.5-0.5c-0.5,0.8-0.9,2.1-0.7,3c0.4,1.9,1.3,3.6,2,5.4c1.3,3,2.7,5.9,4.1,8.8c0.3,0.6,1.2,0.9,1.8,1.3
		c0.3-0.7,0.8-1.3,1-2.1C261.6,253.1,261.6,252,261.7,250.7z M406.3,169.5c0.3,0,0.5,0,0.8,0c0.4-1.1,1.2-2.1,1.2-3.2
		c0.1-2.8,0.3-5.7-0.1-8.5c-0.8-5.4-3.8-8.2-9.3-9.1C400.6,156.2,404.2,162.6,406.3,169.5z M362.4,98.4c-4.4-1-8.5-2-12.7-3.1
		c-0.6,2.5-1.1,4.7-1.7,7.2c4.3,1,8.4,2,12.7,3.1c0.5-1.9,0.9-3.5,1.3-5.1C362.2,99.9,362.3,99.3,362.4,98.4z M283.9,110.9
		c0.2,1.3,0.2,2.1,0.3,2.9c0.5,4,2.7,5.8,6.7,5c1.5-0.3,3-0.9,4.4-1.6c0.7-0.3,1.6-1.6,1.5-1.8c-0.5-0.8-1.3-1.8-2.2-1.8
		c-3.1-0.3-5.5-1.6-7.8-3.6c-0.6-0.5-1.6-0.9-2.3-0.8C284.2,109.3,284.1,110.5,283.9,110.9z M302.4,140.3c-1.3-2-2.5-4.1-4-5.9
		c-1.1-1.5-2.6-1.9-4.4-0.8c-1.2,0.7-2.4,1.3-3.5,2.2c-0.8,0.6-1.4,1.6-2,2.4c0.9,0.6,1.7,1.5,2.7,1.8c2.8,0.8,5.7,1.4,8.6,2.1
		C301,142.4,301.9,142.1,302.4,140.3z"/>
	<path d="M191,73.1c0.6-2.5,1.2-4.9,1.9-7.7c-2.3-0.5-4.4-1-6.5-1.5c0.6-2.5,1.1-4.9,1.7-7.6c2.3,0.5,4.3,1,6.5,1.6
		c-0.6,2.6-1.1,4.9-1.7,7.5c2.1,0.6,4.2,1.1,6.5,1.7c-0.6,2.5-1.2,4.8-1.8,7.3C195.3,73.9,193.2,73.5,191,73.1z"/>
	<path d="M283.2,160.2c-3.5-1.1-7.1-2.2-10.5-3.4c-0.6-0.2-1.2-1.4-1.2-2c0-0.4,1.1-1.2,1.8-1.2c2.4-0.2,4.8-0.1,7.3-0.3
		c2.5-0.2,4.7,0.7,6.4,2.5c0.7,0.7,1.4,1.9,1.2,2.6c-0.2,0.6-1.5,1-2.5,1.3c-0.7,0.2-1.5,0-2.3,0C283.3,159.8,283.3,160,283.2,160.2
		z"/>
	<path d="M203,230.6c0.6-0.4,1.2-0.9,1.8-1.3c4.3-2.7,8.6-5.5,13-8.1c0.5-0.3,1.5,0.1,2.3,0.2c-0.2,0.8-0.1,1.9-0.6,2.3
		c-4.3,3.1-8.6,6.3-13.7,8c-0.7,0.2-1.6-0.1-2.4-0.1C203.2,231.2,203.1,230.9,203,230.6z"/>
	<path d="M270.3,84.6c2.2,0.3,4.4,0.6,6.8,0.9c-0.6,2.7-1.2,5.1-1.8,7.7c-2.2-0.5-4.2-1-6.4-1.5C269.4,89.2,269.9,86.9,270.3,84.6
		L270.3,84.6z"/>
	<path d="M250.7,202.8c0.8-0.1,1.1-0.3,1.4-0.2c4.8,1.1,7.9,7.8,5.5,12.2c-0.5,1-1.4,1.7-1.9,0.4C254,211.2,252.4,207.1,250.7,202.8
		z"/>
	<path d="M270.3,84.6c-1.2-0.5-2.5-1-3.7-1.4c-0.7-0.2-1.5-0.4-2.5-0.6c0.6-2.5,1.1-4.8,1.7-7.5c2.2,0.5,4.2,1,6.6,1.6
		C271.7,79.4,271,82,270.3,84.6C270.3,84.6,270.3,84.6,270.3,84.6z"/>
	<path d="M284.2,171.3c0,0.2,0,0.9-0.3,1.5c-0.3,0.6-0.7,1.3-1.2,1.4c-0.5,0.1-1.2-0.5-1.6-0.9c-1.8-2.4-3.4-4.8-5.1-7.2
		c-0.3-0.4-0.6-1.1-0.4-1.4c0.3-0.4,0.9-0.8,1.5-0.8C280.8,163.7,284.3,167.3,284.2,171.3z"/>
	<path d="M238.4,174.7c-0.5,1.8-1,3.7-1.7,5.5c-0.2,0.5-1,0.9-1.6,1c-0.2,0-0.8-0.8-0.9-1.3c-0.2-0.9-0.3-1.9-0.2-2.9
		c0.4-2.4-0.2-4.5-1.8-6.4c-0.5-0.6-0.4-1.5-0.6-2.3c0.8,0.1,1.8,0,2.4,0.4C235.9,170.4,238.8,171.2,238.4,174.7z"/>
	<path d="M53.2,343.9c1.1-3.6,2-6.8,3-10c0.2-0.8,0.6-1.6,1.1-2.2c0.4-0.4,1.2-0.7,1.7-0.6c0.4,0.1,0.9,1,0.8,1.4
		c-0.4,2.8-0.8,5.6-1.3,8.4c-0.1,0.5-0.7,1.1-1.1,1.3C56.1,342.9,54.8,343.3,53.2,343.9z"/>
	<path d="M211.5,154.6c-2.3-1.7-4.5-3.1-6.6-4.8c-0.4-0.3-0.5-1.6-0.2-1.9c0.7-0.6,1.7-1.4,2.6-1.3
		C209.6,146.8,212.4,152,211.5,154.6z"/>
	<path d="M262.1,449.2c0-3.5,0.1-6.9,0-10.4c0-1.4,0.5-2.3,1.9-2.5c1.4-0.2,2.8-0.3,4.1-0.2c1.2,0.1,2,0.8,2.1,2.1
		c0.5,7.2,1.1,14.4,1.7,21.5c0.1,1.5-0.5,2.2-1.8,2.5c-0.8,0.2-1.6,0.3-2.5,0.4c-3.9,0.1-4.4-0.4-4.6-4.2c-0.1-1.6-0.2-3.2-0.2-4.8
		c0-1.5,0-3,0-4.6C262.5,449.2,262.3,449.2,262.1,449.2z"/>
	<path d="M223.7,460.7c-0.2,0-0.7,0-1.3-0.1c-3.8-0.6-4.2-1.1-3.7-5c0.8-6,1.6-12.1,2.3-18.1c0.3-2.6,0.8-3,3.5-2.9
		c0.5,0,1,0.1,1.4,0.1c3,0.4,3.5,1.1,3.2,4.1c-0.6,6.3-1.2,12.7-1.8,19C227.1,460.3,226.7,460.7,223.7,460.7z"/>
	<path d="M200.5,360.6c0.7,0.2,1.5,0.3,2.2,0.5c3.7,1,4,1.6,3,5.1c-1.4,5.1-2.8,10.3-4.1,15.4c-0.4,1.8-1.4,2.2-3,1.8
		c-0.2,0-0.4-0.1-0.6-0.1c-5.2-1.2-5.6-1.8-4.1-6.8c1.4-4.7,2.8-9.4,4.3-14.1c0.3-0.8,1.2-1.5,1.8-2.2
		C200.1,360.4,200.3,360.5,200.5,360.6z"/>
	<path d="M123.1,323.1c3.3-4.1,6.4-8.1,9.6-12.2c1.7,1.4,3.2,2.5,4.7,3.8c1,0.8,1.1,1.7,0.3,2.9c-2.2,2.9-4.3,5.8-6.4,8.7
		c-0.8,1.2-1.8,1.3-2.8,0.6C126.7,325.7,125,324.4,123.1,323.1z"/>
	<path d="M140.2,435.1c-2.3-1.4-4.3-2.6-6.1-3.9c-0.3-0.2-0.3-1.5,0-2c3-6,6.1-12,9.3-17.8c0.4-0.6,1.6-1,2.5-1.1
		c0.6-0.1,1.3,0.4,1.9,0.7c3.4,1.6,3.7,2.3,2.1,5.6c-2.6,5.4-5.2,10.9-7.8,16.3C141.7,433.6,141,434.1,140.2,435.1z"/>
	<path d="M115.6,392.3c-0.3,0.6-0.6,1-0.9,1.5c-3.7,5.1-7.4,10.2-11,15.3c-1,1.5-2.1,1.6-3.5,0.8c-0.4-0.3-0.8-0.5-1.2-0.8
		c-4-2.8-4.1-3.4-1.1-7.2c3.4-4.3,6.8-8.6,10.1-12.9c1.1-1.5,2.3-1.7,3.7-0.7c1.1,0.8,2.2,1.7,3.2,2.6
		C115.2,391.3,115.4,391.8,115.6,392.3z"/>
	<path d="M66.2,363.7c4.9-2.1,9.4-4,14.4-6.1c-2.7,4.7-5.1,8.9-7.8,13.5C70.6,368.7,68.5,366.3,66.2,363.7z"/>
	<path d="M374.1,421.5c1.6,3,3.2,5.8,4.6,8.7c0.3,0.5-0.1,1.6-0.5,2.2c-0.6,0.7-1.5,1.2-2.3,1.7c-3.7,2-4.5,1.8-6.3-1.9
		c-0.6-1.2-1.2-2.5-1.9-3.7c-1.1-1.8-0.6-3,1.1-4C370.4,423.5,372.1,422.5,374.1,421.5z"/>
	<path d="M181.1,451.3c-0.6-0.1-1.2-0.2-1.8-0.4c-4.3-1.2-4.7-1.8-3.4-6c1.8-5.6,3.6-11.2,5.2-16.9c0.6-2,1.6-2.6,3.5-2.1
		c0.5,0.1,0.9,0.2,1.4,0.4c3.3,1,3.6,1.6,2.6,4.9c-1.7,6-3.4,12-4.9,18.1C183.3,450.8,182.6,451.4,181.1,451.3z"/>
	<path d="M334.4,375.6c0.8,2.8,1.6,5.3,2.2,7.9c0.1,0.6-0.3,1.5-0.8,1.9c-0.7,0.5-1.6,0.8-2.4,1.1c-4.4,1.4-5.1,1-6.2-3.5
		c-0.1-0.4-0.2-0.8-0.3-1.2c-0.8-3.6-0.5-4.1,3-5.1C331.3,376.3,332.8,376,334.4,375.6z"/>
	<path d="M162.3,359.1c-1.2,2.5-2.1,4.6-3.2,6.7c-0.3,0.5-1.3,0.7-2,1c-0.2,0.1-0.4-0.1-0.6-0.1c-5.8-1.7-6.8-5.4-2.6-10
		c0.4-0.5,1.7-0.6,2.4-0.3C158.2,357.1,160.1,358.1,162.3,359.1z"/>
	<path class="st0" d="M360.9,244.4c-0.4,2.5-0.7,4.8-1.3,7.1c-0.2,0.8-1.2,1.9-1.7,1.9c-0.8-0.1-1.9-0.9-2.2-1.7
		c-1.3-3.5-2.2-7.1-3.5-10.6c-1.7-4.6-3.8-9.1-5.5-13.6c-0.4-1-0.1-2.3-0.2-3.5c1.3,0.1,2.7-0.2,3.9,0.3c5.5,2.4,7.8,7.2,9.2,12.6
		C360.1,239.2,360.4,241.8,360.9,244.4z"/>
	<path class="st0" d="M217.4,102.1c-3.7,0-7.2-0.8-10.5-2.4c-2.1-1-3.6-2.6-4.3-4.8c-0.9-2.6,0.5-4.6,3.3-4.9
		c5.7-0.6,10.3,1.9,14.8,5.1c0.9,0.6,1.9,1.2,2.7,2c0.7,0.7,1.8,1.9,1.6,2.3c-0.5,1-1.6,2-2.6,2.3C220.8,102.1,219,102,217.4,102.1z
		"/>
	<path class="st0" d="M299,209.8c4.2,0.5,7.8,0.9,9.8,4.6c0.7,1.3,1.2,2.8,1.5,4.2c0.9,4.7,1.7,9.4,2.4,14.1
		c0.1,0.9-0.2,1.9-0.4,2.8c-0.8-0.6-1.9-1-2.4-1.8c-2.3-4.1-4.4-8.3-6.8-12.3c-1.6-2.8-3.5-5.4-5.2-8.2c-0.5-0.8-0.8-1.8-1.2-2.7
		C297.8,210.2,298.6,209.9,299,209.8z"/>
	<path class="st0" d="M346.4,212.9c-1-0.1-2,0-2.9-0.3c-1-0.5-2.3-1.2-2.7-2.1c-1.7-3.7-3.2-7.5-4.7-11.3c-0.3-0.8-0.4-2,0-2.7
		c0.2-0.4,1.7-0.4,2.4-0.1c7.4,2.8,10.1,4.9,11.4,12.1C350.6,211.4,349.2,213,346.4,212.9z"/>
	<path class="st0" d="M284.9,209.6c-0.5,1.5-1.3,4-2.3,6.3c-0.6,1.5-1.6,1.3-2.4,0c-0.5-0.8-0.9-1.7-1.2-2.6
		c-1.4-3.8-2.8-7.7-4-11.6c-0.3-0.9,0-1.9-0.1-2.9c1,0,2.1-0.2,3.1,0.1C282.4,200.5,284.3,204,284.9,209.6z"/>
	<path class="st0" d="M330.2,200.3c-4.7-4.4-9.3-8.7-14.1-13.2c0.7-0.3,1.1-0.7,1.6-0.7c3.3,0.2,6.6,0.6,9.9,0.9
		c0.2,0,0.3,0.2,0.5,0.3C331.1,189.9,332.4,196.4,330.2,200.3z"/>
	<path class="st0" d="M261.7,250.7c-0.1,1.2-0.1,2.3-0.3,3.4c-0.1,0.7-0.6,1.4-1,2.1c-0.6-0.4-1.5-0.7-1.8-1.3
		c-1.5-2.9-2.8-5.8-4.1-8.8c-0.8-1.8-1.6-3.5-2-5.4c-0.2-0.9,0.2-2.2,0.7-3c0.2-0.3,1.8,0.1,2.5,0.5
		C260.4,240.9,261.8,243.9,261.7,250.7z"/>
	<path class="st0" d="M406.3,169.5c-2.1-7-5.7-13.3-7.5-20.7c5.5,0.8,8.5,3.7,9.3,9.1c0.4,2.8,0.3,5.7,0.1,8.5
		c-0.1,1.1-0.8,2.1-1.2,3.2C406.8,169.6,406.6,169.6,406.3,169.5z"/>
	<path class="st0" d="M362.4,98.4c-0.2,0.9-0.3,1.5-0.4,2.1c-0.4,1.6-0.8,3.2-1.3,5.1c-4.3-1-8.4-2-12.7-3.1
		c0.6-2.4,1.1-4.6,1.7-7.2C354,96.4,358.1,97.4,362.4,98.4z"/>
	<path class="st0" d="M283.9,110.9c0.1-0.4,0.3-1.6,0.7-1.7c0.7-0.1,1.7,0.3,2.3,0.8c2.3,1.9,4.7,3.3,7.8,3.6
		c0.8,0.1,1.7,1.1,2.2,1.8c0.1,0.3-0.8,1.5-1.5,1.8c-1.4,0.7-2.9,1.3-4.4,1.6c-4,0.8-6.2-1-6.7-5C284.2,113,284.1,112.2,283.9,110.9
		z"/>
	<path class="st0" d="M302.4,140.3c-0.5,1.8-1.3,2-2.5,1.7c-2.9-0.7-5.8-1.2-8.6-2.1c-1-0.3-1.8-1.2-2.7-1.8c0.7-0.8,1.2-1.8,2-2.4
		c1.1-0.9,2.3-1.5,3.5-2.2c1.7-1.1,3.3-0.7,4.4,0.8C299.9,136.3,301.1,138.4,302.4,140.3z"/>
</g>
</svg>
