<?xml version="1.0" encoding="utf-8"?>
<!-- Generator: Adobe Illustrator 25.0.1, SVG Export Plug-In . SVG Version: 6.00 Build 0)  -->
<svg version="1.1" id="Livello_1" xmlns="http://www.w3.org/2000/svg" xmlns:xlink="http://www.w3.org/1999/xlink" x="0px" y="0px"
	 viewBox="0 0 43.5 43.1" style="enable-background:new 0 0 43.5 43.1;" xml:space="preserve">
<style type="text/css">
	.st0{fill:#A8FF00;}
</style>
<circle class="st0" cx="21.7" cy="21.6" r="21.6"/>
<g id="e5ntEF_3_">
	<g>
		<path d="M13.4,34.2c-1.6,0-3.1,0-4.7,0c4.7-8.5,9.5-16.9,14.2-25.3c1.6,0,3.1,0,4.7,0c2.1,3.6,4.1,7.2,6.1,10.8
			c0.3-0.2,0.7-0.4,1.1-0.6c-0.6,1.1-1.3,2.1-1.9,3.2c-1.2,0-2.5,0-3.7,0c0.3-0.2,0.7-0.4,1-0.6c-1.6-2.9-3.3-5.7-4.9-8.6
			C21.3,20.1,17.3,27.2,13.4,34.2z"/>
		<path d="M22.1,22.3c1.3,0,2.6,0,3.9,0c-0.4,0.2-0.7,0.4-1.1,0.6c2.1,3.8,4.2,7.6,6.3,11.4c-1.5,0.1-3.1,0-4.7,0
			c-1.8-3.1-3.5-6.2-5.2-9.3c-0.3,0.2-0.7,0.4-1,0.6C20.9,24.4,21.5,23.3,22.1,22.3z"/>
	</g>
</g>
</svg>
