<svg xmlns="http://www.w3.org/2000/svg" viewBox="0 0 32.76 34.87"><defs><style>.cls-1{fill:#6c3126;}.cls-2{fill:#9d534b;}</style></defs><g id="Livello_2" data-name="Livello 2"><g id="Front"><path class="cls-1" d="M.05,18.82s-.88,5.49,4.76,10.93c3.66,3.53,9.42,5.49,13,5.06C28.45,33.53,31,24.56,32.26,18.17,33,14.35,32.91,7.85,31.9,5c-.37-1.06-2-3.31-3.14-3.11-.47.08-.52.17-.88-.17A3.22,3.22,0,0,0,26.7.42c-2-1.21-8.27.43-11.83,1.85C10.6,4,7.88,5.61,5.24,8.45A19.8,19.8,0,0,0,.05,18.82Z"/><path class="cls-2" d="M29,3.67S18.18,5.57,16.83,8.72c-3.72,8.67-5.3,4.78-11.7,9.18-6.12,4.2.41,10.22.51,10.34a14.32,14.32,0,0,0,11.79,5.12c6-.28,11.48-4.43,13.35-14.82,1.5-8.33-.24-12.86-.24-12.86A5.16,5.16,0,0,0,29,3.67Z"/><path class="cls-1" d="M27.66,5.06S22.47,6.75,20,7.86s-3.75,5.5-4.24,6.7c-.06.15-.25.61-.29.77-.08.32-.4.82-3,1.45-3.34.81,1.44.85,1.44.85s3.41-.31,3.42-1.35A8.07,8.07,0,0,1,21.08,9c.92-.56,5.51-2.4,6.11-2.82A1.34,1.34,0,0,0,27.66,5.06Z"/></g></g></svg>